/* XPM */
static char *result[] = {
/* columns rows colors chars-per-pixel */
"52 52 37 1 ",
"  c #B9B6B3",
". c #C3BEBC",
"X c #C3C0BB",
"o c #C7C3C1",
"O c #C9C6C2",
"+ c #CDC9C5",
"@ c #CECCC9",
"# c #D1CECB",
"$ c #D4D1CE",
"% c #DBD6CD",
"& c #DDD8CE",
"* c #D6D4D1",
"= c #D9D6D3",
"- c #DCD9D5",
"; c #DDDCD9",
": c #E2DDD5",
"> c #E2DEDA",
", c #E5E0D7",
"< c #E5E2DD",
"1 c #EAE5DE",
"2 c #EDE8DF",
"3 c #E6E4E2",
"4 c #E9E6E2",
"5 c #EBE9E5",
"6 c #EDECEA",
"7 c #F1EDE6",
"8 c #F1EFEB",
"9 c #EFF0ED",
"0 c #F3F0E7",
"q c #F3F1EE",
"w c #F8F4EE",
"e c #EEEEF0",
"r c #F5F4F2",
"t c #F8F7F4",
"y c #F7F8F6",
"u c #FAF8F6",
"i c #FBFAF9",
/* pixels */
"q5<676q5590qrq6-6-rr69qwrrrrrqqqt9;4@60545<661&<5<<<",
"68rrw<8q5:9q90;4<-;3436qqqqqq5<<5-=4%*9qqq614<90<35<",
"5q58rtw69r5q0;344<3<-44rqrrrr4;<4<454<$rqqq06q<5990<",
"6w66w865r509;5;643<34*<9qrrr6<$44--53-3$rr6r0qi606t>",
"4w6668669r9-5#33;<3<33<9963rr3633*=564*4*tq0rtwq6w5<",
"6<9<668899-6;33==*<;3<*4q;-r4356<<45654;4*q66rqqwr51",
"5q6064609*><<4333$335<<-#rq-4<454<46595155$rqr8rrqw-",
"5016665q$4;>36<5$#$3335<5549<6943re4646q6q5$ri6rrqt<",
"6555q-0*$<-<636>==--;33>333936rq4tr6q4556e3#=turtr54",
"0-6<<6;3<+<4:4533*1<3<<*-96354467<r6865465#65#utrr55",
"05096;>36<O<=-<;*;<=5<-49>>yq546648666r54*5>-4#rrqq4",
"r666353545<$-+;<53;<4<;r99rrr4555648466<:655<34*trr5",
"80r;3>-33<3<#<$-3<1<4@<rrtrrq4;5565q764>3*><4>*3=w86",
"r9<3<64<5<69<+-:<;;5=<;rtqtr943>533<3>>3+3>4564O4@t7",
"6<4-353<343q3,+--@335*qrrtttrr35>4=,<=<$43343444#4#4",
"5<44366694346<,+-;49545660699r6556=-#>>>3#46>5*544:X",
"33345rqr55564:-$3,100725776,6007770:5>44>+3#@3#<44<>",
"3><>49qrrr6-<<$*<&&112221%=477w7207:$%>>>=@=*:=:41*o",
"r;3<5<;r6<<56<>5,,,1,&1<*63=2757721:q%3353>:+45:>>+6",
"9<;44=444654553612125:,*4663:11,1:2:q>:3344333#35::r",
"3<333<54665453>6611227#66e9e4-21252:54->464545433=>6",
"r4<@<3>45435;4-622222-;e66eer*%1077:653=6353:345@>>r",
"rq33<3>6<495<3r81115=;*eryri6;*;,4&:6644<>3444;<>>er",
"rryrr3<<<39trr56,&,-6666iyyye6r4::::888qrq3>3$3qrrrt",
"rrrrq6#643rttrr64<;6eeryeeeeiie3;;w<rrwrer>55=r8rrrt",
"iiir<$q44r3ertr5:*e656ere3eeire363::rrrte4t65r36rrtt",
"tiii;#9436;ettyr03939eyr63eete66qq>%8rti55r55e36wqrr",
"ttt0tr@45;rrttt8q6;666ereeeeiy3e5>7%8rrttt365:rrrrrt",
"qrr8r;;3>35rrrrrq07%64eeyyree6ee>4w:8ttqree<>6486ttt",
"r3<4<<-3<<=>45r87251@%>66rry63;;007:r5>455<57>4<<<3w",
"64;+45<;5333*54w,:,7%$;e36568*-40w7>843>53366<4<.*4r",
"<4;5<5;<355553482,::4<=e6e6r4<770wt76464466366664>>6",
"r4>5>@3<>43<36<67w,::70:46e5>777wwt7y6665545<5644>3t",
"6#3>5<3@=<<45>3e77722,:%=w8:707www7:r>3<6346e446>>+6",
"#=353@@$=$->>>*;w4w4777:7:<7777ww77:;=>4<88e8q86>4#o",
"3><4=*4=#4#65>4#<:53:,:1::>><177777%7<56e885<864644>",
"@4445;3<44*4><><6<rt6rwrrrrrttqetr>5#47886666e8644>#",
"r#<=5434463;->:46;<334rtrqrit8636;O34#5465663786<436",
"rq=6;554<33;>:>4>534344itrrir>4:5;<466O5-6e768q<34rr",
"rwr*534354;><5885355441rir8r8<@435664@5+4>3654334trr",
"trqq=63343>:4e73635435>e6e5rq544>;4363.5O6646544rrt6",
"t8tr8;3<4>#48r6qr5355>38t43r3@<4#3*o*5<=5#66633rrr87",
"e4qq88$3>=46<66665<553>5366**><433o365e464+4>666rqr6",
"88tq58r*=<755548688<553<66554<3<->;+53654<4 6tt6rtq4",
"8t88rqqr=46586>43e54>554<366>53>4*o@55434>34tr66qqr3",
"8rqqq8rtr=33>7354<$<3<>;#r6>3>344>O3e355<4>u6trwrqr6",
"6>848qrert=4;35===--54;;r*>r5*5<*>*=*55>6>r67q66qr65",
"5676q8qqr78-4*35<<;<<5;r6;49644553>>54=5>e886r6rqu7>",
">r888rtr6rrw*4;<<>;4<*:err:e84#53><45-34t6t57trreqr>",
"<8:7etrr8wrr8#:<<:>>;;38rrwwr3>>>;:>3:3t66rrrrut65u:",
">858848r7>5r88%=>-$3>35rr8rww53<3#*<>4trrrrrtrqqrtt<",
"5<<<%$47<4<5888o-=w868rewrrr855566#:#r88r6e8655:::><"
};
