/* XPM */
static char *back_2[] = {
/* columns rows colors chars-per-pixel */
"65 65 243 2 ",
"   c #095D43",
".  c #076549",
"X  c #036C4E",
"o  c #13684A",
"O  c #0C704F",
"+  c #046E51",
"@  c #047454",
"#  c #0B7253",
"$  c #067958",
"%  c #0B7C59",
"&  c #147552",
"*  c #187955",
"=  c #137D5A",
"-  c #1B7E5A",
";  c #2F7758",
":  c #247B58",
">  c #347F62",
",  c #06845E",
"<  c #0C835D",
"1  c #13835C",
"2  c #1A835C",
"3  c #13895E",
"4  c #1C8A5D",
"5  c #23835D",
"6  c #2D855D",
"7  c #248B5E",
"8  c #2B8C5E",
"9  c #36835D",
"0  c #328B5E",
"q  c #38925F",
"w  c #0C8B62",
"e  c #1C8763",
"r  c #148C62",
"t  c #1B8C62",
"y  c #099064",
"u  c #159264",
"i  c #1C9365",
"p  c #1B9867",
"a  c #248C62",
"s  c #2A8962",
"d  c #328462",
"f  c #338C63",
"g  c #3C8D64",
"h  c #239364",
"j  c #2C9263",
"k  c #299668",
"l  c #229A69",
"z  c #2D9C6A",
"x  c #339364",
"c  c #3C9464",
"v  c #329A65",
"b  c #3C9A65",
"n  c #399469",
"m  c #359C6A",
"M  c #3D9C6B",
"N  c #27A06D",
"B  c #35A169",
"V  c #3CA26B",
"C  c #45845D",
"Z  c #468C63",
"A  c #5C8F69",
"S  c #429364",
"D  c #4B9464",
"F  c #449B66",
"G  c #4B9A65",
"H  c #42956A",
"J  c #4C956A",
"K  c #449C6A",
"L  c #4C9D6B",
"P  c #539B66",
"I  c #53956C",
"U  c #549C6B",
"Y  c #5B9868",
"T  c #5B9D6B",
"R  c #4B9972",
"E  c #579C71",
"W  c #639D6C",
"Q  c #6A9A6B",
"!  c #6B9D6D",
"~  c #739E6C",
"^  c #649D73",
"/  c #6A9B76",
"(  c #749C73",
")  c #7B9B72",
"_  c #789A76",
"`  c #42A26B",
"'  c #4CA268",
"]  c #4DA36C",
"[  c #54A36B",
"{  c #59A669",
"}  c #5CA46C",
"|  c #4FA370",
" . c #55A371",
".. c #5BA372",
"X. c #63A36C",
"o. c #6CA46D",
"O. c #68AA6D",
"+. c #73A46D",
"@. c #77A76D",
"#. c #7CAA6D",
"$. c #65A371",
"%. c #65A677",
"&. c #6CA373",
"*. c #6CAA71",
"=. c #73A373",
"-. c #7BA473",
";. c #75AB72",
":. c #7BAB73",
">. c #76A47A",
",. c #879D78",
"<. c #909A7B",
"1. c #87A96D",
"2. c #83AC6E",
"3. c #92A96C",
"4. c #84A473",
"5. c #8DA574",
"6. c #83AB74",
"7. c #8CAB73",
"8. c #83A579",
"9. c #8BA57B",
"0. c #85AA7A",
"q. c #8BAA7B",
"w. c #93AB74",
"e. c #9CAD74",
"r. c #96A678",
"t. c #94AB7B",
"y. c #9BAC7A",
"u. c #89B076",
"i. c #94B174",
"p. c #9BB175",
"a. c #95B17A",
"s. c #9CB27C",
"d. c #A3AE75",
"f. c #ABAF74",
"g. c #A3AE7B",
"h. c #ABAD7C",
"j. c #B3AF7B",
"k. c #A4B275",
"l. c #AAB176",
"z. c #A4B179",
"x. c #ACB27B",
"c. c #B7B477",
"v. c #B4B27C",
"b. c #BCB47C",
"n. c #C4B57D",
"m. c #CAB57E",
"M. c #D1B77E",
"N. c #7DA787",
"B. c #7EB191",
"V. c #899F80",
"C. c #8AA885",
"Z. c #81AC8C",
"A. c #95AB85",
"S. c #98A884",
"D. c #94AC8C",
"F. c #87B18D",
"G. c #97B28A",
"H. c #9AAD91",
"J. c #87B693",
"K. c #8CB592",
"L. c #93BA94",
"P. c #99B895",
"I. c #A8AD85",
"U. c #B3AE84",
"Y. c #ACB283",
"T. c #A8B488",
"R. c #B4B383",
"E. c #BCB483",
"W. c #B5B588",
"Q. c #BCB58A",
"!. c #BBBA8C",
"~. c #A7BA95",
"^. c #B8BA95",
"/. c #C1AF83",
"(. c #C3B582",
"). c #CBB583",
"_. c #C3B883",
"`. c #CDB984",
"'. c #C4B58B",
"]. c #CCB68B",
"[. c #C3B98C",
"{. c #CCB98A",
"}. c #D3B683",
"|. c #D9B787",
" X c #D4B985",
".X c #DAB986",
"XX c #D3B68A",
"oX c #DBB68B",
"OX c #D4BA8B",
"+X c #DCBA8C",
"@X c #C5BB94",
"#X c #CCBB94",
"$X c #D3BC93",
"%X c #DCBC93",
"&X c #DABD98",
"*X c #E3B78D",
"=X c #E3BB8C",
"-X c #E8BB8D",
";X c #E4BC92",
":X c #EBBD94",
">X c #E3BE99",
",X c #ECBE99",
"<X c #F1BE96",
"1X c #F2BF99",
"2X c #9FC098",
"3X c #AAC19A",
"4X c #B6C199",
"5X c #BDC49C",
"6X c #BAC7A4",
"7X c #C9C49C",
"8X c #DCC096",
"9X c #D9C199",
"0X c #E5C094",
"qX c #ECC096",
"wX c #E4C29B",
"eX c #EDC29B",
"rX c #E1C89F",
"tX c #F1C097",
"yX c #F3C29C",
"uX c #F9C39E",
"iX c #CAC9A4",
"pX c #D8CAA6",
"aX c #E4C6A2",
"sX c #EEC5A2",
"dX c #EDC8A4",
"fX c #E6CBA9",
"gX c #F5C5A2",
"hX c #FAC6A4",
"jX c #F5C9A5",
"kX c #FAC8A6",
"lX c #FAC7A8",
"zX c #F5CBAA",
"xX c #FCCCAB",
"cX c #F4D0AA",
"vX c #FCD0AF",
"bX c #F6CFB1",
"nX c #FDCFB0",
"mX c #E1D5B7",
"MX c #F6D3B3",
"NX c #FED2B3",
"BX c #FED6B9",
"VX c #FED9BC",
"CX c #FEDEC2",
/* pixels */
"yXhXhX;XuXxXBXBXVXnXnXnXlX,XxX1Xh.Y., , 2 ( d.w.oX:Xh.3.+.&.X.J S 2 < 2 = 5 & . # b '.~.s.X.X.X.&X-.f.v.rX} { z v 7 q { j 1 & $ @ ",
"yXyXhX*XqXyXNXNXNXxXzXxXlXnX,XOXR.&.[ l v / R.m.XX+.-.o.5.Y j.XX9.-.U H : 8 # - 5 f %X9XzX7.v.o.L 7.M.m.eX2.h , u h h ' h < $ 3 @ ",
",XyXkXtX0XtXqXkXzXzXkXnXxXVXxXyX<Xv.c.L 6._ l.@.1.m.oX;X,Xd.} ! -.E.y.) 4.x D - & o _ aXyXv.d.w.{ x.c.b.cX`.' q b b l h O.4 X @ @ ",
"yXuXkXkXhXhXuXtXhXuXkX<XNXjXgX:X+X1X).g.L D b.o.m.1X-X}.=XzX'.x.n.y.4.T U % 9 0 - : & fXxX:X+X.Xn.m.=X=XeXn.+.{ b j j { ' P @ X $ ",
":XgXeXOXtXkX:XuXvXyX-XvXVXNXvXOXyXtXvX`.7.S.|.aXf.:XzXhX:XBXlX%X:Xh.7.j F -.h.U.f 1X&X7XnXhXkX1X:X.X:X].xXz.f.B h F q V X.q X . O ",
"8XzXvXkXhXyXtXNXxXxXzXuXNXNXkX0XtXqXvXgXx.~..X}.oX:XNXVXVXxXgXzX+Xp.P L b w.! ,.'.nXgXpXNXxXxXkX1X:X(.%X0X6.] y i h l m u 8 X X 3 ",
"eXyXxXNX9X8XvXNXBXvXNXNXBXvXuXeXuX=XjX8XqX7XgX`.*XyXNXVXBXNX*X;Xd.oX3.).=.+XxXeX9 &XzXfXBXnXxXxX:X:X.X;XxX2.[ [ ] [ u l i V 4 X < ",
"eXNXBXxXzXuXgXBXxXvXBXBXxXvX8X.XtXuXxXvXyXT.=X`.<XuXxXNXBXnXlX'.;Xj.} L y.>XBX8.. * &XpXBXNXnXgX*X.X;XgXjXv.V { :.;.l ` O.@.@.1 a ",
"eXjXuXkXvXzXuXvXxXhXfXfXjXgXhXqX1X%XkXlX_.T.sXj.:X1XVXnXNXnX*X<X=.a < < = W zX2 >   r.fXBXNXxX;XtX XqXeXtX' B ` V  .L z L w.z.s q ",
"[.=XtXhX8XvXNXxXuXBXzXxXnXxX9XsXwXkXeX!.Y.q.;X-.:X1XgXnXBXBXxXlXK < 1 3 K ! R.Y C . U.fXNXxXhXyXkX8X=X XtXn.@.B z l V v x.w.j 8 $ ",
" XtX-XuXyXzXkXvXvXxXBXsX$XzXgX8X^.%XrXY.X.>.wXn.hX*XlXnXnXnXlXlX' t $ F e.=.R.r.Z C NXpXnXNXNXhXxXoXzXm. XtXc.{ B < G 4 _.c.x z.5 ",
"4.eXvXhXtXhXxXxXNXvXvXkXjXkXvX[.;XeX{.[.X.:.gX=.+XyXnXBXnXBXnXxXeXX.b 7.y.r.n Y.1.: (.7XkXxXNXkXgX).uX8Xn.tX=Xc.' P c 7 o. Xy.j q ",
"-.yXxXvXvXfXMXvXxXhXxXhXxXrXxXkXxXvXvXkXk.N.y.@.y.kXnXNXNXnXnXxXxX].XX;XS.q.c R.-.Y 2 iXkXkXnXnXNXkX).m. XtX-Xb.b a D @.L 6.E.k.m ",
"I.zXvXNXzXzXBXBXNXxX@XeXjXxXgXxXkXxXBXvX).8.W o.).=XkX7.'.xXnXgXzX,X;X,Xg.g.v OX{ T 0 iXkXnXBXxXxXlXxX;XM.qXb.l.[ x 0 2 o.P OX+Xb ",
"q.qXuXkXhXvXzXNXNXeXxXxXkXkXkXkXnXzXuXyX;.D.7 c h. X:Xr.g.oXsXhX=.].;X%XoX1X6.$.O.j b pXxXxXNXNXzXxX:XjXk.n.X.@.` i u h $.X.n.OXL ",
"s.vXxXkXvXcXvXNXvXhX%XtXyXkXxXxXeXgXqXuXg.~.4 a v.z.k.$Xh.x.E.].% R.5.OXOXq.$.V -.@.G iXNXBXNXzX1XyXOXOXn.2.@.{ k i M t :.X..XF ] ",
"xXzXqXgXxXBXhXvXzXzXNXxXBXBXNXxXxXyX:X1Xq.V.e < f.3.n.v.y.k.o.wXH W T h.} } [ 6.F ! Z 5XBXnXnXyX;X_.;X:.p.} r h V < x , v X.p.W [ ",
"zXuXtXxXzXvXxXBXxXbXxXkXzX].xXyXyXxXzX+X$ S.8 8 Y c.c.7.8 8 s % % : f 4.L K M ' x.&.6.iXnXyXxX:X:X).0X).@.} w.v v r :.v [ O.%XU &.",
"w.kXs.xXxXaXxX%XxX$XkXkXkXxXeX].hXxX-X: 2 <.- Z |.=Xe.: + # X . % S L } b F j 3 | 8.I.3XhXhXxXm.yXOXeXz.*.:.#.@.6.#.#.7.k.0X;Xo.U ",
"l.dXNX9XI.q.I.!.9.A.A.%.n y.[.T.; S.,.0.J 9.@ 7 *Xj.j.o.2 G 0 j P b 4 t j b 4 1 j A ,.6XxXxXkX*XtX;X.X{.qX}.n.+.o.b.k.e.v.E.W 8 U.",
"Q.Q.$.T U { +.K ) 5.f e H J _ a % M U 4.x I.- f D c S 8 x e 7 + < j 3 h 8 j n % = ,.d 5XNXBXxXBXNXwXyXxXgX{.w.m.gXXXoXE.:.! n #.5.",
"4X3XJ.L.B.J.C.N.C.) ) ,.,.A.H.~._ >.8.D.C.^.S.H.I.<.<.S.S.H.S.9.<.<.<.S.D.H.,.) A _ %.6X~.^.5X~.6X7X@X5X7XF.L.C.C.C.~.~.T.7XI.C.S.",
"@ X d e = % r < W #.e.XXeXNXBXpXgXzX;X_.r.D.d I O Y G 4 ,.Q y.o.g 2 I.yXqX:XqXtX-X;X].J.L O.).<XyX;XE.d.0.w.:.=.-.w.= # * I g I.&X",
"6 U f 2 % e x (.U y.j.yXgXzX}.=.L ^ 9.-.r.P.g 0 % -.m.;.7.&XxX;X5.Y.kXkXuXqXuX=XqX=Xh.K.} v.hXxXkXgXyX%X:X-XgXn.I.  .     : O A /.",
"8.XXXXr j $ 2 Q o.v.).}.5.n.x.e.).#.w.n j P.i q.' X.c.,X+XhXkXNXjXkXxXxX*X=Xb.|.n.n.u.F.9XqXkXxXxXlXkXqXuXuXtXw.8.: + % e = E jXhX",
"3.zXnXaXc r 1 b.v.w.n.n..X8XxXj.o.-.w.L +.6XT j c.2._.kXxXyXlXeX:X|.kXuX=X.X=X=Xb..Xb.L.c. XxXvXxXxXxXxXkXkXxX<X<XI k d d J U.,.Q.",
"D 8.XXh.+.b 1 z.-.F o.~ 3.%XgXE d.7.[ y.8 G.' #.+Xc.x.-X;X1X1XyX:X<X<XuXtXuXtXM.M.b.b.L.;X.XqXNXxXnXvXxXxXxXhXuX<X:XW.1X,X4.s _ I.",
"q Y =Xx h j 4 9Xp.(.z.,X}.NXgX).n.f.d.7.G 2Xv G +.S _.1XuXxXxXxX<XE.-XkXvXqXqXm.qX=Xi.P.xXuXxXBXxXNXnXNXxXlXhXuX1XoX;XlX,X/ : 9.r.",
"0 4..Xv._.}. XyX=Xx.uXeX+XgXnXxX_.b.-.+.q F.' V { 8 +.OXyXyXeXuXuXuXqXhXtXhXuXtX;X`._.3XNXhXxXBXNXBXNXNXxXxXkXxXxX X=X_.:XgX>X&XS.",
"S t.OX+X+Xn.b.eX:XtX=X:XM.:Xj.c.XXj.x.Y D 3Xv q T 7.G qXg.v.n.yXxXqXxXkXvXhXhXhXqXwX(.~.nXxXBXCXBXNXNXNXNXnXhXkXxXkXxX).h.;XgXW.&X",
"c g.xXsXgX=X.XvX;X:XtXyXtX<XuX:Xb.7.d.P S 3Xw 7 8 c { W w.XXeXxXuXzXeXxXkXkXuX0X0Xz._.^.nXxXBXVXNXnXNXNXNXxXxX1XkXhX1X).XXsXI.'.$X",
"I P aXwXuXeXjXuX<X-XyX.X.XhXjXuXyX*X1.3.F B.u 5 1 S * F c  XkXhXkXkXNXeXxXhXuX+XhXz.n.~.zXuXNXVXNXxXxXNXNXNXnXlXkX1X;X,X]._ J #X^.",
"P w.zXwX|.|..X:XyX:X=XtX-XhXgX:X;XoXY w.0 L.8 #.; 1 7 +.OXOXxXkXxXNXNXxXxX1XlXkXtX+X.XK.xXgXzXnXBXxXxXxXvXxXNXhXhXkXlX1X8.5 d aX#X",
"Z -.gXY qX`.b.qX|.}.`..X-X<X<X}..X.X5.G j F.z w.X.g 2 8 q._.xXkXxXNXxXkX,XhXNXxXxXdX%XP.zXxXBXnXxXNXNXNXNXBXhXhXhXhXlXuXq.a e #Xr.",
"r.o.:X'..X.X`.b.7.7.|.o. X-X:Xn.g.6.W ~ q L.l { V o.h o.b.;XgXhXNXhXXX_.yXlXxXkXxXuXOXK.1XkXxXxXxXNXxXNXNXxXxXuXxXkX:XE I.f H / s ",
"nXI.gXY.;._..Xm.m.k.|.n.w. X;Xd.( +.7 w.2 ~.m.x.e.n.7.U f. X*X:XqXnXtX).g.hX1XgXhXuXyXK.kXkXxXxX$XtXkXNXNXxXxXhXxXz.].n $.T E U $.",
"xX_ >X:X:Xl.k..Xb.l.=Xm.n.n.v.n 4 o.8 j a 5XwX0Xx. Xm..Xx.xXhXkXkXxXxX-X:XxX:X<XOX:X`.K.:X,XhXhXkX{.<XkXxXxXtXxXhX%Xv.q._ &.0.8.S.",
"!.E gXv.+.b { d.d.j.`.n.d.p.b.c.+.e.x.6 < pXeXfXkXz.d.}.`.tXuX,XkXzX:X_..Xb.l.%Xi.0X_.J.[ xXBXhX,XtX;X%X1XlX{.uX XE.e.- * M t H Z ",
"{.< U e.m.e._.k.l.z.l.x.8 6 7 +.#.3.0 0 s iX_.:XhX;X`.<Xm.<XtX=XhXyXm.c.w.q.c.eX0XOX{.Z.l 9.lXS.E.S.9.}.hXyXkXc.7.y.0.> + J 2 : Z ",
"D 1 e.#.L I P F o.4.D P 2 # # c 6 o.7.P ! ~.U.E.hXgXj.=X=X;XyXjXkX1X:XE.}.7.E.!.x.qX%XF.U 9.E I R d >.sX>.A I.wX0.7.=.E   S.A 8.g ",
"o C * $ 8 9 + O.- a : *   X Y.c # P _.!.kX~.oX&X[.nXsX:X;XxXqXuXhXxXxXhX8XzXxXxXOXm.{.J.8.9.'.9.H.f @ d Z - X n 2 # : f > V.I I.6 ",
"o 6 v.F S 2 d ~ 2 * $ = ! g -.g.} c.#Xr.2 Z.$XsX;XbXbXnXoXxXuX8XnXxXNX(.+XyXqXtX0X`.:.B.>.].A.XX%...n m r e & # @ $ k V.= '.I./.( ",
"y.~ 7.2 * & . + + X s # $ @ # = $X#Xq.e f Z.).wXgXxXzXNX:XyX>XqX+X+X+Xy.n.qXqX8XOXOX;.B.!.:XU.M s o.E n S.j n - x ^ M A ^ H Q.%XI.",
"P.fX9XmXBXpXiXiXP.^.^.@X^.6X3X4X^.P.C.C.K.~.I.'.D.L.~.2X~.A.~.A.G.T.T.@X4X2XL.G.L.C.N.iXS.~.T.^.pX5XT.~.T.^.I.D.~.~.3XK.K.^.D.V.G.",
"%X/.;Xh.;XsXgXjX$XXXCXbXnXxXkX:XkX,X;Xb.-XA.qXOX-.; u.z.v.jXOX.X XuXhXyXqXuX.XuXuXOX8XP.xXvXnXnXnXnXBXlXuX,X,XQ.n.7.7.3 U ] < Y -.",
">X).XX( -.1XlXNXlXxXnXlXxXBXnXkXgXlX,X=X|.C.qX;X!.*.6.;.i.n.-Xn..XjXuXuXtX0XOX0X.X;XyX^.yXqXgXhXgXnXNXNXxXnXnXxX*XE.F M ..1 i = * ",
"$XyX}.R.g.sXlXlXxXgXxXnXnXnXxXzX<XNXyXgXq...v.).:.] O.i.y.=.qX.X+X`.qXuX:Xl.+Xm. Xl.uXG.gXE.*XkX:XlXnXBXBXNXnXxXyX+Xu.z.M u f >.: ",
"+X,X]./.i j.%XNXnXNXnXBXhXE.uX;X8X+XQ.cX]./ } *.z `  .;.] v.7Xb.b.n.c.qXl..XqXm.=Xm.qXG.).:X;X:X%XyXnXnXnXNXxXhX:Xm.6. XS.B ..6.&.",
",X1X'.XXE.oXnXNXBXCXnXnXnX&XxXnXyX0XzXzXtXD.u ] B ] V 7.O.k.z.x.2.i.M.c.M.M.=X.X8XuXgXK.XXoX<XxXlXgXnXnXxXxX=X(.m.6.;.#.`.4Xp.p.q.",
"dXoX*XoXXXXXgXBXBXBXCXBXBX>.VXCXvXeXl.zX{.=.3 p | *.] 6.V u._.c.k.M.n.k.xX8Xn.M.kXgX+XF./ h.$XxXnXBXBXBXxXuXgXOX0XxX8XhXx._.0X2.[ ",
"kX}.).(.5.oXlXnXnXNXBXBXnXnXNXxXNXuX.Xp.2.C.K k.M.p.m.l.{ O.` 1.8XqXkXtXtXtXtXuXeXvXqXF.o.oXgXxXnXxXnXBXuXxXxXhXxXvXxXxXuX.XxX8Xt.",
",X+.( h.I.a '.NXnXNXBXnXnXkXbXBXvXuX!.R.v >.j.c.k.;._.tXeXvX XvXvXvXNXvXBXxXxXvXNXvX&XF.^ |.xXzXkXlXnXnXkXxXxXqX:XuX`.+XM.0X=Xb.b.",
"sXj.U.c h.U.>.xXlXlXlXlXnX,XlXnXuXxX+X[.q.0.{ m.c.n.+XkXNXBXhXvXvXvXvXvXvXaXvXvXNXxXxXC.n lXxX,X1XlXxXnXxXkXkXqXn.yXk.8X`.0Xi.x.O.",
"%X|.E.~ t =XoX,XhXhXnXlX1X(.nXnXnXzXkX+XE.T.' O.n.i.i.0XBXuXqX$XcXcXuX0XqXhXxXxXNXuXqX>.J jXxX%X:XxXtXtX*Xb.+Xm.c.i.V ' n.k.eXeX=.",
"uX%X(.o.H E.:XlXhXlXnXsX,XXX%XeXgXNX_.OXh G.:XV N 2.:.$XuX`.t.#X8X8XqXtXxXuXhXvXvXNX!.N.4.:Xx.*.|.=Xc.n.i.l..Xi.2.{ N y { k.xXuX0X",
"gX].U.! # j XXhXyXhX%X;X,X,X).w.,XoXx.p.3 q.lX'.[ 6.y.z.0Xw.I.Y..XjXtXdXvXxXuXxXhXkXyXN.L s.!.B 7.d.v._.#.2.i.2.V p.V ` { qXkXjXsX",
"gX).( n 5 + s E hX$X..oX1XQ.4.z.a.4X#.[ ` A.hX:X$XxX0.R.S.U.$XXXx.vXjXW.nXlXkXkX/ xXeXN.l M O.M ;.O.l.M.;.2.p.R.cXb.v.i.8XtXkXxXgX",
":XR n u % = T.| I.-X,X;XhXQ.$.z.z.2.V B u N.gX1X>XxX:X( ;XlXlXlXA.vX,X$XnXhX=XOX[.jXjXN.u l N ;.| k.i.i.b.6..Xh.qXeX+XqX0XyXuXxX;X",
"'.-.a t = & ] u.h R s R r.y ;.] z.:.4 l p / 5.oX;XzXoX^ t.,XlXlXNXNXzXbX,X;XqX:XjXnXgXN.$ m y ` p.O.=X8X0X`.b.[.0XqXtXuXhXxXvXvXW.",
"].t.s % @   U W.E m w M z z ` *.;.l i B { C >.;X*X;X9.s x &.XXlXqXxXeX!.lXxXW.T.eX].gXK.w p | ;.a.a.uXzXjX`.,XxXcX0X:XuXxXxXvXxX>.",
"_ [ w e < h 6.x.i.;.V T...*.Y.v.a.%.;.Q.f g S.W.].1Xg H z 8.oX1X,XlXnX$X$XdXBXVX8.jXNXB.u :.:.0X8X0XkXvXsXU.%X).b.).$XNXvXvXBXxXY.",
"D 2 t t r z *.G.2.OXE.i.| ;.4X*.q.8XfXpXx Q / ].;.$X>.< H ../.$X/.lXBXlXBXNXlX'.bXBXNXJ.` ..gX0X0X0X0XvXhXgX'.XXE.jXjXxXNXvXnXzX,.",
"J _ >X} O.q.E.VXqX{.R.gXa.$X0XxXgX7XfX8X'.C.^ ! q.E $X$.H &.<.].*X,X].:XlX,X$XU.gXNXfXL.&.*.qXyXuXeXxXs.>XQ.;XzXQ.:XzXeXY.gX:XyX).",
"W.W.NXaXR.).s.dXBX9XxXgX'._.vXkXzXbXxX&X$.>.R.W.A.x I S T g.].lX*X,X&X].'.].sXlX&XBXE.H.i ;._.qXjXjXzX0XyX[.zXQ.aXzXjX9XcXtX{.:XM.",
"U.#XpXjXqXwXNXMXMXNXMXVXVXBXVXVXcXVX4X{ { G.:.R.G.y.q.q.W ^.(.].wXq.3 , x v y.T R.:.7.r.-.gX>X].gXnX:XzX%X%XU.W.9.-.OXC.7.7.} {.R."
};
