/* XPM */
static char *back_3[] = {
/* columns rows colors chars-per-pixel */
"65 65 87 1 ",
"  c #B6B3B0",
". c #B9B6B3",
"X c #BFBBB7",
"o c #C2BEBB",
"O c #C4C1BE",
"+ c #D0CABE",
"@ c #C6C4C1",
"# c #CAC6C3",
"$ c #CCC9C6",
"% c #CECCC9",
"& c #D2CDC4",
"* c #D1CECB",
"= c #D5D1C4",
"- c #D8D2C6",
"; c #D3D1CE",
": c #DAD5CD",
"> c #DDD8CE",
", c #D6D4D1",
"< c #D9D6D4",
"1 c #DCDAD5",
"2 c #DDDCDA",
"3 c #E1DDD5",
"4 c #E1DFDA",
"5 c #E4E0D7",
"6 c #E5E2DD",
"7 c #E9E5DD",
"8 c #EDE8DF",
"9 c #E6E4E1",
"0 c #E9E5E1",
"q c #E8E7E3",
"w c #EAE6E3",
"e c #EAE7E3",
"r c #E9E6E5",
"t c #EAE7E5",
"y c #E9E8E3",
"u c #EAE9E3",
"i c #EBEAE3",
"p c #ECE9E3",
"a c #ECEAE3",
"s c #EAE9E4",
"d c #E9E8E7",
"f c #E9E9E7",
"g c #ECE8E4",
"h c #ECEAE6",
"j c #EDEAE7",
"k c #EDECE7",
"l c #EEECE6",
"z c #EBEAE8",
"x c #ECEBEA",
"c c #EEECEA",
"v c #EFEDEA",
"b c #EEEEEC",
"n c #F1ECE5",
"m c #F0EDE9",
"M c #F0EEE9",
"N c #F0EEEA",
"B c #F0EFEA",
"V c #F2EFEB",
"C c #F1EFEC",
"Z c #F0EFED",
"A c #F1EFED",
"S c #F2F0EB",
"D c #F1F1EC",
"F c #F3F1ED",
"G c #F3F1EE",
"H c #F2F1EF",
"J c #F3F1EF",
"K c #F2F2EF",
"L c #F4F3EE",
"P c #F5F3EF",
"I c #F8F4EE",
"U c #EEEEF1",
"Y c #EFF0F2",
"T c #F4F2F0",
"R c #F4F3F0",
"E c #F5F3F1",
"W c #F5F4F0",
"Q c #F5F4F2",
"! c #F7F5F2",
"~ c #F6F6F2",
"^ c #F6F6F3",
"/ c #F7F5F4",
"( c #F7F7F4",
") c #F8F7F3",
"_ c #F8F7F5",
"` c #F9F7F5",
"' c #FBFBFA",
/* pixels */
"EvuhNHHHPnnHPHPPTRB<S92_WTZHHHWHP)PWHHHPW/9zs@HpNhthu3NNu6-2ee367",
"NvWWEN61Nv66upHSlv2s619Z2b99EWHSHHSHHv2stA<274;HHPlHAp66uSPHueuh3",
"NHvHHWPPNHP5PNHPf16qu9q26zss9ZHHPWWW9s6hs99e6:6$HWNPHN6nH1Hu7Hvu3",
"hEHevPEHNNHHePSH,qffs6ss<st65HHE)P)W491l4setz9s6$E`PHPPNW7llNhvN3",
"N`NhHHtlPN)NhHp2f26f6qs9t91<9AEHWWHHs2*9s29:e9947$H)NPPPNW`vHhHS3",
"lNHHlNNvNNHHPu<u<;q6976266s49Eb9R9WWe9s69,&<vv6$46*`))HHWWHAhNPu4",
"h5Ez5NNTHvHNh<u99;9;%$2696t4$EP9b2`H4tsz9669e994994;E)sv_HTHEHP77",
"N6PvsN7hvNHP<9ss6642z*z6<z699%2,T2e<vsez69s9zses6ss4*P`AHPWHEWWl4",
"kHv9HHB9HNu*7%949<2s2*z669t66q,UHT1s4e6u63s9HbbzA6bz6$EW`PP'PPWv3",
"nHvuvlTsNS$h,%6tx76s2%%,969sb69qs9s9vEve9EEvts7evEzAA7%T`HPH_vWH7",
"vuuuuHsWl*;32$6bzqs6<<%2:22zt6q9qxv7hHWssWHAHHu6Husvb6%;PP`P'WW9e",
"H68u63=T1z2*2293s299z,9962s63<,T(H6vt9sTzsuEvvWbseAs6$vt;H``HWHue",
"H6lh96B26<u2%3z2292292s6;l69s,s6T6HqBY6ts6hvHvsRebA91z623*`)EHH9e",
"Hhuvvv25*99e:#4s,#12,2399,95*WTqv9W^s6tsHAeAszsTPv6<u<,$13*P/WHN7",
"PvSHs6u6es6AN3;12X66s66$66<z9WWbRR^^99bueAutv6stv31uvee99e3;))PEe",
"SHvH29632zz59N3%12$696v9s6$26W/WRRWWsx99tHvsvlvv44e2e49t3944,HEHs",
"PHv69,x6zssz6vT1@27733et,219<(_(W)WN99999sl6uhh74z*469ssz99*9#/We",
"Pl9q22uu919zvbbb4o>33421u962TR(W)W_/He4p92698632t;%4s<3e2s1**7$Eh",
"B6u99669966z66ssp3#34,</69;v((R(_WW`PE292W,,66*h64963<u926674z4&3",
"ls666s9bbsbqsz6se6>#;2<9962569qshzhzAs669s11<+63469#<tN692*At343@",
"s95s6bbsWWxbv9s9643&e74nSSSnulHZnn3nInInvHFN;v36e69@96,,4r$t9he44",
"s9975szTWW/Uz97466,27>:38788885q*67nnII8hnn733*6664*o@<*,*$447e;1",
"z9h6v69es/h6961At23155>777>3887,E;nnnnI7nI8812,9st6964*;rzt3z74*#",
"T9692<s46Wv36zzTu4H77>77857=86<//s=7nn5n87-31ve5ht9s364;6t9&2h44N",
"T9666u64s69zzA7s962e8n6p88n-6<qxsxq,su6655885P96163N1zu66*96e<64E",
"vs96t99sq69Yst6tt46tp78888n7*xzxYYY9<6778888>Nu999e9s<s92g99eet9E",
"T9qq*s766sv69t94<9,un885npn,q(ZZYTW'1;77SnIn3l9u2*te6t6206t9@1u4E",
"Tqzq26941zs6A9z9e2Nz7888p7<,YxZZxx/Yv%=7>7I5-S9u9ee9h6t96ze64u92P",
"T/Hq92266z66Hvvs9EEzp878712q<b(Y/W'YuA2<687+:lTH26<2zs9s6s%44,vEW",
"//W_E/W%tt9zuW/WWh)t7:>6<NYxYx/Y''YYzY'9,6673HHWHHPEsz6e4$/EEE/`_",
"T(((/TH;;sz9b/W(WP)s8572zzT/'/Uf'YY_'x/b<*nI3HWWWWH`96992<EEEWWW_",
"W('(/2%,z6zW6zZ(`WPs77<HzbUqYYUUUYY(WxZ9961n>HW_WWs9zEbtE<6tE_W_W",
"'_'(/bzvz9q'EAW`))Pu7<''qxUUY'YUUz''YxxUvWE<:HW)E`WW/TzsTTUT/TYRE",
"W__'_<1,q9sx99bWW'`vHu1WUbTb(YUxxUY/xfYxzP9h>SP)``szzWbvH2qq/RS^E",
"W//(R'/,,292zW```/`hPHS1bqY('Yxx(YU/'bYYu5F8:SE)T_/'sshu26TWW_((E",
"H_'WWWb*s9691/W`HW)NIInn*bqzYxTb'/zUxY'b18nn>NP`WWEEvv63v6WTW___`",
"WW29942e3s6ez;th9Y`Nnn872*1s9zY/RY'xxR22IInn:ET9qsstz6sz6h2t969E/",
"W1961uts66v6s992NtANn7n8n+,,TvYvUqYxs%2sNF8I1A6694tth6AH3469$6s2E",
"s9t9#u9669996e9*4e9P7>558>7,q/sAxUH'257p8IIF7H9sq9st6ezNh7s9@2stA",
"zt4el999;646v2eheszt85833n81<EbvxxWs<8SunFIPeEszs9sAsh6evAst76t9W",
"E494z641664u<Neg999zNI7335n871nAxY9288InIIIF7`e9zz9Av6s69AN9e<e4_",
"E4tz21996%2eee2ts2UvAne83788->1''Y2sInnIIFIn3`Htv9ts36TTeeN61z29W",
"*$ttA4449$Oe666h63<4I8In8F853>84K78nnNHInFIn321hsA7sbvvANzzeNe9@@",
"q<34p9$@$%,%;,e6462<`8IIn8nn585>68SvnnHIIIIn:N,66e9bTzz9HEzN649,3",
"644t44@e42,96*zgt47$33374133>7133337376unpe7&zgtszHNzTzsbztsth6e1",
"@7t4eg,946t92<t6e644NhsWWNN)HH(/HPP)_WET))thh*6AzNzzzzvhvEzse6e3@",
"P&4t4t792696666;741ez44btt4vP``EH_)__h9zgE$o7g#gTANsstss6ssztv2eN",
"PE$94<*g2ee2s,;43<thtbe96t9sH/WWP''Pvseee69hghh#e41*Htzstbbt43uHN",
"EEA,e6e9vt4t62q24eebe6sz9h6t9'/WEE'W291z2te9ezztOe66zzzhNzz64t``A",
"WWEE;eue6etq4z366YPu6ezbh9996E'_vTEW61#ps9A7ez,1e#eAttAzezh2t`/PN",
"`EEWH;97stt4h329AH66h49v64tt2EbbSsET4z496@0htezo*eXsAstAeh4tWAW`N",
"`HHTPN,4122q>,4AAv6EEs4tz9766WWsb9TE#te694e$o<z#,th#6t9z61eEETW/z",
"PsTEHWH;6<t1<6NNzE4Evzt6tt4NztHeb44,he<u$46.t%AshhAt$3z41gEEEEAHu",
"HesEHvNP,53,7zA7zAHNvz96tst66AtHHH<4666esesotz21Nezs0o7:NEHEEEWHh",
"Hu`WEvN)/*<6zzths76TEvzv77sAe6hAhvs9964612*1*setssz1t4 UWWANH_'Hp",
"H`EEHHvHEE*4zshHz446zzztt4tsst46sst4v99162$o1uett9z;21g`//NNsNEAe",
"HWWvAvhHHPT%2294v99tt96:6<t469,EAE4s2s99e34O2t12su9%29`WbEhNNEENe",
"HeWvHP7PPETT;5669944e,6:27609$,,v9e29s66146$z4zzssv96WvsEEPHW)WAh",
"N4Hs5THNTWWTE<5u9,7,*%<54zet$YH$z2PE#svz447,$$924962THsvvHNHA`Thh",
"l6vHHHHAWWWAbH<61*tttt><66z43WA2A2EH49sst26s9v612e6HHsNvhHPHE``e3",
"9WENWz`E'NlHHEH,719664z194;23WW/NHHW92;te2s6999<4sW(THsb__HWHH`P3",
"5WH1sH'H)E`EHWPH*1z4e43t1t6e4ATAHvWE2s492996s4t<e/WzE`WT_WW_HhSH1",
"6v66NNE`EETvzEHWN&3341446zs9sEEE)NEEsuzz69e6676qW'EbWWEWW'H_WulP-",
"uNuvhh66AN736sPPHN*:1<1t9962E)EWH)EAs<tt94,<71s/WH/TWEHPENvHvPPH4",
"v6356<:26l7e66hNSvh#:6,`HPHSHPHPN`PHhnhnhv,<:@HHNNSNvlNz6h611>334"
};
