/* XPM */
static char *result[] = {
/* columns rows colors chars-per-pixel */
"52 52 256 2 ",
"   c #3D3224",
".  c #3E352A",
"X  c #4D390F",
"o  c #4F3A14",
"O  c #4E3C17",
"+  c #46371E",
"@  c #49371B",
"#  c #4D3A19",
"$  c #4E3B18",
"%  c #503B12",
"&  c #523F11",
"*  c #513C15",
"=  c #513C16",
"-  c #523D16",
";  c #523D17",
":  c #523F17",
">  c #533F19",
",  c #513D1A",
"<  c #523F1C",
"1  c #513E1E",
"2  c #413727",
"3  c #443624",
"4  c #4E3B21",
"5  c #4D3D22",
"6  c #4F3C23",
"7  c #483A27",
"8  c #433C28",
"9  c #423C2B",
"0  c #463B2F",
"q  c #483B2B",
"w  c #564017",
"e  c #564216",
"r  c #574316",
"t  c #53411A",
"y  c #57401B",
"u  c #56411B",
"i  c #57421A",
"p  c #55421D",
"a  c #57421C",
"s  c #54411E",
"d  c #5A451D",
"f  c #59441E",
"g  c #59441F",
"h  c #5C471F",
"j  c #5D491D",
"k  c #5F4A1D",
"l  c #514121",
"z  c #554220",
"x  c #574720",
"c  c #514027",
"v  c #514427",
"b  c #564624",
"n  c #5A4520",
"m  c #594720",
"M  c #5B4621",
"N  c #584522",
"B  c #594622",
"V  c #5C4721",
"C  c #5B4724",
"Z  c #5A4725",
"A  c #594626",
"S  c #5B4921",
"D  c #5B4922",
"F  c #5E4A20",
"G  c #5D4B23",
"H  c #5C4924",
"J  c #5E4A24",
"K  c #5D4A26",
"L  c #5D4B27",
"P  c #5F4D27",
"I  c #594628",
"U  c #5D4A28",
"Y  c #5E4C29",
"T  c #5F4C29",
"R  c #5E4B2C",
"E  c #484030",
"W  c #494433",
"Q  c #4D4235",
"!  c #514331",
"~  c #534731",
"^  c #574932",
"/  c #554C35",
"(  c #594931",
")  c #5B4D33",
"_  c #584E32",
"`  c #5F4C30",
"'  c #584A35",
"]  c #5B543C",
"[  c #654C23",
"{  c #624E24",
"}  c #614E27",
"|  c #614D28",
" . c #634C2A",
".. c #644F2A",
"X. c #634D2C",
"o. c #614E2D",
"O. c #614E2F",
"+. c #605028",
"@. c #62502B",
"#. c #675429",
"$. c #63502C",
"%. c #63512C",
"&. c #65512C",
"*. c #65522F",
"=. c #66532E",
"-. c #66552D",
";. c #64552F",
":. c #66542F",
">. c #68532C",
",. c #68532F",
"<. c #68562E",
"1. c #68562F",
"2. c #745E28",
"3. c #635233",
"4. c #655130",
"5. c #655331",
"6. c #645533",
"7. c #665432",
"8. c #655234",
"9. c #685633",
"0. c #685537",
"q. c #6A5736",
"w. c #615738",
"e. c #625739",
"r. c #63563A",
"t. c #655538",
"y. c #6A5738",
"u. c #675939",
"i. c #62583D",
"p. c #6B5838",
"a. c #6C5939",
"s. c #6F5D3B",
"d. c #6E5F3B",
"f. c #6C5B3F",
"g. c #6A5E3E",
"h. c #6E5D3F",
"j. c #705D38",
"k. c #705C3B",
"l. c #705C3C",
"z. c #756233",
"x. c #746337",
"c. c #7C6530",
"v. c #7C6837",
"b. c #73613B",
"n. c #746039",
"m. c #756439",
"M. c #73633D",
"N. c #75633C",
"B. c #7E633C",
"V. c #78673E",
"C. c #7C6A3B",
"Z. c #534A40",
"A. c #625240",
"S. c #635546",
"D. c #635A40",
"F. c #635A43",
"G. c #605845",
"H. c #665E45",
"J. c #695B40",
"K. c #6A5B43",
"L. c #685E46",
"P. c #6C5C44",
"I. c #6D5D46",
"U. c #635848",
"Y. c #685B49",
"T. c #685E4D",
"R. c #6C6240",
"E. c #686044",
"W. c #6F644A",
"Q. c #746343",
"!. c #776443",
"~. c #776543",
"^. c #766A42",
"/. c #796846",
"(. c #7B6946",
"). c #7D6947",
"_. c #726749",
"`. c #71664B",
"'. c #72634D",
"]. c #76674D",
"[. c #73684F",
"{. c #786D4B",
"}. c #7A6D4B",
"|. c #7D6D4C",
" X c #7E7045",
".X c #716550",
"XX c #786F57",
"oX c #7A6C5B",
"OX c #7E7057",
"+X c #7D7356",
"@X c #776C60",
"#X c #816D38",
"$X c #826F4C",
"%X c #827447",
"&X c #867748",
"*X c #80704D",
"=X c #8C774B",
"-X c #887A4B",
";X c #8D7D4D",
":X c #877451",
">X c #847055",
",X c #817756",
"<X c #847556",
"1X c #867852",
"2X c #8A7A52",
"3X c #897E55",
"4X c #847459",
"5X c #917E5A",
"6X c #827663",
"7X c #8F7F64",
"8X c #92804B",
"9X c #98844F",
"0X c #8B8057",
"qX c #918252",
"wX c #958153",
"eX c #908254",
"rX c #978957",
"tX c #998950",
"yX c #9A8B55",
"uX c #96885A",
"iX c #9D895B",
"pX c #9A8B5F",
"aX c #9B8F5E",
"sX c #9F8F5C",
"dX c #A38D52",
"fX c #A08F5D",
"gX c #AA975F",
"hX c #B0995F",
"jX c #968360",
"kX c #998765",
"lX c #998C62",
"zX c #96846A",
"xX c #94866A",
"cX c #9E8E6E",
"vX c #A08F62",
"bX c #A29164",
"nX c #A99963",
"mX c #A89A63",
"MX c #AFA46F",
"NX c #B1A065",
"BX c #BAA767",
"VX c #B2A36A",
"CX c #B2A16D",
"ZX c #BBA96B",
"AX c #BFAB6C",
"SX c #BCAC6D",
"DX c #AFA470",
"FX c #C4AE71",
"GX c #C0B174",
"HX c #CAB572",
"JX c #D1BE77",
"KX c #D3C37C",
"LX c #DFCB7F",
"PX c #D8C989",
"IX c #E1D488",
"UX c None",
/* pixels */
"UXUXUXUXUXUXUXUXUXUXUXUXUXUXUXUXUXUXUXUXUXUXUXUXUXUXUXUXUXUXUXUXUXUXUXUXUX6XUXOXK.UXUXUXUXUXUXUXUXUXUXUX",
"UXUXUXUXUXUXUXUXUXUXUXUXUXUXUXUXUXUXUXUXUXUXUXUXUXUXUXUXUXUXUXUXUXUXUXoXl.4.A.!.o.>X4XUXUXUXUXUXUXUXUXUX",
"UXUXUXUXUXUXUXUXUXUXUXUXUXUXUXUXUXUXUXUXUXUXUXUXUXUXUXUXUXUXUXUXUXUX(.|.5.A 5X..X.:Xh.Z.UXUXUXUXUXUXUXUX",
"UXUXUXUXUXUXUXUXUXUXUXUXUXUXUXUXUXUXUXUXUXUXUXUXUXUXUXUXUXUXUXUXUXU.k.s.L s | J ,.:.$X).UXUXUXUXUXUXUXUX",
"UXUXUXUXUXUXUXUXUXUXUXUXUXUXUXUXUXUXUXUXUXUXUXUXUXUXUXUXUXUXUXUXxXUX7.T a.: V g f P U y.P.UXUXUXUXUXUXUX",
"UXUXUXUXUXUXUXUXUXUXUXUXUXUXUXUXUXUXUXUXUXUXUXUXUXUXUXUXUXUXUX'.q.<XI.N zX> ; >.u t %.S.@XUXUXUXUXUXUXUX",
"UXUXUXUXUXUXUXUXUXUXUXUXUXUXUXUXUXUXUXUXUXUXUXUXUXUXUXUXUXUXUX.X3.=./.B } = d i - f $.~.jXUXUXUXUXUXUXUX",
"UXUXUXUXUXUXUXUXUXUXUXUXUXUXUXUXUXUXUXUXUXUXUXUXUXUXUXUXUXUXcXUXf.Y <.h F % r e * a H @.Q.UXUXUXUXUXUXUX",
"UXUXUXUXUXUXUXUXUXUXUXUXUXUXUXUXUXUXUXUXUXUXUXUXUXUXUXUXUXUX7X*X*XO.G { 8Xj & X o $ I 8.0 UXUXUXUXUXUXUX",
"UXUXUXUXUXUXUXUXUXUXUXUXUXUXUXUXUXUXUXUXUXUXUXUXUXUXUXUXUXUXUXY.n.-.S #.dXw y < z , Z p.Q UXUXUXUXUXUXUX",
"UXUXUXUXUXUXUXUXUXUXUXUXUXUXUXUXUXUXUXUXUXUXUXUXUXUXUXUXUXUXUXUXUXd.z.v.c.B.M m D n *.0.UXUXUXUXUXUXUXUX",
"UXUXUXUXUXUXUXUXUXUXUXUXUXUXUXUXUXUXUXUXUXUXUXUXUXUXUXUXUXUXXXJ.r.V.VX#X[ p O # 1 R ' UXUXUXUXUXUXUXUXUX",
"UXUXUXUXUXUXUXUXUXUXUXUXUXUXUXUXUXUXUXUXUXUXUXUXUXUXUXUXUXUXUXUXi.x.2.k  .1.+.C &.`   UXUXUXUXUXUXUXUXUX",
"UXUXUXUXUXUXUXUXUXUXUXUXUXUXUXUXUXUXUXUXUXUXUXUXUXUXUXUXUXUXUXUXUXm.C.x K 4 l 9.b.N.^ UXUXUXUXUXUXUXUXUX",
"UXUXUXUXUXUXUXUXUXUXUXUXUXUXUXUXUXUXUXUXUXUXUXUXUXUXUXUXUXUXUXUXW.9Xj.;.b + @ 6 UXUXUXUXUXUXUXUXUXUXUXUX",
"UXUXUXUXUXUXUXUXUXUXUXUXUXUXUXUXUXUXUXUXUXUXUXUXUXUXUXUXUXUXUXUX=XwXUXUX5 3 UXc ( UXUXUXUXUXUXUXUXUXUXUX",
"UXUXUXUXUXUXUXUXUXUXUXUXUXUXUXUXUXUXUXUXUXUXUXUXUXUXUXUXUXUXUX2XBXUXUXUXv 7 UXUXUXUXUXUXUXUXUXUXUXUXUXUX",
"UXUXUXUXUXUXUXUXUXUXUXUXUXUXUXUXUXUXUXUXUXUXUXUXUXUXUXUXUXUXF.HXM.UXUXUXUXUXUXUXUXUXUXUXUXUXUXUXUXUXUXUX",
"UXUXUXUXUXUXUXUXUXUXUXUXUXUXUXUXUXUXUXUXUXUXUXUXUXUXUXUXUXUXZXmXUXUXUXUXUXUXUXUXUXUXUXUXUXUXUXUXUXUXUXUX",
"UXUXUXUXUXUXUXUXUXUXUXUXUXUXUXUXUXUXUXUXUXUXUXUXUXUXUXUXUXeXKXUXUXUXUXUXUXUXUXUXUXUXUXUXUXUXUXUXUXUXUXUX",
"UXUXUXUXUXUXUXUXUXUXUXUXUXUXUXUXUXUXUXUXUXUXUXUXUXUXUXUXH.IXg.UXUXUXUXUXUXUXUXUXUXUXUXUXUXUXUXUXUXUXUXUX",
"UXUXUXUXUXUXUXUXUXUXUXUXUXUXUXUXUXUXUXUXUXUXUXUXUXUXUX,XMXbXUXUXUXUXUXUXUXUXUXUXUXUXUXUXUXUXUXUXUXUXUXUX",
"UXUXUXUXUXUXUXUXUXUXUXUXUXUXUXUXUXUXUXUXUXUXUXUXUXUXUX0Xt.UXUXUXUXUXUXUXUXUXUXUXUXUXUXUXUXUXUXUXUXUXUXUX",
"UXUXUXUXUXUXUXUXUXUXUXUXUXUXUXUXUXUXUXUXUXUXUXUXUXUXE.PXu.9 UXUXUXUXUXUXUXUXUXUXUXUXUXUXUXUXUXUXUXUXUXUX",
"UXUXUXUXUXUXUXUXUXUXUXUXUXUXUXUXUXUXUXUXUXUXUXUXUXUXGXuXUXUXUXUXUXUXUXUXUXUXUXUXUXUXUXUXUXUXUXUXUXUXUXUX",
"UXUXUXUXUXUXUXUXUXUXUXUXUXUXUXUXUXUXUXUXUXUXUXUXUXfXJXUXUXUXUXUXUXUXUXUXUXUXUXUXUXUXUXUXUXUXUXUXUXUXUXUX",
"UXUXUXUXUXUXUXUXUXUXUXUXUXUXUXUXUXUXUXUXUXUXUXUX`.LXe.UXUXUXUXUXUXUXUXUXUXUXUXUXUXUXUXUXUXUXUXUXUXUXUXUX",
"UXUXUXUXUXUXUXUXUXUXUXUXUXUXUXUXUXUXUXUXUXUXUXUXNXrXUXUXUXUXUXUXUXUXUXUXUXUXUXUXUXUXUXUXUXUXUXUXUXUXUXUX",
"UXUXUXUXUXUXUXUXUXUXUXUXUXUXUXUXUXUXUXUXUXUXUX;XSXUXUXUXUXUXUXUXUXUXUXUXUXUXUXUXUXUXUXUXUXUXUXUXUXUXUXUX",
"UXUXUXUXUXUXUXUXUXUXUXUXUXUXUXUXUXUXUXUXUXUX{.FXw.UXUXUXUXUXUXUXUXUXUXUXUXUXUXUXUXUXUXUXUXUXUXUXUXUXUXUX",
"UXUXUXUXUXUXUXUXUXUXUXUXUXUXUXUXUXUXUXUXUXW gX-XUXUXUXUXUXUXUXUXUXUXUXUXUXUXUXUXUXUXUXUXUXUXUXUXUXUXUXUX",
"UXUXUXUXUXUXUXUXUXUXUXUXUXUXUXUXUXUXUXUXUX%XsXUXUXUXUXUXUXUXUXUXUXUXUXUXUXUXUXUXUXUXUXUXUXUXUXUXUXUXUXUX",
"UXUXUXUXUXUXUXUXUXUXUXUXUXUXUXUXUXUXUXUX}.CX~ UXUXUXUXUXUXUXUXUXUXUXUXUXUXUXUXUXUXUXUXUXUXUXUXUXUXUXUXUX",
"UXUXUXUXUXUXUXUXUXUXUXUXUXUXUXUXUXUXUX] pX^.UXUXUXUXUXUXUXUXUXUXUXUXUXUXUXUXUXUXUXUXUXUXUXUXUXUXUXUXUXUX",
"UXUXUXUXUXUXUXUXUXUXUXUXUXUXUXUXUXUXUXDX].UXUXUXUXUXUXUXUXUXUXUXUXUXUXUXUXUXUXUXUXUXUXUXUXUXUXUXUXUXUXUX",
"UXUXUXUXUXUXUXUXUXUXUXUXUXUXUXUXUXUX&XtXE UXUXUXUXUXUXUXUXUXUXUXUXUXUXUXUXUXUXUXUXUXUXUXUXUXUXUXUXUXUXUX",
"UXUXUXUXUXUXUXUXUXUXUXUXUXUXUXUXUX[.R.yXUXUXUXUXUXUXUXUXUXUXUXUXUXUXUXUXUXUXUXUXUXUXUXUXUXUXUXUXUXUXUXUX",
"UXUXUXUXUXUXUXUXUXUXUXUXUXUXUXUX3XUXUX8 UXUXUXUXUXUXUXUXUXUXUXUXUXUXUXUXUXUXUXUXUXUXUXUXUXUXUXUXUXUXUXUX",
"UXUXUXUXUXUXUXUXUXUXUXUXUXUXUXlXUXUXaXUXUXUXUXUXUXUXUXUXUXUXUXUXUXUXUXUXUXUXUXUXUXUXUXUXUXUXUXUXUXUXUXUX",
"UXUXUXUXUXUXUXUXUXUXUXUXUXUXT.UXUXUX/ UXUXUXUXUXUXUXUXUXUXUXUXUXUXUXUXUXUXUXUXUXUXUXUXUXUXUXUXUXUXUXUXUX",
"UXUXUXUXUXUXUXUXUXUXUXUXUXUX XvXUX1XUXUXUXUXUXUXUXUXUXUXUXUXUXUXUXUXUXUXUXUXUXUXUXUXUXUXUXUXUXUXUXUXUXUX",
"UXUXUXUXUXUXUXUXUXUXUXUXUXL.D.AXqXq UXUXUXUXUXUXUXUXUXUXUXUXUXUXUXUXUXUXUXUXUXUXUXUXUXUXUXUXUXUXUXUXUXUX",
"UXUXUXUXUXUXUXUXUXUXUXUX_.UXUXUX) UXUXUXUXUXUXUXUXUXUXUXUXUXUXUXUXUXUXUXUXUXUXUXUXUXUXUXUXUXUXUXUXUXUXUX",
"UXUXUXUXUXUXUXUXUXUXUX+XUXUXUXUXUXUXUXUXUXUXUXUXUXUXUXUXUXUXUXUXUXUXUXUXUXUXUXUXUXUXUXUXUXUXUXUXUXUXUXUX",
"UXUXUXUXUXUXUXUXUXUXG.UXUXUXUX! UXUXUXUXUXUXUXUXUXUXUXUXUXUXUXUXUXUXUXUXUXUXUXUXUXUXUXUXUXUXUXUXUXUXUXUX",
"UXUXUXUXUXUXUXUXUXUX6._ UXUXUXUXUXUXUXUXUXUXUXUXUXUXUXUXUXUXUXUXUXUXUXUXUXUXUXUXUXUXUXUXUXUXUXUXUXUXUXUX",
"UXUXUXUXUXUXUXUXUXUXhXkXiX2 UXUXUXUXUXUXUXUXUXUXUXUXUXUXUXUXUXUXUXUXUXUXUXUXUXUXUXUXUXUXUXUXUXUXUXUXUXUX",
"UXUXUXUXUXUXUXUXUXUXUXUXnX. UXUXUXUXUXUXUXUXUXUXUXUXUXUXUXUXUXUXUXUXUXUXUXUXUXUXUXUXUXUXUXUXUXUXUXUXUXUX",
"UXUXUXUXUXUXUXUXUXUXUXUXUXUXUXUXUXUXUXUXUXUXUXUXUXUXUXUXUXUXUXUXUXUXUXUXUXUXUXUXUXUXUXUXUXUXUXUXUXUXUXUX",
"UXUXUXUXUXUXUXUXUXUXUXUXUXUXUXUXUXUXUXUXUXUXUXUXUXUXUXUXUXUXUXUXUXUXUXUXUXUXUXUXUXUXUXUXUXUXUXUXUXUXUXUX",
"UXUXUXUXUXUXUXUXUXUXUXUXUXUXUXUXUXUXUXUXUXUXUXUXUXUXUXUXUXUXUXUXUXUXUXUXUXUXUXUXUXUXUXUXUXUXUXUXUXUXUXUX",
"UXUXUXUXUXUXUXUXUXUXUXUXUXUXUXUXUXUXUXUXUXUXUXUXUXUXUXUXUXUXUXUXUXUXUXUXUXUXUXUXUXUXUXUXUXUXUXUXUXUXUXUX"
};
