/* XPM */
static char *result[] = {
/* columns rows colors chars-per-pixel */
"65 65 245 2 ",
"   c #271817",
".  c #371D19",
"X  c #2A221D",
"o  c #3B221C",
"O  c #33231C",
"+  c #362A26",
"@  c #393430",
"#  c #1E1915",
"$  c #45261E",
"%  c #4B2C24",
"&  c #422826",
"*  c #532D25",
"=  c #5A2E29",
"-  c #4B352B",
";  c #49372C",
":  c #55332A",
">  c #5B342B",
",  c #58362A",
"<  c #473932",
"1  c #523D32",
"2  c #5C3D34",
"3  c #66392E",
"4  c #643C33",
"5  c #693A35",
"6  c #743E3D",
"7  c #411D1C",
"8  c #534134",
"9  c #5B4539",
"0  c #5C493D",
"q  c #584539",
"w  c #6A4335",
"e  c #62443B",
"r  c #6C443A",
"t  c #644B3D",
"y  c #6D4A3C",
"u  c #644435",
"i  c #71443A",
"p  c #724B3D",
"a  c #78483B",
"s  c #73503F",
"d  c #5A4D45",
"f  c #5A5248",
"g  c #464947",
"h  c #634D42",
"j  c #6B4C42",
"k  c #6A4743",
"l  c #744C42",
"z  c #794943",
"x  c #645245",
"c  c #6C5245",
"v  c #6B5649",
"b  c #6D5A4C",
"n  c #65544B",
"m  c #755344",
"M  c #7A5343",
"N  c #72564A",
"B  c #7C554B",
"V  c #735B4D",
"C  c #7C5A4B",
"Z  c #775947",
"A  c #655752",
"S  c #745D53",
"D  c #7C5D51",
"F  c #725E59",
"G  c #756254",
"H  c #7C6454",
"J  c #7D665A",
"K  c #7C6A5B",
"L  c #75675C",
"P  c #7D634F",
"I  c #786D66",
"U  c #7E7166",
"Y  c #6D6966",
"T  c #8D4A3B",
"R  c #864C41",
"E  c #845445",
"W  c #84554A",
"Q  c #835C4B",
"!  c #8B5C4C",
"~  c #8A5745",
"^  c #855E53",
"/  c #8D5D53",
"(  c #8B5855",
")  c #945E54",
"_  c #915947",
"`  c #A65847",
"'  c #85624E",
"]  c #8B634E",
"[  c #846453",
"{  c #8C6353",
"}  c #8C6955",
"|  c #8C6559",
" . c #846B5B",
".. c #8B6B5B",
"X. c #836557",
"o. c #956555",
"O. c #936C55",
"+. c #9B6C57",
"@. c #94655A",
"#. c #936D5B",
"$. c #9A6C5B",
"%. c #9B6559",
"&. c #8B715D",
"*. c #94715C",
"=. c #9C735D",
"-. c #9C775D",
";. c #93604F",
":. c #AA6D5C",
">. c #A26D59",
",. c #A4725C",
"<. c #AA735E",
"1. c #A9795D",
"2. c #B6725D",
"3. c #AE6853",
"4. c #8A6E62",
"5. c #9B6D62",
"6. c #8C7463",
"7. c #8E7669",
"8. c #8E7A69",
"9. c #847568",
"0. c #937564",
"q. c #9B7463",
"w. c #947966",
"e. c #9B7A65",
"r. c #947C6B",
"t. c #9A7C6A",
"y. c #99756A",
"u. c #887D74",
"i. c #987B73",
"p. c #A76865",
"a. c #A47463",
"s. c #AA7562",
"d. c #A37B64",
"f. c #AB7B64",
"g. c #AA766A",
"h. c #A47D6A",
"j. c #AC7C6B",
"k. c #A3736E",
"l. c #B47C64",
"z. c #B47D6B",
"x. c #B97866",
"c. c #A87B71",
"v. c #B77775",
"b. c #B26C72",
"n. c #C57972",
"m. c #9D816E",
"M. c #97806A",
"N. c #9C8472",
"B. c #988577",
"V. c #8D827E",
"C. c #A4826C",
"Z. c #AC826C",
"A. c #B2836C",
"S. c #BC846C",
"D. c #B88368",
"F. c #A28573",
"G. c #AC8473",
"H. c #A48976",
"J. c #AC8A74",
"K. c #AC8D7A",
"L. c #A58B7B",
"P. c #B38473",
"I. c #BC8573",
"U. c #B48A75",
"Y. c #BC8A74",
"T. c #BC8779",
"R. c #B38B79",
"E. c #BC8C7A",
"W. c #B7877A",
"Q. c #AB917C",
"!. c #BC937D",
"~. c #B6917A",
"^. c #C1866E",
"/. c #C0886E",
"(. c #CF826D",
"). c #C38573",
"_. c #C38B73",
"`. c #C98D75",
"'. c #C38D7A",
"]. c #C98D7C",
"[. c #C4937C",
"{. c #CB937C",
"}. c #C8957B",
"|. c #D1967D",
" X c #D68B76",
".X c #A67D81",
"XX c #938783",
"oX c #A48C83",
"OX c #BA9684",
"+X c #B59C9F",
"@X c #C88C86",
"#X c #C49383",
"$X c #CB9382",
"%X c #CB9C83",
"&X c #CD9C8A",
"*X c #C59A86",
"=X c #D39683",
"-X c #D39C84",
";X c #D59C8A",
":X c #D99E8B",
">X c #DA9B87",
",X c #CB9D90",
"<X c #D49A95",
"1X c #D18C8C",
"2X c #E19E8B",
"3X c #CEA186",
"4X c #CDA489",
"5X c #C7A18A",
"6X c #D4A187",
"7X c #D5A38B",
"8X c #DAA58C",
"9X c #D5A98D",
"0X c #DCA98E",
"qX c #D9A186",
"wX c #CAA695",
"eX c #D5A394",
"rX c #DBA492",
"tX c #D5AA93",
"yX c #DCAB93",
"uX c #DDAE99",
"iX c #D7A69A",
"pX c #DEB19A",
"aX c #E3A78E",
"sX c #E1A693",
"dX c #E1AD93",
"fX c #E2AD9B",
"gX c #E3A898",
"hX c #E2B196",
"jX c #E3B39C",
"kX c #E8B69D",
"lX c #DFB4A1",
"zX c #DCA9A4",
"xX c #E2AEA1",
"cX c #E3B4A2",
"vX c #E5BAA5",
"bX c #E6BCAB",
"nX c #E9B8A7",
"mX c #E8BEB2",
"MX c #D69BA0",
"NX c #EAC1AB",
"BX c #ECC4BC",
"VX c #EBC5B9",
"CX c #EECAC4",
"ZX c #F3CEC9",
"AX c None",
/* pixels */
"AXAXAXAXAXAXB.w.N.M.H.7.7.Q.N.F.M.H.H.Q.Q.J.J.F.H 6.F.H N  .6.4.H H v v 8 x b x n x d q 1 8 0 8 v x V G  .m.r.L.B.f AXAXAXAXAXAXAX",
"AXAXAXAXAXAXM.H t.H.8.8.F.Q.m.m.H.Q.Q.J.Q.J.&.&.8.t.w.X.6.w.6.X.X.V n 0 0 b v x G b H x 0 8 8 8 x b v b J w.8.B.B.V.AXAXAXAXAXAXAX",
"AXAXAXAXAXAX9.K r.6.K r.H.Q.N.N.H.M.C.Q.M.M.} &.t.H.w.w.w.&. .H G  .x b G S S S  .K L V 0 < q 0 V V V H ..&.6.6.B.I g AXAXAXAXAXAX",
"AXAXAXAXAXY J 9.r.6.8.M.H.N.w.M.M.m.Q.M.C.' } C.C.H.C.*.t.&.C &.&.v J  .V v x G 6.H D S v q t b K H } &.6.6. .U B.M.u.AXAXAXAXAXAX",
"AXAXAXAXAX9.K 8.N.K M.M.H.r. .F.M.M.J.C.O.M.M.J.~.J.-.m.e.}  .r. .J 6.H v N H  . ... . .t N j b H K q.0.0.q.' H M.9.V.AXAXAXAXAXAX",
"AXAXAXAXAXI 9.9.8.8.9.M.r.&.&.&.M.C.&.*.O.C.D.~.!.R.Z.Z.q.t.0.X.H ..4.C H  .&.} [ &...' m C Z N H  .e.e.*.e.O.c G U L AXAXAXAXAXAX",
"AXAXAXAXg K 8.M.8.r.8.8.M.H &.w.&.} } -.Z.D.D.!.~.A.[.C.e.*.P ' [ } ' [ #.} } ' Q Q } ' ! Q C Z P 0.d.h.#.Z.f.m v b L AXAXAXAXAXAX",
"AXAXAXAXg K K 8.8.&.6. . .&. . .' Z ] O.Z.D.D.}.I.~.!.d.*.] } Q ' E ! } #.O.O.Q ] ] ] o.} ! ! { } ,.j.j.j.P.A.Q t P K AXAXAXAXAXAX",
"AXAXAXAXAXU b K &.G K K K &.K P t y ] Z.D.D.Y.D.Y.%XE.=.#.+.O.E ] ! +.,.+.+.o.o.o.+.+.,.+.%.+.+.,.z.U.I.A.Y.I.$.v V x AXAXAXAXAXAX",
"AXAXAXAXAXK 0 K G L V G K c Z 9 u ~ Z./.}.|./.|.{.7X}.Y.>.,.,.,.+.>.s.f.1.,.>.>.,.>.>.,.,.,.,.1.z.A.E.E.!.[._.d.[ 0 f AXAXAXAXAXAX",
"AXAXAXAXAXK f K v L t G Z 9 1 8 s -.}.9X|.|.|.|.9XyXtXY.I.1.s.z.l.z.A.z.1.l.<.<.1.<.1.D.f.l.l.A.T._.{.#X}.}.[.C.&.0 q AXAXAXAXAXAX",
"AXAXAXAXAXL b b v v 0 v q % 8 u O.~.|.0XhXhXhXhXhXjXpX8X%XY.'.'.$X{._.^.D.D.2.D.D.2.D.D.l.S.I._.}.[.'.}.{.'._.Z.e.8 q AXAXAXAXAXAX",
"AXAXAXAXAXI G 0 0 8 8 8 8 8 8 s H.}.9X9XhXhXdXhXhXkXkXpXtX7X-X;X;X;X{.{.^./.S.S.D.^.^.S.S./._.`.'.'.'._._.{.T.F.N.8 8 AXAXAXAXAXAX",
"AXAXAXAXAX9.G 0 0 8 8 ; 8 8 t P ~.}.hXhXhXdXhXhXpXjXpXpXtX9X6X8XrX7X%X}.`._././.^.^.S./././.`.`._._._._.Y.S.I.Z.N.f X AXAXAXAXAXAX",
"AXAXAXAXAXU b 0 8 8 ; ; 8 ; 0 } J.9X0X0X0X0XhXhXyXyXpX0X6X9X6X8X7XrX8X=X{.`.`.`.`.`.S././.`././.'._.S._._.I.T.F.F.f AXAXAXAXAXAXAX",
"AXAXAXAXAXK b x 0 0 ; 8 + 8 t } J.|.9X0XdX0X0XhXhX0XdXyXuXuX0X6X7X6X;X=X{.|.{.}.`./././.^.^.S.S.S.S.S.Y._._.T.F..Xd AXAXAXAXAXAXAX",
"AXAXAXAXAXoXb n x x 8 ; ; 1 t } J.3X9X8X8XaX0XaXaXaXdXyXdX9X8X8X6XqXqX|.|.|.{.{.'._.`.{.{.{.}.`.`./.^.D.I.I.I.J.N.@ AXAXAXAXAXAXAX",
"AXAXAXAXNX5X&.x t 0 q ; ; q m *.U.%X9X6X8XqX6X8X8XhX0X0X8X8X6X9X8X8X8X8X8X8X-X-X>X8X8X;X-X|.|.`./._.`.`.`.S.A.J.B.AXAXAXAXAXAXAXAX",
"AXAXAXAX` W. .c 9 9 q 1 8 t P C.}.3X6X8X8X8X8XqX8XaX0X0XhXdXyXjXhXfXaXyX>XqX8X-X6X-X6X8XqX8XrX:X=X%X|.}._.D.D.G.u.AXAXAXAXAXAXAXAX",
"AXAXAXAX3.j.[ m y 1 9 9 t Z &.J.5X6X9X6X0X0XaX9X0XhXyXyXhXkXjXkXvXvXvXvXhX0X8X8XrXyXyXyXuXpXfX9X9X7X7X}.E.I.D.G.Y AXAXAXAXAXAXAXAX",
"AXAXAXAX2.{.A.! y 8 c c G  .t.!.5XyXtXyX0XdXhX8XyXhXhXjXjXcXvXbXvXvXcXcXfXcXjXcXfXyXyXyXuXuXyXiX6XeX&X}.[.{.E.L.f AXAXAXAXAXAXAXAX",
"AXAXAXAX(.aXeXz.;.p Z H J ..F.!.9XtXpXyX0X0X0X0XhXvXkXvXjXcXcXcXcXlXuXeX;X;X;X7X-X-X;XrXrX-X=X$X{.3X$X[.#X%X'.oXAXAXAXAXAXAXAXAXAX",
"AXAXAXAX XnXNXtXf.o...X.7...m.!.tXpXyXyX9X8X0XyXjXjXvXcXtXtXyXiXeXeX$X#X'._.).'.'.{.$X$X'.).A.I.I.I.T.!.[.E.P.oXAXAXAXAXAXAXAXAXAX",
"AXAXAXAX2XkX>X:.:.d.q.0.7.7.e.!.tXpXpXyX9X9XpXhXjXjXlXtX!.!.5X!.U.Z.j.j.s.s.j.a.j.T.I.A.z.s.,.a.j.G.U.C.J.G.G.oXAXAXAXAXAXAXAXAXAX",
"AXAXAXAXgXaX(.3.T s.j.N.r.7.t.j.yXyXuXuXpXpXlXuXtX!.U.a.o.s Q s p 4 r M Q ! { %.a.g.+.,.@.o.{ / Q  .X.0.0.F.N.XXAXAXAXAXAXAXAXAXAX",
"AXAXAXAXgX>X^.3.` s.j.R.F.y.0.P.yXpXuXtXlXlXuX5XC.+.$.@./ Q M i 4 > : 4 r a M Q o.o.Q M M i 4 : % % : 2 2 0 S XXAXAXAXAXAXAXAXAXAX",
"AXAXAXAXaX|.^.2.2.^.}.OXL.r.w.A.9XhXuXtXpX9X*X1.+.j.#.p - + O O . o $ $ * u a ~ W a i 3 > $ . . o O . o % h A V.AXAXAXAXAXAXAXAXAX",
"AXAXAXAXaX2Xn.2.`.$XjX4Xm.J q.A.0XhXhXyX9X6X[.A.Z.p > e S @ X < q . o % : l / $.a.+.E * . . + ; O # + q % e F .XAXAXAXAXAXAXAXAXAX",
"AXAXAXAXsXsXn.2.=X8XjXtXR.H } '.aXaXdXhXkXdX|./.s.a.T.P.5.^ c 9 4 % : y p ] +.[.&XT.+.% $ & 1 n < < ; j [ ^ e.u.AXAXAXAXAXAXAXAXAX",
"AXAXAXAXAXrX Xn.>XsX-X7X4Xq.e.}.hXhXhXkXkXvXNXbXkX|.g.a.a.a.o.R r : > M ] d.A.;XjX8Xz.: * : > u y m Q | 5.h.G.U AXAXAXAXAXAXAXAXAX",
"AXAXAXAXAX1XgX>X>XkXgX8XtX#X[.3XaXdXaXhXjXhXsX|.-X=XI._ i 3 3 3 = > M ,.A.S.).aXnXjX'.l : > > 3 w a z M $.W.oXA AXAXAXAXAXAXAXAXAX",
"AXAXAXAXAXgXeXNXkXaXkX>XeX}.*X3X9X0XhXkXkX8X>XsXrX:X8X`.:.~ T ! +.f.f.T.'.`.|.yXmXcX;Xo.W p y w 4 3 3 @.T.z.W.A AXAXAXAXAXAXAXAXAX",
"AXAXAXAXAXAXxXlXnXNXkX^.3X}.}.[.3X0XhXkXdXhXcXyXrXyXrX-X$X@X'.).'.].{.$X=X=X8XfXbXfX-Xk.j.a.$.%.$.$.g.T.z.I.j.AXAXAXAXAXAXAXAXAXAX",
"AXAXAXAXAXAXxXcX X).`.`.6X5X*X*X3X8XfX0XhXcXjXcXnXxXxXiX;X=X$X;XrX;X8XrX8XyXuXlXbXfX=Xz.W.).'.#X*X@X].z.z.j.G.AXAXAXAXAXAXAXAXAXAX",
"AXAXAXAXAXAX+XyXiXcXcXyX7X%X}.%X3X9X8X8XjXxXNXbXbXxXfX<X<X:X;XrX:X X].>XxXlXcXbXVXfX:XW.#XT.].$X$X].).g.s.j.c.AXAXAXAXAXAXAXAXAXAX",
"AXAXAXAXAXAXAX.X<XsX:XaX3X3X3X5X4X6X8XyXyXyXjXpXiXgXeX;X=X-X=X).3._ R p.].lXmXmXmXgX=X'.P.>.s.x.z.).I.S.A.j.i.AXAXAXAXAXAXAXAXAXAX",
"AXAXAXAXAXAXAXAXAXAXy.z.}.3X3X4X9X9X4X9X8XyXyXrX8X-X$X].'.I.:.~ 3 z &XxXzXuXmXCXmXxX<X#X%.3 _ :.x.x.z.l.j.h.i.AXAXAXAXAXAXAXAXAXAX",
"AXAXAXAXAXAXAXAXAXAXAXP.[.}.4X9X9X9X9X9X9X9X7X3X=X$X].'.l.) 5 = 3 z iXBXmXcXBXZXCXnXsX<X@Xz 5 ~ %.:.s.a.a.y.Y AXAXAXAXAXAXAXAXAXAX",
"AXAXAXAXAXAXAXAXAXAXAXU.Y.%X4X9X9X9X9X3X9X3X%X[.{.'.).s.R > : w B ( <XBXVXBXZXCXBXgX:X<X#X| > 5 E ;.>.+.5.4.AXAXAXAXAXAXAXAXAXAXAX",
"AXAXAXAXAXAXAXAXAXAXAXG.U.%X%X9X4X9X}.}.}.}.[.I._.z.%.i * , r ( 5.k.c.eXcXBXCXCXcX<X$X@X$X5.> > r z _ { ^ 9.AXAXAXAXAXAXAXAXAXAXAX",
"AXAXAXAXAXAXAXAXAXAXAX0.Y.}.4X3X4X}._.Y.Y.D.Z.D.l./ 4 % : w [ 5.c.G.y.( c.<XeXeX@X).v.T.z.^ 4 : 4 i M ^ D I AXAXAXAXAXAXAXAXAXAXAX",
"AXAXAXAXAXAXAXAXAXAXAXx _.[.}.|.}.!.D.Z.D.C.~.D.;.> % > u B #.c.W.R.G.4.S Q v.A.s.o./ %.| l 5 4 = 4 l B F AXAXAXAXAXAXAXAXAXAXAXAX",
"AXAXAXAXAXAXAXAXAXAXAXO _.E.[.~.}.D.Z.M.M.M.D.O.3 % , % y ] a.P.E.R.W.5.D r k B k 4 2 r ^ C p w > 4 i D F AXAXAXAXAXAXAXAXAXAXAXAX",
"AXAXAXAXAXAXAXAXAXAXAXX _.'.~.I.~.A.M.1.] O.C.~ p , , . . % 5 %.v.Y.W.j.o.k e 2 = = 2 B | | M p w u i N I AXAXAXAXAXAXAXAXAXAXAXAX",
"AXAXAXAXAXAXAXAXAXAXAXAXD./.D.D.D.M.+.+.] M.] ~ s r w r . + = 5 z a W ) p.) ( W l k M | 5.#.p m p a s S I AXAXAXAXAXAXAXAXAXAXAXAX",
"AXAXAXAXAXAXAXAXAXAXAXAXZ./.C.D.Z.D.+.O._ O.] ~ m s s { ( % A y.) @.R k 6 R 6 6 5 4 5 6 6 l - y M s m S Y AXAXAXAXAXAXAXAXAXAXAXAX",
"AXAXAXAXAXAXAXAXAXAXAXAXM.`.D.M.O.+.M.] ' ] ] Z Z p M $.g.p.( i.m.OXj.L.( W 5 > = = = .   7 > m ] Q Z F AXAXAXAXAXAXAXAXAXAXAXAXAX",
"AXAXAXAXAXAXAXAXAXAXAXAX' /.D.M.M.O.] ] Z Z ] ] Q Z Q $.j.W.)..X( W.c.wXOXoX4.0.B D k   = p M Q { Q N F AXAXAXAXAXAXAXAXAXAXAXAXAX",
"AXAXAXAXAXAXAXAXAXAXAXAXAX_._.q.*.*.} ' E Z C } } } } d.P.T.@X@XMX1Xv.b.b.5./ 4.B k 6 B { | C Q Q Z b A AXAXAXAXAXAXAXAXAXAXAXAXAX",
"AXAXAXAXAXAXAXAXAXAXAXAXAX| _.q.O.*.} } ' s ' *.-.-.*.Z.I._.#X<XMXMXMX1Xn.b.b.p.p.b.k.p.5.[ C m m c v AXAXAXAXAXAXAXAXAXAXAXAXAXAX",
"AXAXAXAXAXAXAXAXAXAXAXAXAXAXS.f.*.*.O.} ' ' ' -.Z.t.h.P.P.E.#X&X<X<X<X@Xn..Xb.n..Xb.k.5.@.} m j j j n AXAXAXAXAXAXAXAXAXAXAXAXAXAX",
"AXAXAXAXAXAXAXAXAXAXAXAXAXAXAXZ.O.&.O.} ] O.O.*.Z.C.G.R.R.W.E.E.E.W.g.g.b.b.p.5.%.%.{ / { Q m j h f + AXAXAXAXAXAXAXAXAXAXAXAXAXAX",
"AXAXAXAXAXAXAXAXAXAXAXAXAXAXAXAX*.*.*.O.O.O.+.-.C.C.K.~.R.E.[.W.c.5.@.( B l l l z k k W B m j t e x AXAXAXAXAXAXAXAXAXAXAXAXAXAXAX",
"AXAXAXAXAXAXAXAXAXAXAXAXAXAXAXAXAX&.} O.-.-.1.C.C.C.J.R.!.I.W.Y.P.a.( D B k r 5 5 5 i M m m c k d + AXAXAXAXAXAXAXAXAXAXAXAXAXAXAX",
"AXAXAXAXAXAXAXAXAXAXAXAXAXAXAXAXAXAXAXO.O.*.*.M.C.Z.J.~.~.*XE.W.a.5.@./ ! B k r w y z Q B C j 0 q AXAXAXAXAXAXAXAXAXAXAXAXAXAXAXAX",
"AXAXAXAXAXAXAXAXAXAXAXAXAXAXAXAXAXAXAXAX9 ] O.*.-.C.J.U.R.OX5X,X*X#Xg.@./ W R M W Q ! ^ C m d 1 AXAXAXAXAXAXAXAXAXAXAXAXAXAXAXAXAX",
"AXAXAXAXAXAXAXAXAXAXAXAXAXAXAXAXAXAXAXAXAXAXC } *.*.C.G.R.OXwXwXiX<X;XT.z.T.'.W.c.h.5.[ M h 8 < AXAXAXAXAXAXAXAXAXAXAXAXAXAXAXAXAX",
"AXAXAXAXAXAXAXAXAXAXAXAXAXAXAXAXAXAXAXAXAXAXAXAXV [ &.q.h.G.E.,X&XOXT.f.z.T.#XE.W.J.q.[ c 8 < AXAXAXAXAXAXAXAXAXAXAXAXAXAXAXAXAXAX",
"AXAXAXAXAXAXAXAXAXAXAXAXAXAXAXAXAXAXAXAXAXAXAXAXAXAXx X...e.h.P.W.j.$.@.+.E.'.v.c.#.^ Z e < AXAXAXAXAXAXAXAXAXAXAXAXAXAXAXAXAXAXAX",
"AXAXAXAXAXAXAXAXAXAXAXAXAXAXAXAXAXAXAXAXAXAXAXAXAXAXAXAXC } ..5...| ^ Q 5.j.j.q.@.N j e -   AXAXAXAXAXAXAXAXAXAXAXAXAXAXAXAXAXAXAX",
"AXAXAXAXAXAXAXAXAXAXAXAXAXAXAXAXAXAXAXAXAXAXAXAXAXAXAXAXAXAXh V k k e l Q | C k e 1 - + AXAXAXAXAXAXAXAXAXAXAXAXAXAXAXAXAXAXAXAXAX",
"AXAXAXAXAXAXAXAXAXAXAXAXAXAXAXAXAXAXAXAXAXAXAXAXAXAXAXAXAXAXAXAX< - & < 9 2 - & O AXAXAXAXAXAXAXAXAXAXAXAXAXAXAXAXAXAXAXAXAXAXAXAX",
"AXAXAXAXAXAXAXAXAXAXAXAXAXAXAXAXAXAXAXAXAXAXAXAXAXAXAXAXAXAXAXAXAXAXAX  X AXAXAXAXAXAXAXAXAXAXAXAXAXAXAXAXAXAXAXAXAXAXAXAXAXAXAXAX",
"AXAXAXAXAXAXAXAXAXAXAXAXAXAXAXAXAXAXAXAXAXAXAXAXAXAXAXAXAXAXAXAXAXAXAXAXAXAXAXAXAXAXAXAXAXAXAXAXAXAXAXAXAXAXAXAXAXAXAXAXAXAXAXAXAX",
"AXAXAXAXAXAXAXAXAXAXAXAXAXAXAXAXAXAXAXAXAXAXAXAXAXAXAXAXAXAXAXAXAXAXAXAXAXAXAXAXAXAXAXAXAXAXAXAXAXAXAXAXAXAXAXAXAXAXAXAXAXAXAXAXAX"
};
