/* XPM */
static char *result[] = {
/* columns rows colors chars-per-pixel */
"65 65 245 2 ",
"   c #271817",
".  c #371D19",
"X  c #2A221D",
"o  c #3B221C",
"O  c #33231C",
"+  c #362A26",
"@  c #393430",
"#  c #1E1915",
"$  c #45261E",
"%  c #4B2C24",
"&  c #422826",
"*  c #532D25",
"=  c #5A2E29",
"-  c #4B352B",
";  c #49372C",
":  c #55332A",
">  c #5B342B",
",  c #58362A",
"<  c #473932",
"1  c #523D32",
"2  c #5C3D34",
"3  c #66392E",
"4  c #643C33",
"5  c #693A35",
"6  c #743E3D",
"7  c #411D1C",
"8  c #534134",
"9  c #5B4539",
"0  c #5C493D",
"q  c #584539",
"w  c #6A4335",
"e  c #62443B",
"r  c #6C443A",
"t  c #644B3D",
"y  c #6D4A3C",
"u  c #644435",
"i  c #71443A",
"p  c #724B3D",
"a  c #78483B",
"s  c #73503F",
"d  c #5A4D45",
"f  c #5A5248",
"g  c #464947",
"h  c #634D42",
"j  c #6B4C42",
"k  c #6A4743",
"l  c #744C42",
"z  c #794943",
"x  c #645245",
"c  c #6C5245",
"v  c #6B5649",
"b  c #6D5A4C",
"n  c #65544B",
"m  c #755344",
"M  c #7A5343",
"N  c #72564A",
"B  c #7C554B",
"V  c #735B4D",
"C  c #7C5A4B",
"Z  c #775947",
"A  c #655752",
"S  c #745D53",
"D  c #7C5D51",
"F  c #725E59",
"G  c #756254",
"H  c #7C6454",
"J  c #7D665A",
"K  c #7C6A5B",
"L  c #75675C",
"P  c #7D634F",
"I  c #786D66",
"U  c #7E7166",
"Y  c #6D6966",
"T  c #8D4A3B",
"R  c #864C41",
"E  c #845445",
"W  c #84554A",
"Q  c #835C4B",
"!  c #8B5C4C",
"~  c #8A5745",
"^  c #855E53",
"/  c #8D5D53",
"(  c #8B5855",
")  c #945E54",
"_  c #915947",
"`  c #A65847",
"'  c #85624E",
"]  c #8B634E",
"[  c #846453",
"{  c #8C6353",
"}  c #8C6955",
"|  c #8C6559",
" . c #846B5B",
".. c #8B6B5B",
"X. c #836557",
"o. c #956555",
"O. c #936C55",
"+. c #9B6C57",
"@. c #94655A",
"#. c #936D5B",
"$. c #9A6C5B",
"%. c #9B6559",
"&. c #8B715D",
"*. c #94715C",
"=. c #9C735D",
"-. c #9C775D",
";. c #93604F",
":. c #AA6D5C",
">. c #A26D59",
",. c #A4725C",
"<. c #AA735E",
"1. c #A9795D",
"2. c #B6725D",
"3. c #AE6853",
"4. c #8A6E62",
"5. c #9B6D62",
"6. c #8C7463",
"7. c #8E7669",
"8. c #8E7A69",
"9. c #847568",
"0. c #937564",
"q. c #9B7463",
"w. c #947966",
"e. c #9B7A65",
"r. c #947C6B",
"t. c #9A7C6A",
"y. c #99756A",
"u. c #887D74",
"i. c #987B73",
"p. c #A76865",
"a. c #A47463",
"s. c #AA7562",
"d. c #A37B64",
"f. c #AB7B64",
"g. c #AA766A",
"h. c #A47D6A",
"j. c #AC7C6B",
"k. c #A3736E",
"l. c #B47C64",
"z. c #B47D6B",
"x. c #B97866",
"c. c #A87B71",
"v. c #B77775",
"b. c #B26C72",
"n. c #C57972",
"m. c #9D816E",
"M. c #97806A",
"N. c #9C8472",
"B. c #988577",
"V. c #8D827E",
"C. c #A4826C",
"Z. c #AC826C",
"A. c #B2836C",
"S. c #BC846C",
"D. c #B88368",
"F. c #A28573",
"G. c #AC8473",
"H. c #A48976",
"J. c #AC8A74",
"K. c #AC8D7A",
"L. c #A58B7B",
"P. c #B38473",
"I. c #BC8573",
"U. c #B48A75",
"Y. c #BC8A74",
"T. c #BC8779",
"R. c #B38B79",
"E. c #BC8C7A",
"W. c #B7877A",
"Q. c #AB917C",
"!. c #BC937D",
"~. c #B6917A",
"^. c #C1866E",
"/. c #C0886E",
"(. c #CF826D",
"). c #C38573",
"_. c #C38B73",
"`. c #C98D75",
"'. c #C38D7A",
"]. c #C98D7C",
"[. c #C4937C",
"{. c #CB937C",
"}. c #C8957B",
"|. c #D1967D",
" X c #D68B76",
".X c #A67D81",
"XX c #938783",
"oX c #A48C83",
"OX c #BA9684",
"+X c #B59C9F",
"@X c #C88C86",
"#X c #C49383",
"$X c #CB9382",
"%X c #CB9C83",
"&X c #CD9C8A",
"*X c #C59A86",
"=X c #D39683",
"-X c #D39C84",
";X c #D59C8A",
":X c #D99E8B",
">X c #DA9B87",
",X c #CB9D90",
"<X c #D49A95",
"1X c #D18C8C",
"2X c #E19E8B",
"3X c #CEA186",
"4X c #CDA489",
"5X c #C7A18A",
"6X c #D4A187",
"7X c #D5A38B",
"8X c #DAA58C",
"9X c #D5A98D",
"0X c #DCA98E",
"qX c #D9A186",
"wX c #CAA695",
"eX c #D5A394",
"rX c #DBA492",
"tX c #D5AA93",
"yX c #DCAB93",
"uX c #DDAE99",
"iX c #D7A69A",
"pX c #DEB19A",
"aX c #E3A78E",
"sX c #E1A693",
"dX c #E1AD93",
"fX c #E2AD9B",
"gX c #E3A898",
"hX c #E2B196",
"jX c #E3B39C",
"kX c #E8B69D",
"lX c #DFB4A1",
"zX c #DCA9A4",
"xX c #E2AEA1",
"cX c #E3B4A2",
"vX c #E5BAA5",
"bX c #E6BCAB",
"nX c #E9B8A7",
"mX c #E8BEB2",
"MX c #D69BA0",
"NX c #EAC1AB",
"BX c #ECC4BC",
"VX c #EBC5B9",
"CX c #EECAC4",
"ZX c #F3CEC9",
"AX c None",
/* pixels */
"AXAXAXAXAXAXAXf B.L.M.M.K L b x v 8 9 8 < q 0 x n d b v 1 b n H J ..6. .V H C.7.P F.H.Q.K.Q.H.F.M.F.F.Q.r.7.N.r.H.6.B.AXAXAXAXAXAX",
"AXAXAXAXAXAXAXV.B.B.6.M. .V c b x 8 8 8 0 x H V G x v b 0 d v b X.X.&.r.6.X.w.t.6.&.*.Q.Q.H.Q.Q.H.M.m.Q.N.8.8.H.m.H M.AXAXAXAXAXAX",
"AXAXAXAXAXAXg I B.M.&. .&.H V V b 0 9 ; 0 G G K  .G G b S b x  .V K  .&.0.r.0.H.m.&.} M.M.~.N.m.H.N.N.Q.H.M.K 6.r.K  .AXAXAXAXAXAX",
"AXAXAXAXAXAXu.M.B.U K 6.&.} &.H K b x q v V G X.6.V c b b  .J v 6.&.C *.t.*.t.J.C.C.} ' C.-.Q.N.m.M.*.N.H.M.r.6.r.7.K Y AXAXAXAXAX",
"AXAXAXAXAXAXU u.r.J C 0.w.*.0. .J b c N t  . . . . .J N v H 6.J  .w. ...e.e.e.J.~.J.M.*.*.C.J.m.M.N. .M.H.M.M.K M.8.K 9.AXAXAXAXAX",
"AXAXAXAXAXAXI &.G c #.d.*.e.e. .H N Z C s ' ..#.[ ..&. .[ Z 6. .H X.0.w.q.Z.J.~.!.~.D.Z.*.*.&.m.M.&.&.&.8.M.8.8.8.6.9.I AXAXAXAXAX",
"AXAXAXAXAXAXL V c Z f.A.*.h.h.q.C Z C Q ] [ { Q ' [ } | O.{ Q } [ [ ' *.e.C.Y.A.Y.!.Z.D.C.-.} } &.w.&.P 7.8.8.r.8.M.8.K g AXAXAXAX",
"AXAXAXAXAXAXL G j Q A.P.d.j.j.a.{ { ! ! { O.] ] ] E O.O.*.} Q W ' Q { ' *.d.[.!.U.Y.D./.Z.+.] Z ' &.K &. . .7.&.M.8.K I g AXAXAXAX",
"AXAXAXAXAXAXf S c +.S.Y.A.U.A.z.a.$.+.+.+.$.+.+.o.o.o.+.+.,.$.! ] E +.*.+.=.Y.%XY.S.Y.D./.Z.] y u P P &.K K K G U K b U AXAXAXAXAX",
"AXAXAXAXAXAXd d ' d.Y.[.[.E.E.A.z.<.,.<.,.,.>.,.>.>.>.,.1.f.f.>.>.>.,.,.=.Y.}.7X|.}.S.|.}.`.1.~ u 0 b s K G V L G K d K AXAXAXAXAX",
"AXAXAXAXAXAXq q ..j.'.}.[.$X$X'.I.z.l.l.1.l.2.<.1.2.<.2.f.l.z.z.l.l.<.1.Y.Y.tXtX0X-XqX6X|.9X}.-.s q 8 q Z G t L x G x L AXAXAXAXAX",
"AXAXAXAXAXAXd < t.Z.E.}.].}.}.[.'._.I.S.D.D.D.l.l.D.l.D.D.S._.{.$X'._.Y.%X9XpXpXyXhX0XhXdX0X6X!.} u 8 ; q v q v b b G L AXAXAXAXAX",
"AXAXAXAXAXAX< d C.C._.'._._.'._.[._._./.S.^.^.S.D.D.D.^./.}.{.;X:X;X-X7XtXpXkXkXhXhXdXhXhX0X9X}.C.Z 0 8 8 8 8 8 d 0 G L AXAXAXAXAX",
"AXAXAXAXAXAXX f F.G.I.Y.I._._._./.}._._.^.^.D.D.^.^./.`._.{.=X9XrX9X;X7XyXuXjXjXhXhXhXhXhXhX9X4XJ.P 0 8 8 ; 8 8 9 q G U AXAXAXAXAX",
"AXAXAXAXAXAXAXf F.G.Y.)._._.Y._.`././.`.^.S./.`.}.`.}.`.}.-X7X8X7X7X6X7X7XyXuXhXyXdXhX0X0X0X0X9XJ.} q ; ; ; ; 8 8 0 b U AXAXAXAXAX",
"AXAXAXAXAXAXAXf B.G.S.Y._./.Y.S.S.S.S.^.^./.^._.`.{.{.|.|.=X;X6X7X8XyXuXuXyX0X0XdXhX0XhXaX0X9X}.J.O.t ; ; ; 8 0 0 x b I AXAXAXAXAX",
"AXAXAXAXAXAXAX@ B.G.I.S.S.S.S.^.`.`.`.|.|.}.}._.}.`.{.|.-X|.qXqX6XqX9X0X0XhX0XdXaX0X0XaX0X0X9X%XD.O.u 8 ; ; 8 t t v b oXAXAXAXAXAX",
"AXAXAXAXAXAXAXAXi.L.I.I.`.}._.^.`.`.{.=X-X6X8X>X-X-X-XqXqX0X8X8X0X8XqXqXqX0XdX0X0X8X6XqX8X6X6X3XJ.M.Z 8 ; - q q t t  .5XmXAXAXAXAX",
"AXAXAXAXAXAXAXAXu.L.A.S._.{.$X%X|.6XrX8X;X8X6X-X-X6XqX>XqXaXrXjXhXhXpX0XhX0X0X0X0XqX8X8X8X8X6X4X!.C.P 0 8 1 8 t 0 x ..R.` AXAXAXAX",
"AXAXAXAXAXAXAXAXI H.S.S.Y.}.6X9X0X0XuXuXfXyXyXyXyX0X8XyXjXcXvXvXvXkXjXjXpXdXdX0X0X8X0X0X0X8X6X9X}.Z.&.Z x 9 u 8 t Z } j.3.AXAXAXAX",
"AXAXAXAXAXAXAXAXf L.E.[.}.[.&X9XeXyXgXuXyXyXrXyXfXjXjXcXfXxXlXbXNXbXvXcXjXjXpXpXhX8XhXdX0XyXtXtX4X!.M.} G v c 8 y ! A.|.2.AXAXAXAX",
"AXAXAXAXAXAXAXAXAXL.#X$X$X[.%X&X{.$X$X;XrXtX7X;X;X:X;X;X:XeXuXlXpXlXcXcXjXkXkXNXhX0XaX9X0XyXuXyX9X!.F.&.K G N y ;.j.tXaX(.AXAXAXAX",
"AXAXAXAXAXAXAXAXAXoXP.'.OX'.Y.Y.I.z.z.).'.{.$X$X'.'.'.Y.'.[.$X7XeXuXtXtXtXvXkXjXjXdX0X8X9XyXtXuXtX!.N.&.0.J ..o.f.tXnXnX XAXAXAXAX",
"AXAXAXAXAXAXAXAXAXoXG.G.J.F.U.P.j.a.,.<.A.z.I.T.g.s.j.s.s.j.j.Z.R.OX5X!.OXtXpXjXjXpXyX9XtXyXuXpXpX~.M.&.6.0.q.f.:.<.2XkX2XAXAXAXAX",
"AXAXAXAXAXAXAXAXAXXXN.F.e.0.[ ..^ ] { o.o.=.,.s.a.@.{ ! ! C i 4 y m C M O.d.P.[.tXuXpXpXpXpXyXuXyXP.t.7.r.m.j.s.T ` ).dXgXAXAXAXAX",
"AXAXAXAXAXAXAXAXAXXXS e 8 2 : $ % : 4 r M E W { @.W M p r 3 * > 3 i M Q ! @.$.+.j.&XuXbXpXtXuXuXyXz.0.r.H.R.z.s.` 2.x.>XgXAXAXAXAX",
"AXAXAXAXAXAXAXAXAXu.S k % + . O . o . $ > 3 a a ! W a w * $ & o o o O + 1 m #.j.$.d.%X9XpXtXpXhX8XZ.y.r.L.OX}.I.2.2.S.=XgXAXAXAXAX",
"AXAXAXAXAXAXAXAXAXXXH e % 8 O # + ; + . . % E +.a.$.! l * % o . q @ X @ S e > i Z.Z.[.3X9XpXpXhX8XA.y.X.t.4XjX|.`.2.).2XaXAXAXAXAX",
"AXAXAXAXAXAXAXAXAXu.y.[ X.l ; < @ n 2 & $ % $._.;X[.$.] p y : % 4 9 c ^ 5.c.E.a.s.^.|.hXkXhXdX0XaX_.} S R.tXjX8X|.2.n.dX2XAXAXAXAX",
"AXAXAXAXAXAXAXAXAXI J.f.5.| W m l u , * * : j.rXpX-XD.a.{ M , : i E o.,.a.,.l.|.kXnXNXkXkXkXhXhXdX%Xq.e.eX7X-XrX2Xx. XsXAXAXAXAXAX",
"AXAXAXAXAXAXAXAXAXA oXT.$.M a a w 3 , 2 : p [.fXbXrX_.S.A.=.M > = > 3 3 i _ Y.=X-X=XaXhXjXkXhXaX0X3X[.#X8X7XkXkX2X2XgX1XAXAXAXAXAX",
"AXAXAXAXAXAXAXAXAXA P.z.W.@.5 3 4 w r a W o.:XfXNXyX=X`.`.T.l.f.%.! R _ :.].:X:X8XgX=X:XkXjXhXdX6X3X*X}.aX|.kXaXkXnX<XxXAXAXAXAXAX",
"AXAXAXAXAXAXAXAXAXAXP.P.z.T.s.$.@.$.$.a.g.a.;XfXbXuX8X-X=X{.$X].`.).).@X=X>X<XyXrXrXvXhXyXjXjX0X3X}.}.5X6X/.vXNXnXjXnXAXAXAXAXAXAX",
"AXAXAXAXAXAXAXAXAXAXc.j.z.z.].$X*X#X].).T.z.$XfXbXcXuXtX7XrXrX:XrX;X$X&X;XiXxXxXvXbXjXcXjX8XhX0X3X[.*X}.6X`.`.).].cXcXAXAXAXAXAXAX",
"AXAXAXAXAXAXAXAXAXAXc.j.s.x.'.@X@X$X].T.#XT.>XxXVXbXcXcXfX;X]. X:XiX:X;X;XrXfXcXnXNXNXpXjX8X0X6X4X}.}.5X6XyXxXxXgXyX+XAXAXAXAXAXAX",
"AXAXAXAXAXAXAXAXAXAXi.j.z.z.I.).^.z.s.>.P.'.>XgXmXmXmXcX].p.T ~ 3.).$X;X=X;X<XsXuXpXjXyX0XaX9X6X4X5X3X3X;XsX2XyX1X.XAXAXAXAXAXAXAX",
"AXAXAXAXAXAXAXAXAXAXi.h.j.z.l.x.x.:._ 3 %.#X:XxXVXBXmXuXzXlX@Xz 3 ~ :.).].].$X=X9X0XyXdX9X9X9X9X9X4X3X%X|.A.y.AXAXAXAXAXAXAXAXAXAX",
"AXAXAXAXAXAXAXAXAXAXY y.y.a.s.>.%.R 5 z OXeXiXxXCXCXBXnXmXBXiXz 5 = 3 ) z.'.{.$X4X}.9X9X9X9X9XpX9X9X5X3X[.Z.AXAXAXAXAXAXAXAXAXAXAX",
"AXAXAXAXAXAXAXAXAXAXAX4.$.$.o.o.E 5 = ) $X<X;XgXCXZXZXBXBXBXeX/ W 5 = > E ,.I.].}.}.4X9X|.|.9X9X9X9X4X}.Y.U.AXAXAXAXAXAXAXAXAXAXAX",
"AXAXAXAXAXAXAXAXAXAXAX4.{ { ! R r 4 > 5.$X@X@X<XxXmXCXCXnX<Xc.k.q.{ r * * i %.z.!.~.}.}.}.}.}.}.4X4X3X*XY.F.AXAXAXAXAXAXAXAXAXAXAX",
"AXAXAXAXAXAXAXAXAXAXAXI D ^ M i 3 = 4 Q v.T.T.I.].rXiX,Xc.^ y.G.c.5.^ r * % 4 ! z.Y.A.D.Y.Y.Y.}.4X9X%X[.I.0.AXAXAXAXAXAXAXAXAXAXAX",
"AXAXAXAXAXAXAXAXAXAXAXAXS D y 4 : 4 r l | @./ @.a.v.z.^ S @.G.U.R.h.@.B u , % > ;.A.~.1.Z.1.Y.}.}.}.#X!._.x AXAXAXAXAXAXAXAXAXAXAX",
"AXAXAXAXAXAXAXAXAXAXAXAXF B i 3 > w y Q ^ r > 5 k B k r ^ q.R.W.E.P.a.{ y % , % w +.Z.-.-.C.A.D.}.~.[.'._.+ AXAXAXAXAXAXAXAXAXAXAX",
"AXAXAXAXAXAXAXAXAXAXAXAXY B r w w p M | | B 2 : : 4 e k { j.T.T.v.@.r % O . , : i E 1.-.O.-.-.Z.U.Y.E.Y._.  AXAXAXAXAXAXAXAXAXAXAX",
"AXAXAXAXAXAXAXAXAXAXAXAXI S m i p m m @.5.| m r l ( ( ) p.) R z z 5 : + . 6 u r s Q O.*.] -.-.Z.Z.A.U._.Y.AXAXAXAXAXAXAXAXAXAXAXAX",
"AXAXAXAXAXAXAXAXAXAXAXAXY S m M M y - l r 6 5 5 5 5 6 a 6 6 R @.o.y.v & ( / s p s Q ] O.] O.O.1.1.Z.Z.`.j.AXAXAXAXAXAXAXAXAXAXAXAX",
"AXAXAXAXAXAXAXAXAXAXAXAXAXS Z Q ] M > 7   7 * = = 3 5 C ( K.b.OXh.k.B p.g.$.M p M ' ' ] ' O.O.,.-.C.Z.`.0.AXAXAXAXAXAXAXAXAXAXAXAX",
"AXAXAXAXAXAXAXAXAXAXAXAXAXF N C ] Q M l =   k D B 0.| L.+XwXc.OX( .XOXv.j.q.Q Z ' { ' s Z ] ] +.-.M.A.`.X.AXAXAXAXAXAXAXAXAXAXAXAX",
"AXAXAXAXAXAXAXAXAXAXAXAXAXA v B C C C } / B 6 k B 4.( y.b.v..X1X<X1X@XE.P.d.{ } } O.' Z C ' ] *.O.-.Y.^.AXAXAXAXAXAXAXAXAXAXAXAXAX",
"AXAXAXAXAXAXAXAXAXAXAXAXAXAXv v m Z C { 5.5.k.b.b.p.b.b.v.1XMXMXMX,X#XY.I.h.-.-.-.-.P s ' { O.*.O.-._.{ AXAXAXAXAXAXAXAXAXAXAXAXAX",
"AXAXAXAXAXAXAXAXAXAXAXAXAXAXn j c j m } @.5.k.v.v.b.b.n.n.1X<X<X,X,X#XY.P.P.C.M.C.O.' ' ' ] *.} O.Z./.AXAXAXAXAXAXAXAXAXAXAXAXAXAX",
"AXAXAXAXAXAXAXAXAXAXAXAXAXAX+ n j j l Q @.^ / ) %.p.p.p.g.g.g.W.W.OXE.I.R.R.J.Z.Z.*.O.O.] } O.} *.A.AXAXAXAXAXAXAXAXAXAXAXAXAXAXAX",
"AXAXAXAXAXAXAXAXAXAXAXAXAXAXAXn e u j l B Q p l z z l l B ( @.a.g.E.E.E.~.U.J.C.C.-.-.O.O.} *.*.*.AXAXAXAXAXAXAXAXAXAXAXAXAXAXAXAX",
"AXAXAXAXAXAXAXAXAXAXAXAXAXAXAX+ d k c m m M i 4 4 5 r k B B ( 5.v.Y.T.Y.!.~.J.C.C.Z.M.-.=.=.} } AXAXAXAXAXAXAXAXAXAXAXAXAXAXAXAXAX",
"AXAXAXAXAXAXAXAXAXAXAXAXAXAXAXAXd 9 m C C B M w 5 r l M ( { @.5.a.Y.E.#X~.~.Z.Z.C.C.O.O.*.} AXAXAXAXAXAXAXAXAXAXAXAXAXAXAXAXAXAXAX",
"AXAXAXAXAXAXAXAXAXAXAXAXAXAXAXAXAX1 9 c C [ ^ ! B M z ( / o.g.#X*X,XwXOXU.J.Z.Z.-.M.O.] 9 AXAXAXAXAXAXAXAXAXAXAXAXAXAXAXAXAXAXAXAX",
"AXAXAXAXAXAXAXAXAXAXAXAXAXAXAXAXAX< 1 h Z X.5.h.h.W.'.T.z.T.&X<XiXwXwXOXR.G.h.#.*...Z AXAXAXAXAXAXAXAXAXAXAXAXAXAXAXAXAXAXAXAXAXAX",
"AXAXAXAXAXAXAXAXAXAXAXAXAXAXAXAXAXAX< 2 c ^ 5.J.W.T.@X'.z.f.Y.#X,X,X!.G.h.q.&.[ N AXAXAXAXAXAXAXAXAXAXAXAXAXAXAXAXAXAXAXAXAXAXAXAX",
"AXAXAXAXAXAXAXAXAXAXAXAXAXAXAXAXAXAXAX< e m [ #.h.P.E.E.$.@.$.j.R.P.j.d...X.x AXAXAXAXAXAXAXAXAXAXAXAXAXAXAXAXAXAXAXAXAXAXAXAXAXAX",
"AXAXAXAXAXAXAXAXAXAXAXAXAXAXAXAXAXAXAXX - 9 k C | a.j.j.5.Q ^ [ ..4...| V AXAXAXAXAXAXAXAXAXAXAXAXAXAXAXAXAXAXAXAXAXAXAXAXAXAXAXAX",
"AXAXAXAXAXAXAXAXAXAXAXAXAXAXAXAXAXAXAXAXAX+ - 1 e l B | [ k e k j N h AXAXAXAXAXAXAXAXAXAXAXAXAXAXAXAXAXAXAXAXAXAXAXAXAXAXAXAXAXAX",
"AXAXAXAXAXAXAXAXAXAXAXAXAXAXAXAXAXAXAXAXAXAXAXAX. + - 9 2 1 % < < AXAXAXAXAXAXAXAXAXAXAXAXAXAXAXAXAXAXAXAXAXAXAXAXAXAXAXAXAXAXAXAX",
"AXAXAXAXAXAXAXAXAXAXAXAXAXAXAXAXAXAXAXAXAXAXAXAXAXAXAXAX    AXAXAXAXAXAXAXAXAXAXAXAXAXAXAXAXAXAXAXAXAXAXAXAXAXAXAXAXAXAXAXAXAXAXAX",
"AXAXAXAXAXAXAXAXAXAXAXAXAXAXAXAXAXAXAXAXAXAXAXAXAXAXAXAXAXAXAXAXAXAXAXAXAXAXAXAXAXAXAXAXAXAXAXAXAXAXAXAXAXAXAXAXAXAXAXAXAXAXAXAXAX",
"AXAXAXAXAXAXAXAXAXAXAXAXAXAXAXAXAXAXAXAXAXAXAXAXAXAXAXAXAXAXAXAXAXAXAXAXAXAXAXAXAXAXAXAXAXAXAXAXAXAXAXAXAXAXAXAXAXAXAXAXAXAXAXAXAX"
};
