/* XPM */
static char *result[] = {
/* columns rows colors chars-per-pixel */
"65 65 211 2 ",
"   c #7E3103",
".  c #613B12",
"X  c #786D4C",
"o  c #7A725C",
"O  c #7B7352",
"+  c #9B3D06",
"@  c #814F17",
"#  c #8C5118",
"$  c #8C440A",
"%  c #A74708",
"&  c #A55909",
"*  c #BA680D",
"=  c #B6780F",
"-  c #B4730C",
";  c #A96717",
":  c #B76715",
">  c #B47613",
",  c #BA7512",
"<  c #B57A13",
"1  c #BA7D14",
"2  c #B37E1E",
"3  c #B87D19",
"4  c #BB761A",
"5  c #AD7514",
"6  c #8B6021",
"7  c #9F7C2F",
"8  c #9F712A",
"9  c #9F7D31",
"0  c #A87826",
"q  c #B17E23",
"w  c #C86F0F",
"e  c #CA760B",
"r  c #C67D1C",
"t  c #826F45",
"y  c #837754",
"u  c #807D69",
"i  c #BB871B",
"p  c #BE8614",
"a  c #BC8623",
"s  c #BD8A23",
"d  c #B6842B",
"f  c #BA8B2A",
"g  c #AD8C3D",
"h  c #A78538",
"j  c #BA963E",
"k  c #B99338",
"l  c #A98224",
"z  c #C6841B",
"x  c #C48D1E",
"c  c #D58816",
"v  c #C7921C",
"b  c #CE9B1A",
"n  c #DC9B1A",
"m  c #DDA51E",
"M  c #E0AB1B",
"N  c #E5B11D",
"B  c #F1B018",
"V  c #C38C23",
"C  c #CB8D29",
"Z  c #C69324",
"A  c #CB9329",
"S  c #CE9C2E",
"D  c #CA9628",
"F  c #D59D23",
"G  c #CC9C34",
"H  c #C69A3D",
"J  c #C59934",
"K  c #D19C37",
"L  c #E39C2B",
"P  c #D6A62B",
"I  c #D9A022",
"U  c #DCA936",
"Y  c #D1AA36",
"T  c #D2B23B",
"R  c #E3A725",
"E  c #E5B731",
"W  c #E9BB2A",
"Q  c #EEC32E",
"!  c #F4C828",
"~  c #EAC034",
"^  c #F3CB39",
"/  c #F4DC3D",
"(  c #F4D42B",
")  c #F9E635",
"_  c #8A825D",
"`  c #90835B",
"'  c #9B874E",
"]  c #B58F4E",
"[  c #AF994E",
"{  c #B59544",
"}  c #B89745",
"|  c #B79843",
" . c #BB9B46",
".. c #B79A4A",
"X. c #BE9E49",
"o. c #B2964B",
"O. c #B59C57",
"+. c #BFA245",
"@. c #BDA24D",
"#. c #BDA251",
"$. c #B8A159",
"%. c #87836A",
"&. c #948B68",
"*. c #9E9366",
"=. c #9C9574",
"-. c #AB9A65",
";. c #AFA16E",
":. c #BBAA72",
">. c #B6A976",
",. c #BAAE6F",
"<. c #C19F4A",
"1. c #C59F44",
"2. c #C2A34C",
"3. c #C9A64D",
"4. c #CAA646",
"5. c #D8AE46",
"6. c #D6B748",
"7. c #C3A551",
"8. c #C6AA52",
"9. c #CAAD55",
"0. c #C5AC5A",
"q. c #CDAF59",
"w. c #C9A754",
"e. c #CCB056",
"r. c #CEB15B",
"t. c #D1B55D",
"y. c #D3B85E",
"u. c #DAB95B",
"i. c #E4AC40",
"p. c #E1BB54",
"a. c #C6AF62",
"s. c #CCAF60",
"d. c #CEB262",
"f. c #CCB66A",
"g. c #D2B661",
"h. c #D5BA61",
"j. c #D8BD63",
"k. c #D6BA68",
"l. c #DAB96C",
"z. c #D1B768",
"x. c #C0AF71",
"c. c #CEBC74",
"v. c #C2B47E",
"b. c #CBB878",
"n. c #D2BE73",
"m. c #DBC049",
"M. c #E8C949",
"N. c #F3D541",
"B. c #F3D948",
"V. c #FAE54A",
"C. c #FEF544",
"Z. c #F9E758",
"A. c #F9E653",
"S. c #FDF15D",
"D. c #DBC165",
"F. c #DCC36D",
"G. c #D4C16F",
"H. c #DCC472",
"J. c #DDCA7B",
"K. c #D8C578",
"L. c #E6CC68",
"P. c #E3CC75",
"I. c #E3CC7A",
"U. c #E5D27A",
"Y. c #E6D179",
"T. c #FCF07C",
"R. c #AAA789",
"E. c #B2AD8A",
"W. c #BFB581",
"Q. c #B8B598",
"!. c #C3B584",
"~. c #C8BC86",
"^. c #CBC08F",
"/. c #D8C685",
"(. c #C9C399",
"). c #D4CA93",
"_. c #DDCE93",
"`. c #DCD39D",
"'. c #E9D682",
"]. c #EBD987",
"[. c #ECDA8B",
"{. c #E7D387",
"}. c #EEDC91",
"|. c #EBDC9A",
" X c #E5D796",
".X c #F0DE93",
"XX c #F1D484",
"oX c #ECE19F",
"OX c #F2E196",
"+X c #F4E49B",
"@X c #FDFC9A",
"#X c #D9D2A5",
"$X c #E6DBA3",
"%X c #E6E3AF",
"&X c #F5E7A1",
"*X c #F6E9A3",
"=X c #F8ECA6",
"-X c #F6EBAB",
";X c #F8EDAD",
":X c #F4E5A6",
">X c #FAF1AE",
",X c #ECE6B0",
"<X c #F7EFB5",
"1X c #F9EFB0",
"2X c #F5EEB8",
"3X c #FAF1B3",
"4X c #F7F1BB",
"5X c #FBF4BC",
"6X c #FCFDB6",
"7X c #FAF5C1",
"8X c None",
/* pixels */
"8X8X8X8X8X8X8X8X8X8X8X8X8X8X8X8X8X8X8X8X8X8X8X8X8X8X8X8X8X8X8X8X8X8X8X8X8X8X8X8X8X8X8X8X8X8X8X8X8X8X8X8X8X8X8X8X8X8X8X8X8X8X8X8X8X",
"8X8X8X8X8X8X8X8X8X8X8X8X8X8X8X8X8X8X8X8X8X8X8X8X8X*.r.9.8.9.8.7.#.-.8X8X8X8X8X8X8X8X8X8X8X8X8X8X8X8X8X8X8X8X8X8X8X8X8X8X8X8X8X8X8X",
"8X8X8X8X8X8X8X8X8X8X8X8X8X8X8X8X8X8X8X8X8X8X8X8Xd.0.H.r.e.9.8.8.t.h.2.X 8X8X8X8X8X8X8X8X8X8X8X8X8X8X8X8X8X8X8X8X8X8X8X8X8X8X8X8X8X",
"8X8X8X8X8X8X8X8X8X8X8X8X8X8X8X8X8X8X8X8X8X8X8Xd.D.t.y.r.e.e.8.8.2.2.3.8.8X8X8X8X8X8X8X8X8X8X8X8X8X8X8X8X8X8X8X8X8X8X8X8X8X8X8X8X8X",
"8X8X8X8X8X8X8X8X8X8X8X8X8X8X8X8X8X8X8X8X8X8XG.2.g.r.t.t.9.9.9.8.7.2.2.4.2.8X8X8X8X8X8X8X8X8X8X8X8X8X8X8X8X8X8X8X8X8X8X8X8X8X8X8X8X",
"8X8X8X8X8X8X8X8X8X8X8X8X8X8X8X8X8X8X8X8X8X8Xq.t.g.g.t.t.e.e.9.8.2.2.+.X.K.y 8X8X8X8X8X8X8X8X8X8X8X8X8X8X8X8X8X8X8X8X8X8X8X8X8X8X8X",
"8X8X8X8X8X8X8X8X8X8X8X8X8X8X8X8X8X8X8X8X8Xb. .y.g.t.y.t.q.e.9.8.7.2.2.X.7.O.8X8X8X8X8X8X8X8X8X8X8X8X8X8X8X8X8X8X8X8X8X8X8X8X8X8X8X",
"8X8X8X8X8X8X8X8X8X8X8X8X8X8X8X8X8X8X8X8X8Xr.q.h.g.t.r.r.q.9.8.8.2.2.2.X. .g.8X8X8X8X8X8X8X8X8X8X8X8X8X8X8X8X8X8X8X8X8X8X8X8X8X8X8X",
"8X8X8X8X8X8X8X8X8X8X8X8X8X8X8X8X8X8X8X8XO 7.y.h.t.t.t.t.e.e.8.8.7.2.2.X.X.z.X 8X8X8X8X8X8X8X8X8X8X8X8X8X8X8X8X8X8X8X8X8X8X8X8X8X8X",
"8X8X8X8X8X8X8X8X8X8X8X8X8X8X8X8X8X8X8X8X,.| h.g.g.t.r.r.e.9.8.8.2.2.<. .} 8.o.8X8X8X8X8X8X8X8X8X8X8X8X8X8X8X8X8X8X8X8X8X8X8X8X8X8X",
"8X8X8X8X8X8X8X8X8X8X8X8X8X8X8X8X8X8X8X8X8.<.y.g.t.t.r.r.e.8.8.8.2.2.X.X.X...@.8X8X8X8X8X8X8X8X8X8X8X8X8X8X8X8X8X8X8X8X8X8X8X8X8X8X",
"8X8X8X8X8X8X8X8X8X8X8X8X8X8X8X8X8X8X8X8Xr.9.y.g.t.t.r.r.e.8.8.2.2.2.X. .} } 8.8X8X8X8X8X8X8X8X8X8X8X8X8X8X8X8X8X8X8X8X8X8X8X8X8X8X",
"8X8X8X8X8X8X8X8X8X8X8X8X8X8X8X8X8X8X8X:.r.y.y.y.t.t.q.9.9.8.8.2.2.2.X. .} | a.8X8X8X8X8X8X8X8X8X8X8X8X8X8X8X8X8X8X8X8X8X8X8X8X8X8X",
"8X8X8X8X8X8X8X8X8X8X8X8X8X8X8X8X8X8X/.n.7.y.g.r.t.t.q.q.8.8.2.8.2.+.X. .} } a.y 8X8X8X8X8X8X8X8X8X8X8X8X8X8X8X8X8X8X8X8X8X8X8X8X8X",
"8X8X8X8X8X8X8X8X8X8X8X8X8X8X8X8X8X8Xk.9.X.t.t.t.r.r.e.9.9.8.2.2.2.2.j  .} } 0.t 8X8X8X8X8X8X8X8X8X8X8X8X8X8X8X8X8X8X8X8X8X8X8X8X8X",
"8X8X8X8X8X8X8X8X8X8X8X8X8X8X8X8X8X8Xh.2.} t.t.t.r.q.9.9.8.2.2.2. . . . .} } 7.' 8X8X8X8X8X8X8X8X8X8X8X8X8X8X8X8X8X8X8X8X8X8X8X8X8X",
"8X8X8X8X8X8X8X8X8X8X8X8X8X8X8X8X8X8Xg.X.{ t.t.r.e.e.9.8.8.2.2.2. .<.} } | { #.[ 8X8X8X8X8X8X8X8X8X8X8X8X8X8X8X8X8X8X8X8X8X8X8X8X8X",
"8X8X8X8X8X8X8X8X8X8X8X8X8X8X8X8X8X8Xt.X.| t.r.r.e.9.9.7.8.2.2.+.<. . .} o.| ..o.8X8X8X8X8X8X8X8X8X8X8X8X8X8X8X8X8X8X8X8X8X8X8X8X8X",
"8X8X8X8X8X8X8X8X8X8X8X8X8X8X8X8X8X8Xt.@. .r.q.q.e.9.8.7.@.2.2.X. .} } o.} { ....8X8X8X8X8X8X8X8X8X8X8X8X8X8X8X8X8X8X8X8X8X8X8X8X8X",
"8X8X8X8X8X8X8X8X8X8X8X8X8X8X8X8X8X8Xt.@.1.e.9.q.9.8.7.7.2.2.+. .X.} } } } { } ..8X8X8X8X8X8X8X8X8X8X8X8X8X8X8X8X8X8X8X8X8X8X8X8X8X",
"8X8X8X8X8X8X8X8X8X8X8X8X8X8X8X8X8X8Xt.7.| e.e.9.8.8.2.2.2.<.X.X. .} } | { { { o.8X8X8X8X8X8X8X8X8X8X8X8X8X8X8X8X8X8X8X8X8X8X8X8X8X",
"8X8X8X8X8X8X8X8X8X8X8X8X8X8X8X8X8X8Xt.#. .9.8.8.8.2.2.2.X.X. . .} } } | { { { o.8X8X8X8X8X8X8X8X8X8X8X8X8X8X8X8X8X8X8X8X8X8X8X8X8X",
"8X8X8X8X8X8X8X8X8X8X8X8X8X8X8X8X8X8Xy.#. .8.8.8.2.2.2.2.X.X. .} } } | o.{ { | ..8X8X8X8X8X8X8X8X8X8X8X8X8X8X8X8X8X8X8X8X8X8X8X8X8X",
"8X8X8X8X8X8X8X8X8X8X8X8X8X8X8X8X8X8Xy.7.j 8.2.2.2.<.<.X.X.} } ..} { { } { { { ..8X8X8X8X8X8X8X8X8X8X8X8X8X8X8X8X8X8X8X8X8X8X8X8X8X",
"8X8X8X8X8X8X8X8X8X8X8X8X8X8X8X8X8X8Xy.8.j 2.2.@.2.X.X.X. .} } | } { { { g { | ..8X8X8X8X8X8X8X8X8X8X8X8X8X8X8X8X8X8X8X8X8X8X8X8X8X",
"8X8X8X8X8X8X8X8X8X8X8X8X8X8X8X8X8X8Xh.0.j 2.2.<.<. . .| } | } } { { { { { g { o.8X8X8X8X8X8X8X8X8X8X8X8X8X8X8X8X8X8X8X8X8X8X8X8X8X",
"8X8X8X8X8X8X8X8X8X8X8X8X8X8X8X8X8X&.h.d.a Z v v i i s k k { } } { { { { g { { O.8X8X8X8X8X8X8X8X8X8X8X8X8X8X8X8X8X8X8X8X8X8X8X8X8X",
"8X8X8X8X8X8X8X8X8X8X8X8X8X8X8X8X8X` j.l.r w w + % w c M v p 2 d k { { { } ..X.:.8X8X8X8X8X8X8X8X8X8X8X8X8X8X8X8X8X8X8X8X8X8X8X8X8X",
"8X8X8X8X8X8X8X8X8X8X8X8X8X8X8X8X8Xv.D.{.: w M * % + $ e ( C.) b > > 2 9.H.Y.8.8X8X8X8X8X8X8X8X8X8X8X8X8X8X8X8X8X8X8X8X8X8X8X8X8X8X",
"8X8X8X8X8X8X8X8X8X8X8X8X8X8X8X8X8Xx.F.-X5.R @X@Xm i   % B ! ! / ) i > 5 5 k./.8X8X8X8X8X8X8X8X8X8X8X8X8X8X8X8X8X8X8X8X8X8X8X8X8X8X",
"8X8X8X8X8X8X8X8X8X8X8X8X8X8X8X8X8X/.H. XL.M.B.6XE m * & - - p , = 1 Z 5.5.D l._ 8X8X8X8X8X8X8X8X8X8X8X8X8X8X8X8X8X8X8X8X8X8X8X8X8X",
"8X8X8X8X8X8X8X8X8X8X8X8X8X8X8X8X8X_.I.K.G H V 3 i < p G 6.L.P.u.4.a > > 1 s G G +.r.n.&.8X8X8X8X8X8X8X8X8X8X8X8X8X8X8X8X8X8X8X8X8X",
"8X8X8X8X8X8X8X8X8X8X8X8X8X8X8X8X8X~.7.h 0 c . 8 Z i p > < a A K U R : @ / / <.S M Y 1.8.y.n.O 8X8X8X8X8X8X8X8X8X8X8X8X8X8X8X8X8X8X",
"8X8X8X8X8X8X8X8X8X8X8X8X8X8X8X8X8X8X7Xu.; 6 < 5 > > U P F z ; z F S S D l V ] q r r E ^ 6.2.y.G.;.8X8X8X8X8X8X8X8X8X8X8X8X8X8X8X8X",
"8X8X8X8X8X8X8X8X8X8X8X8X8X8X8X8X8X8X7X7X[.C }.a > < > s A # # ; A P U N.V.e.7Xp.! F q F W A.T @.j.F.~.8X8X8X8X8X8X8X8X8X8X8X8X8X8X",
"8X8X8X8X8X8X8X8X8X8X8X8X8X8X8X8X8X8X8X%.5X7X/.$X}.a = > , q j @.X.X.<.6.S.l.7Xi.M W W ^ 6.J E N.j y.j.P.8X8X8X8X8X8X8X8X8X8X8X8X8X",
"8X8X8X8X8X8X8X8X8X8X8X8X8X8X8X8X8X8X8X8X8X7X7X5Xb.$X:X1.< , > > d <.2.A.V.D.;XL Q Q ! + & Z.6.S z y.D.F.J.8X8X8X8X8X8X8X8X8X8X8X8X",
"8X8X8X8X8X8X8X8X8X8X8X8X8X8X8X8X8X8X8X8X8X8X5X7X7X5Xb.~.5X{.H 1 = > > p n D.&Xc ^ Q B.N.c F M.y.h.h.h.h.F.8X8X8X8X8X8X8X8X8X8X8X8X",
"8X8X8X8X8X8X8X8X8X8X8X8X8X8X8X8X8X8X8X8X8X8XQ.7X7X5X5X5X:X>.).5X:Xl.f 3 , > 1 C 7.3.8.9.9.w.8.@...$./.<X$X8X8X8X8X8X8X8X8X8X8X8X8X",
"8X8X8X8X8X8X8X8X8X8X8X8X8X8X8X8X8X8X8X8X8X8X8X5X5X5X5X3X3X3X1X-Xv.!.,X7X2X-X|. X_._./.z.f.J.oX2X4X#X,._.%X8X8X8X8X8X8X8X8X8X8X8X8X",
"8X8X8X8X8X8X8X8X8X8X8X8X8X8X8X8X8X8X8X8X8X8X8X#X5X5X5X3X1X3X3X3X3X3X3X-X).>.;.>.:.~.>.-.-.-.W.|.1X3X4X5X8X8X8X8X8X8X8X8X8X8X8X8X8X",
"8X8X8X8X8X8X8X8X8X8X8X8X8X8X8X8X8X8X8X8X8X8X8X8X5X5X3X1X1X1X;X1X;X;X;X;X=X;X-X>X3X3X3X5X3X5X<X1X3X3X>XE.8X8X8X8X8X8X8X8X8X8X8X8X8X",
"8X8X8X8X8X8X8X8X8X8X8X8X8X8X8X8X8X8X8X8X8X8X8X8X(.3X3X;X;X1X1X;X;X;X;X-X=X=X=X;X;X;X>X3X1X1X1X>X-X;X3X8X8X8X8X8X8X8X8X8X8X8X8X8X8X",
"8X8X8X8X8X8X8X8X8X8X8X8X8X8X8X8X8X8X8X8X8X8X8X8X8X5X>X;X=X=X-X-X;X-X=X&X&X&X+X&X=X;X;X;X1X;X=X=X&X-X8X8X8X8X8X8X8X8X8X8X8X8X8X8X8X",
"8X8X8X8X8X8X8X8X8X8X8X8X8X8X8X8X8X8X8X8X8X8X8X8X8Xu 1X;X&X+X+X&X&X+X&X+X+X+X+X&X&X=X=X=X=X&X&X+X*XE.8X8X8X8X8X8X8X8X8X8X8X8X8X8X8X",
"8X8X8X8X8X8X8X8X8X8X8X8X8X8X8X8X8X8X8X8X8X8X8X8X8X8X3X;X*X+X+X.X+X+XOXOXOXOXOX+X+X&X&X+X+X+X+X+X;X8X8X8X8X8X8X8X8X8X8X8X8X8X8X8X8X",
"8X8X8X8X8X8X8X8X8X8X8X8X8X8X8X8X8X8X8X8X8X8X8X8X8X8X#X;X=X+X.X.X[.}.OX.XOX.X.XOX+X+XOXOXOXOXOX+X8X8X8X8X8X8X8X8X8X8X8X8X8X8X8X8X8X",
"8X8X8X8X8X8X8X8X8X8X8X8X8X8X8X8X8X8X8X8X8X8X8X8X8X8XR.;X*X+X.X.X[.[.[.[..X.X.X.XOX[.[.}.OXOX+X`.8X8X8X8X8X8X8X8X8X8X8X8X8X8X8X8X8X",
"8X8X8X8X8X8X8X8X8X8X8X8X8X8X8X8X8X8X8X8X8X8X8X8X8X8X8X;X=X+X.X.X[.].].}..X.X.X.X[.'.'..X.XOX+X8X8X8X8X8X8X8X8X8X8X8X8X8X8X8X8X8X8X",
"8X8X8X8X8X8X8X8X8X8X8X8X8X8X8X8X8X8X8X8X8X8X8X8X8X8X8X1X=X+X.X.X[.].]..X.X.X.XOX.X[.[..XOX+X&X8X8X8X8X8X8X8X8X8X8X8X8X8X8X8X8X8X8X",
"8X8X8X8X8X8X8X8X8X8X8X8X8X8X8X8X8X8X8X8X8X8X8X8X8X8XR.;X*X+XOX.X[.[.XXOXOX+X+X+X.X.X.XOX+X+X`.8X8X8X8X8X8X8X8X8X8X8X8X8X8X8X8X8X8X",
"8X8X8X8X8X8X8X8X8X8X8X8X8X8X8X8X8X8X8X8X8X8X8X8X8X8X#X;X*X+X+X.X}.[.[..X+X+X*X+X+X+X+X+X+X&X=.8X8X8X8X8X8X8X8X8X8X8X8X8X8X8X8X8X8X",
"8X8X8X8X8X8X8X8X8X8X8X8X8X8X8X8X8X8X8X8X8X8X8X8X8X8X-X=X&X+X+XOX.X}.[.OX+X*X=X=X+X+X*X&X&X&X8X8X8X8X8X8X8X8X8X8X8X8X8X8X8X8X8X8X8X",
"8X8X8X8X8X8X8X8X8X8X8X8X8X8X8X8X8X8X8X8X8X8X8X8X8X8X*X&X+X+XOXOX.X}..XOX&X;X;X;X;X;X;X-X=X-X8X8X8X8X8X8X8X8X8X8X8X8X8X8X8X8X8X8X8X",
"8X8X8X8X8X8X8X8X8X8X8X8X8X8X8X8X8X8X8X8X8X8X8X8X8X8XOX+X+X+XOXOX.X.X[.+X&X;X1X1X3X3X;X3X1X;X8X8X8X8X8X8X8X8X8X8X8X8X8X8X8X8X8X8X8X",
"8X8X8X8X8X8X8X8X8X8X8X8X8X8X8X8X8X8X8X8X8X8X8X8X8X%..X.XOXOXOX.X.X[..X.X=X1X3X3X5X3X5X3X3X;X8X8X8X8X8X8X8X8X8X8X8X8X8X8X8X8X8X8X8X",
"8X8X8X8X8X8X8X8X8X8X8X8X8X8X8X8X8X8X8X8X8X8X8X8X8X8X].[.[.}.}.}.}.[.[..X&X3X3X5X5X7X5X7X5X;X8X8X8X8X8X8X8X8X8X8X8X8X8X8X8X8X8X8X8X",
"8X8X8X8X8X8X8X8X8X8X8X8X8X8X8X8X8X8X8X8X8X8X8X8X8X8X&.U.'.'.[.[.'.[.[.[.+X3X5X5X5X>X+X>X7X;X8X8X8X8X8X8X8X8X8X8X8X8X8X8X8X8X8X8X8X",
"8X8X8X8X8X8X8X8X8X8X8X8X8X8X8X8X8X8X8X8X8X8X8X8X8X8X8X8XI.Y.U.'.'.'.].[.OX;X3X5X0.k.e.g -X;X8X8X8X8X8X8X8X8X8X8X8X8X8X8X8X8X8X8X8X",
"8X8X8X8X8X8X8X8X8X8X8X8X8X8X8X8X8X8X8X8X8X8X8X8X8X8X8X8X8XJ.I.P.I.U.'.].OX=X5X-X9 8.e.g a.-X&.8X8X8X8X8X8X8X8X8X8X8X8X8X8X8X8X8X8X",
"8X8X8X8X8X8X8X8X8X8X8X8X8X8X8X8X8X8X8X8X8X8X8X8X8X8X8X8X8X8Xv.I.P.Y.U.'.[.+X3X|.9 { e.g o.-X~.8X8X8X8X8X8X8X8X8X8X8X8X8X8X8X8X8X8X",
"8X8X8X8X8X8X8X8X8X8X8X8X8X8X8X8X8X8X8X8X8X8X8X8X8X8X8X8X8X8X8X8XK.P.I.U.[.OX-X-Xh h 9.{ j &X X8X8X8X8X8X8X8X8X8X8X8X8X8X8X8X8X8X8X",
"8X8X8X8X8X8X8X8X8X8X8X8X8X8X8X8X8X8X8X8X8X8X8X8X8X8X8X8X8X8X8X8X8Xo J.U.].}.+XoX .0 } | H.4X8X8X8X8X8X8X8X8X8X8X8X8X8X8X8X8X8X8X8X",
"8X8X8X8X8X8X8X8X8X8X8X8X8X8X8X8X8X8X8X8X8X8X8X8X8X8X8X8X8X8X8X8X8X8X8X8X(.G.@.I.5XF.9.0.O 8X8X8X8X8X8X8X8X8X8X8X8X8X8X8X8X8X8X8X8X",
"8X8X8X8X8X8X8X8X8X8X8X8X8X8X8X8X8X8X8X8X8X8X8X8X8X8X8X8X8X8X8X8X8X8X8X8X8X8X8X8X8X8X8X8X8X8X8X8X8X8X8X8X8X8X8X8X8X8X8X8X8X8X8X8X8X"
};
