/* XPM */
static char *result[] = {
/* columns rows colors chars-per-pixel */
"52 52 190 2 ",
"   c #7E2903",
".  c #686041",
"X  c #78714E",
"o  c #7F7852",
"O  c #832E02",
"+  c #8F4105",
"@  c #99410A",
"#  c #90571B",
"$  c #A8530D",
"%  c #AF5F18",
"&  c #B4690D",
"*  c #B5720F",
"=  c #A96B17",
"-  c #B47613",
";  c #B57913",
":  c #BA7E14",
">  c #B57B1C",
",  c #B87D19",
"<  c #9D7B30",
"1  c #A26B25",
"2  c #C1620A",
"3  c #C5740F",
"4  c #C47C14",
"5  c #89794E",
"6  c #807756",
"7  c #847952",
"8  c #BC841D",
"9  c #B88321",
"0  c #BD882C",
"q  c #A78638",
"w  c #A38233",
"e  c #BC8D32",
"r  c #B48F3C",
"t  c #B68434",
"y  c #B8933B",
"u  c #CE8415",
"i  c #C5851A",
"p  c #DA8812",
"a  c #CB971C",
"s  c #D4961E",
"d  c #E09D1C",
"f  c #DFA71D",
"g  c #E7A61C",
"h  c #C28825",
"j  c #C89328",
"k  c #C18730",
"l  c #C28D30",
"z  c #C39334",
"x  c #CF9D34",
"c  c #C2963E",
"v  c #C79C38",
"b  c #D19C33",
"n  c #DAA720",
"m  c #DEAD2E",
"M  c #D6A528",
"N  c #DEBA2F",
"B  c #CDA235",
"V  c #CFAB3B",
"C  c #D6A93A",
"Z  c #DFB633",
"A  c #E1AB21",
"S  c #EBAC23",
"D  c #E8B725",
"F  c #E7A43B",
"G  c #E6BC35",
"H  c #EBC12A",
"J  c #F2C521",
"K  c #F8D82C",
"L  c #EDC435",
"P  c #E9C63B",
"I  c #F1C532",
"U  c #F6D637",
"Y  c #FCEF3F",
"T  c #978048",
"R  c #928252",
"E  c #AA914D",
"W  c #B59543",
"Q  c #B89746",
"!  c #BB9B46",
"~  c #B59748",
"^  c #B79A4D",
"/  c #BC9D49",
"(  c #B79845",
")  c #AF9751",
"_  c #AA975D",
"`  c #B49D50",
"'  c #BFA049",
"]  c #BDA559",
"[  c #8D8464",
"{  c #9C9160",
"}  c #AE9F6D",
"|  c #B3A369",
" . c #ADA072",
".. c #B3AA7D",
"X. c #BCAE7C",
"o. c #B8A973",
"O. c #C09E47",
"+. c #C3A343",
"@. c #C2A34C",
"#. c #CAA74C",
"$. c #DDBD42",
"%. c #D9B44D",
"&. c #DCBA48",
"*. c #C4A651",
"=. c #C6AA53",
"-. c #CAAE55",
";. c #C7AC5B",
":. c #CCAE59",
">. c #CDA751",
",. c #CBB057",
"<. c #CDB15B",
"1. c #D5B454",
"2. c #D1B55D",
"3. c #D4B95F",
"4. c #E1AE57",
"5. c #E6BA54",
"6. c #C2AD63",
"7. c #C7AF6A",
"8. c #CCAF61",
"9. c #CDB566",
"0. c #CFB768",
"q. c #C5B06C",
"w. c #D2B660",
"e. c #D4BA62",
"r. c #DABD63",
"t. c #D4BC6A",
"y. c #C7B870",
"u. c #C4B67D",
"i. c #CEBA78",
"p. c #D2BD71",
"a. c #DBC055",
"s. c #EBCB45",
"d. c #F1CE46",
"f. c #E0C05F",
"g. c #E9D352",
"h. c #F4DB50",
"j. c #F0DB5C",
"k. c #D7C06E",
"l. c #DBC46C",
"z. c #D8C167",
"x. c #DBC375",
"c. c #DECA7C",
"v. c #D9C376",
"b. c #E3C366",
"n. c #E3CD75",
"m. c #E3CE7A",
"M. c #E4D27A",
"N. c #E2D076",
"B. c #CBBC82",
"V. c #C8BB87",
"C. c #C2BB94",
"Z. c #CBC389",
"A. c #D9C988",
"S. c #D2CA94",
"D. c #DBD197",
"F. c #E5CB84",
"G. c #E9D682",
"H. c #EBD986",
"J. c #E3D38C",
"K. c #EDDB8C",
"L. c #E6D480",
"P. c #EFDD91",
"I. c #E3D79B",
"U. c #EAD491",
"Y. c #F0DE93",
"T. c #EDE29F",
"R. c #F2E196",
"E. c #F4E59C",
"W. c #CCC8A4",
"Q. c #D0CBA4",
"!. c #DDD4A2",
"~. c #E6DCA7",
"^. c #EFE8AF",
"/. c #F4E6A1",
"(. c #F6E9A4",
"). c #F8EAA6",
"_. c #F1E7A8",
"`. c #F6EBAA",
"'. c #F8EDAC",
"]. c #FEFCAB",
"[. c #EBE6B2",
"{. c #EBE7B4",
"}. c #F5EDB3",
"|. c #F9EFB1",
" X c #F3EFBE",
".X c #FAF1B4",
"XX c #FBF4BC",
"oX c #F7F2B7",
"OX c #FBF5C0",
"+X c None",
/* pixels */
"+X+X+X+X+X+X+X+X+X+X+X+X+X+X+X+X+X+X+X+X+X+X+X+X+X+X+X+X+X+X+X+X+X+X+X+X+X+X+X+X+X+X+X+X+X+X+X+X+X+X+X+X",
"+X+X+X+X+X+X+X+X+X+X+X+X+X+X+X+X+X+X+X+X<.:.t.k.t.e.' R +X+X+X+X+X+X+X+X+X+X+X+X+X+X+X+X+X+X+X+X+X+X+X+X",
"+X+X+X+X+X+X+X+X+X+X+X+X+X+X+X+X+X+X[ -.t.2.2.:.-.*.@.>.` +X+X+X+X+X+X+X+X+X+X+X+X+X+X+X+X+X+X+X+X+X+X+X",
"+X+X+X+X+X+X+X+X+X+X+X+X+X+X+X+X+X+X:.w.2.2.:.,.-.*.*.@.1.R +X+X+X+X+X+X+X+X+X+X+X+X+X+X+X+X+X+X+X+X+X+X",
"+X+X+X+X+X+X+X+X+X+X+X+X+X+X+X+X+Xy.=.3.2.2.,.,.-.*.@.@./ <.+X+X+X+X+X+X+X+X+X+X+X+X+X+X+X+X+X+X+X+X+X+X",
"+X+X+X+X+X+X+X+X+X+X+X+X+X+X+X+X+X-.e.w.2.2.,.-.=.*.@.O./ 9.. +X+X+X+X+X+X+X+X+X+X+X+X+X+X+X+X+X+X+X+X+X",
"+X+X+X+X+X+X+X+X+X+X+X+X+X+X+X+X7 ' 3.2.2.<.:.,.-.*.@.@.' ^ ) +X+X+X+X+X+X+X+X+X+X+X+X+X+X+X+X+X+X+X+X+X",
"+X+X+X+X+X+X+X+X+X+X+X+X+X+X+X+X| #.3.3.2.1.,.-.=.*.@.@.! ! =.+X+X+X+X+X+X+X+X+X+X+X+X+X+X+X+X+X+X+X+X+X",
"+X+X+X+X+X+X+X+X+X+X+X+X+X+X+X+X:.2.e.w.2.2.,.-.=.*.@.' ! ! :.+X+X+X+X+X+X+X+X+X+X+X+X+X+X+X+X+X+X+X+X+X",
"+X+X+X+X+X+X+X+X+X+X+X+X+X+X+X+X-.3.w.2.2.,.,.=.=.@.@.' ! ! 8.+X+X+X+X+X+X+X+X+X+X+X+X+X+X+X+X+X+X+X+X+X",
"+X+X+X+X+X+X+X+X+X+X+X+X+X+X+XK.*.w.2.2.:.:.,.=.*.@.' ' ! Q ] 5 +X+X+X+X+X+X+X+X+X+X+X+X+X+X+X+X+X+X+X+X",
"+X+X+X+X+X+X+X+X+X+X+X+X+X+XX :.! 2.2.2.1.,.-.=.*.@.' ! ! ( ! 5 +X+X+X+X+X+X+X+X+X+X+X+X+X+X+X+X+X+X+X+X",
"+X+X+X+X+X+X+X+X+X+X+X+X+X+X7 =.! 2.2.,.,.-.=.*.@.@./ ! Q Q Q E +X+X+X+X+X+X+X+X+X+X+X+X+X+X+X+X+X+X+X+X",
"+X+X+X+X+X+X+X+X+X+X+X+X+X+X} *./ 2.2.:.,.,.=.@.@.' ! ( ( y Q ^ +X+X+X+X+X+X+X+X+X+X+X+X+X+X+X+X+X+X+X+X",
"+X+X+X+X+X+X+X+X+X+X+X+X+X+X_ *.O.2.:.:.-.*.@.@.O./ ! ! Q Q Q ~ +X+X+X+X+X+X+X+X+X+X+X+X+X+X+X+X+X+X+X+X",
"+X+X+X+X+X+X+X+X+X+X+X+X+X+Xq.*.@.:.-.-.-.*.@.@.@.! ( Q Q Q W ! +X+X+X+X+X+X+X+X+X+X+X+X+X+X+X+X+X+X+X+X",
"+X+X+X+X+X+X+X+X+X+X+X+X+X+Xo.=.@.-.-.=.*.@.@.@.! ! Q Q W Q r ^ +X+X+X+X+X+X+X+X+X+X+X+X+X+X+X+X+X+X+X+X",
"+X+X+X+X+X+X+X+X+X+X+X+X+X+Xe.-.@.-.-.@.@.@.@.! ! ! Q Q W W W / +X+X+X+X+X+X+X+X+X+X+X+X+X+X+X+X+X+X+X+X",
"+X+X+X+X+X+X+X+X+X+X+X+X+X+X9.;.! =.@.@.@.' / / ! Q Q W W W W ( +X+X+X+X+X+X+X+X+X+X+X+X+X+X+X+X+X+X+X+X",
"+X+X+X+X+X+X+X+X+X+X+X+X+X+Xe.<.! =.@.@.' / ! ! Q Q W W W W W ~ +X+X+X+X+X+X+X+X+X+X+X+X+X+X+X+X+X+X+X+X",
"+X+X+X+X+X+X+X+X+X+X+X+X+X+Xr.9.! +.@.O.! ! ^ ( ! W W W W r W ~ +X+X+X+X+X+X+X+X+X+X+X+X+X+X+X+X+X+X+X+X",
"+X+X+X+X+X+X+X+X+X+X+X+X+X+Xz.v.j d u 4 i 8 9 e y W W W r W W ] +X+X+X+X+X+X+X+X+X+X+X+X+X+X+X+X+X+X+X+X",
"+X+X+X+X+X+X+X+X+X+X+X+X+X+Xz.U.% 2 $ @ + 3 K U a ; > r -.<.;...+X+X+X+X+X+X+X+X+X+X+X+X+X+X+X+X+X+X+X+X",
"+X+X+X+X+X+X+X+X+X+X+X+X+X+Xk.`.b A ].f &   p J K Y N - - y 0.+X+X+X+X+X+X+X+X+X+X+X+X+X+X+X+X+X+X+X+X+X",
"+X+X+X+X+X+X+X+X+X+X+X+X+X+Xl./.b.G ].s.s & & * : : 8 B %.%.v _ +X+X+X+X+X+X+X+X+X+X+X+X+X+X+X+X+X+X+X+X",
"+X+X+X+X+X+X+X+X+X+X+X+X+X+X<.J.B 0 c C C 5.r.#.0 > : h B G >.%.B *.e.{ +X+X+X+X+X+X+X+X+X+X+X+X+X+X+X+X",
"+X+X+X+X+X+X+X+X+X+X+X+X+X+XoX2.0 > ; ; ; b C A u p n j j M t k i i Z +.2.v.+X+X+X+X+X+X+X+X+X+X+X+X+X+X",
"+X+X+X+X+X+X+X+X+X+X+X+X+X+XW.XX4.b.z - > 4 b 1 # = M m P d.K.z.D 9 j P h.+.2.l.6 +X+X+X+X+X+X+X+X+X+X+X",
"+X+X+X+X+X+X+X+X+X+X+X+X+X+X+X+XXXoXB._.z ; ; > y / ' ' g.j.E.5.A H g s.v G V ,.z.m.+X+X+X+X+X+X+X+X+X+X",
"+X+X+X+X+X+X+X+X+X+X+X+X+X+X+X+X+X XOX|.u.}.t., - > > z U h.(.F I U S O I g.x t.z.l.J.+X+X+X+X+X+X+X+X+X",
"+X+X+X+X+X+X+X+X+X+X+X+X+X+X+X+X+X+XOXOXXX|.B.S.'.n.l ; - - 0 h &.&.1.1.2.2.<.=.;.A.~.+X+X+X+X+X+X+X+X+X",
"+X+X+X+X+X+X+X+X+X+X+X+X+X+X+X+X+X+X{.XXXXXX.X|.|.V.Z.{.oX/.F.x.i.i.9.6.t.I.}.[.Z.A.+X+X+X+X+X+X+X+X+X+X",
"+X+X+X+X+X+X+X+X+X+X+X+X+X+X+X+X+X+X+XXXXX.X.X.X|..X|.|.`.D.V.o.X.X.| o.B.I.|.oX.XQ.+X+X+X+X+X+X+X+X+X+X",
"+X+X+X+X+X+X+X+X+X+X+X+X+X+X+X+X+X+X+X{..X.X|.|.'.|.|.'.`.).`.).|..X'.XX.X.X|.|..X+X+X+X+X+X+X+X+X+X+X+X",
"+X+X+X+X+X+X+X+X+X+X+X+X+X+X+X+X+X+X+X+X.X|.).'.|.|.).).).(.(.).).'.|.|.|.`.).).+X+X+X+X+X+X+X+X+X+X+X+X",
"+X+X+X+X+X+X+X+X+X+X+X+X+X+X+X+X+X+X+X+XC.|.`.E.E.E.(.(.E.E.E.E.).`.).).).E.(.!.+X+X+X+X+X+X+X+X+X+X+X+X",
"+X+X+X+X+X+X+X+X+X+X+X+X+X+X+X+X+X+X+X+X+X.X).E.R.R.E.R.R.R.R.R.E.(.E.E.E.E.(.+X+X+X+X+X+X+X+X+X+X+X+X+X",
"+X+X+X+X+X+X+X+X+X+X+X+X+X+X+X+X+X+X+X+X+X|.).E.R.R.K.P.P.P.Y.R.R.R.P.R.R.R.+X+X+X+X+X+X+X+X+X+X+X+X+X+X",
"+X+X+X+X+X+X+X+X+X+X+X+X+X+X+X+X+X+X+X+X+X^.).(.K.K.H.K.P.P.Y.Y.P.G.K.P.R.E.+X+X+X+X+X+X+X+X+X+X+X+X+X+X",
"+X+X+X+X+X+X+X+X+X+X+X+X+X+X+X+X+X+X+X+X+X~.).E.R.K.H.H.P.R.R.R.K.G.R.R.E.C.+X+X+X+X+X+X+X+X+X+X+X+X+X+X",
"+X+X+X+X+X+X+X+X+X+X+X+X+X+X+X+X+X+X+X+X+X}.)./.Y.P.K.H.Y.R.E.E.R.Y.R.R.E.+X+X+X+X+X+X+X+X+X+X+X+X+X+X+X",
"+X+X+X+X+X+X+X+X+X+X+X+X+X+X+X+X+X+X+X+X+X'.)./.R.Y.K.K.Y.E.(.(.E.E.E./.(.+X+X+X+X+X+X+X+X+X+X+X+X+X+X+X",
"+X+X+X+X+X+X+X+X+X+X+X+X+X+X+X+X+X+X+X+X+X)./.E.E.R.P.P.E./.).).).).(.(.).+X+X+X+X+X+X+X+X+X+X+X+X+X+X+X",
"+X+X+X+X+X+X+X+X+X+X+X+X+X+X+X+X+X+X+X+X+XE.E.R.R.Y.P.P.E.).'..X|..X|.|.).+X+X+X+X+X+X+X+X+X+X+X+X+X+X+X",
"+X+X+X+X+X+X+X+X+X+X+X+X+X+X+X+X+X+X+X+X..Y.R.R.R.Y.K.P.R.)..X.XXXXX.XXX`.+X+X+X+X+X+X+X+X+X+X+X+X+X+X+X",
"+X+X+X+X+X+X+X+X+X+X+X+X+X+X+X+X+X+X+X+X+XM.K.K.P.P.K.H.R.`..XXXOXOXXXXX).+X+X+X+X+X+X+X+X+X+X+X+X+X+X+X",
"+X+X+X+X+X+X+X+X+X+X+X+X+X+X+X+X+X+X+X+X+X+Xn.M.G.H.G.H.K.(..XXXJ.z./ |.`.+X+X+X+X+X+X+X+X+X+X+X+X+X+X+X",
"+X+X+X+X+X+X+X+X+X+X+X+X+X+X+X+X+X+X+X+X+X+X+Xm.m.M.M.M.K.E..X.Xw 2.Q ] (.+X+X+X+X+X+X+X+X+X+X+X+X+X+X+X",
"+X+X+X+X+X+X+X+X+X+X+X+X+X+X+X+X+X+X+X+X+X+X+X+X .n.n.M.G.R.`._.< @./ W /.+X+X+X+X+X+X+X+X+X+X+X+X+X+X+X",
"+X+X+X+X+X+X+X+X+X+X+X+X+X+X+X+X+X+X+X+X+X+X+X+X+X+Xv.n.M.K.E.|.q W ' W J.+X+X+X+X+X+X+X+X+X+X+X+X+X+X+X",
"+X+X+X+X+X+X+X+X+X+X+X+X+X+X+X+X+X+X+X+X+X+X+X+X+X+X+X+XX.R.v.9.c.@.@.t.+X+X+X+X+X+X+X+X+X+X+X+X+X+X+X+X",
"+X+X+X+X+X+X+X+X+X+X+X+X+X+X+X+X+X+X+X+X+X+X+X+X+X+X+X+X+X+X+X+X+X+X+X+X+X+X+X+X+X+X+X+X+X+X+X+X+X+X+X+X"
};
