/* XPM */
static char *e6513761780840bfe8798e7227c14d523PHIXxpTSdjtP20N[] = {
/* columns rows colors chars-per-pixel */
"65 65 151 2 ",
"   c None",
".  c #070707",
"X  c #0D0D0D",
"o  c #100E0F",
"O  c #13100E",
"+  c #1C100A",
"@  c #110F10",
"#  c #141314",
"$  c #181617",
"%  c #1F1817",
"&  c #191718",
"*  c #1C1B1C",
"=  c #261B16",
"-  c #211E1E",
";  c #24201F",
":  c #1B1F24",
">  c #211F20",
",  c #1F2224",
"<  c #222021",
"1  c #2E2520",
"2  c #2B2C25",
"3  c #2D2B2A",
"4  c #342F27",
"5  c #362C29",
"6  c #37312B",
"7  c #343434",
"8  c #383F37",
"9  c #3A3A3A",
"0  c #4D4430",
"q  c #524B32",
"w  c #5A4E3D",
"e  c #5D5639",
"r  c #61593C",
"t  c #695D3B",
"y  c #6B603F",
"u  c #3F4040",
"i  c #4B4B4B",
"p  c #544640",
"a  c #514941",
"s  c #59504C",
"d  c #515355",
"f  c #5A5A5A",
"g  c #665E42",
"h  c #695D41",
"j  c #64544B",
"k  c #645345",
"l  c #695E57",
"z  c #6F6344",
"x  c #726644",
"c  c #71664E",
"v  c #766B49",
"b  c #7B724D",
"n  c #6F6D53",
"m  c #69615D",
"M  c #766153",
"N  c #76665A",
"B  c #777153",
"V  c #7E7556",
"C  c #666666",
"Z  c #6C6C6C",
"A  c #786D64",
"S  c #757473",
"D  c #857C54",
"F  c #887F54",
"G  c #877F5E",
"H  c #887E5B",
"J  c #816F67",
"K  c #8A796C",
"L  c #8E8557",
"P  c #8A805C",
"I  c #938959",
"U  c #9C9266",
"Y  c #80867A",
"T  c #83887D",
"R  c #948777",
"E  c #A89E6A",
"W  c #A48D7B",
"Q  c #A09A72",
"!  c #A39F7F",
"~  c #ABA56E",
"^  c #B0A873",
"/  c #B3AA78",
"(  c #BCB079",
")  c #C8BE7E",
"_  c #9A8F83",
"`  c #9F968A",
"'  c #8D9094",
"]  c #A99484",
"[  c #B29C8A",
"{  c #B89F89",
"}  c #A3A380",
"|  c #ACA383",
" . c #B4AE8E",
".. c #BAB284",
"X. c #B9A091",
"o. c #B9A897",
"O. c #B5AF9D",
"+. c #BDB792",
"@. c #A7A8A7",
"#. c #C9BF84",
"$. c #C3B78C",
"%. c #C6BD8B",
"&. c #C9BF8A",
"*. c #C6AD9D",
"=. c #CDB29D",
"-. c #D3BF90",
";. c #CDB6A3",
":. c #C5B2A4",
">. c #CBC38B",
",. c #CEC88C",
"<. c #CDC284",
"1. c #D1C983",
"2. c #D3C78C",
"3. c #D2C88A",
"4. c #D3C690",
"5. c #D4CC96",
"6. c #D1C69A",
"7. c #D1C99B",
"8. c #E1CC9F",
"9. c #CBC6A1",
"0. c #DCC2AE",
"q. c #D6D0AB",
"w. c #DED8AC",
"e. c #C1C1BD",
"r. c #CFCEBC",
"t. c #E7CDA5",
"y. c #E5C7AF",
"u. c #EFD2BB",
"i. c #FAD5B4",
"p. c #F6D5B9",
"a. c #FED6BD",
"s. c #FBD8BD",
"d. c #E6D4C4",
"f. c #F4D5C4",
"g. c #FBD6C0",
"h. c #F6D9C3",
"j. c #FAD8C2",
"k. c #FDDFCD",
"l. c #E5DDD5",
"z. c #FBE3D3",
"x. c #F4E6D8",
"c. c #EAECE7",
"v. c #EBEDED",
"b. c #FBEAE1",
"n. c #FCF0E4",
"m. c #FCF4E9",
"M. c #FAF6F1",
"N. c #F8F8F4",
"B. c #FBF7FC",
"V. c #F7F8F8",
"C. c #FBFBFA",
/* pixels */
"                                                                                                                                  ",
"                                                            T v.C.C.C.c.Y                                                         ",
"                                                        ! q.5.8.w.m.N.C.C.B.8                                                     ",
"                                                      >.2.2.2.2.3.2.r.C.z.z.C.2                                                   ",
"                                                    ..2.2.2.2.2.3.,.! ` a.a.s.V.                                                  ",
"                                                  n 2.3.2.2.2.3.2.~ L O.j.a.a.z.e.                                                ",
"                                                  9.>.2.2.2.3.3.3.3.,.5.p.a.a.a.k.M.                                              ",
"                                                S G 2.>.2.2.3.3.3.z s [ f.g.a.a.a.{ 2                                             ",
"                                                m t / 4.I 2.3.,.4.K J N u.a.a.a.[ _ 6                                             ",
"                                                R r D 2.D >.2.~ ~ k a.h.g.a.a.a.p.=.o.                                            ",
"                                                 .x b 2.F ..,.z G ..u.a.a.a.a.g.[ 0.g.A                                           ",
"                                                +.v D <.b ..,.0 <.! w p.p.a.a.a.g.a.g.:.@.7                                       ",
"                                                | y Q 3.e 2.>.M 2.q $.p X.a.g.a.a.a.a.=.x.N.@.i *                                 ",
"                                                B h ,.) r <.U %.2.>.i.p.a.a.a.a.a.a.a.;.j.h.z.n.m.m.b.l.                          ",
"                                                s H 3.v >.4.>.2.-.a.a.a.a.a.g.g.g.a.a.K j.a.a.a.a.a.a.f.*                         ",
"                                                  >.( <.1.2.8.s.g.a.a.a.a.a.a.a.a.a.s.M y.a.a.a.a.a.j.j                           ",
"                                                    6.t.p.a.g.g.a.a.a.a.a.a.a.g.a.a.*.d.5 - l R A                                 ",
"                                                    d p 5 - = = j 0.s.a.a.g.a.a.a.j.+ 4                                           ",
"                                                  & > > < < < < < * = *.s.a.g.a.h.;                                               ",
"                                                $ > > 3 > < < < < < , , O W h.] 4                                                 ",
"                                                > > < < < < > 1 < < < < < > o '                                                   ",
"                                                < < < < < < > < < < < < < - - = <                                                 ",
"                                              * < < < < < < > < < < < < < < < < < $                                               ",
"                                              * < < < < < < < < < < < < < > < < < < <                                             ",
"                                              * < < < < < < < < < < < < < > < < < < > > >                                         ",
"                                              * < < < < < < < < < < > < < < < < < < & , , & i                                     ",
"                                              - < < < < < < > < < > < < < < < > < < 9 9 $ ; , #                                   ",
"                                              < < < < < < < < < < < < < > < < < ; , ;     # > > #                                 ",
"                                              * < < < < < < < < < < < < < < < > < < *       9 > *                                 ",
"                                              * < < < < < < < > < < > < < < < < < < ,       & > &                                 ",
"                                              * < < < < < < < < < > < < < < < < < < < Z 7 > < *                                   ",
"                                              < < < < < < < < < < < > < < < > < < < < X < < #                                     ",
"                                            f , < < < < < < < < < < > > < < < < < < < X *                                         ",
"                                            * < < < < < < < < < > < > > < < < < - , < X                                           ",
"                                            & < < < < < < < < < < < < > < < < < ; ; ; #                                           ",
"                                            & < < < < < < < < < < < > 1 < < < > , ; ,                                             ",
"                                            - < < < < < < < < < < < < < > < < < < < <                                             ",
"                                          f < < < < < < < < < < < < > < < < < > < < < .                                           ",
"                                          $ < < < < < < < < < < < > < < > > < < < < < X                                           ",
"                                          - < < < < < < < < < < < < > > > 1 < < < < < X                                           ",
"                                          * < < , < < < < < < < < < < > > < < < < < < X                                           ",
"                                          9 O X * * < < < < < ; > > < < > > > < < < < @                                           ",
"                                                X X $ X X X # # $ $ # @ # # @ X X &                                               ",
"                                                9 # $ @ # * * > > > > > < < > > <                                                 ",
"                                                S * < # $ : - * # @ X X X X @ < ,                                                 ",
"                                                  * < < - * 2 : $ : * * & - < < >                                                 ",
"                                                  $ < < < < &             < < < &                                                 ",
"                                                  C < < < < 2             < < < #                                                 ",
"                                                    - < < ,               < < < X                                                 ",
"                                                    - < < >               < < < X                                                 ",
"                                                    * < < <               - < < #                                                 ",
"                                                    - < < &               - < < .                                                 ",
"                                                    < < < #               * < < X                                                 ",
"                                                    - < > #               * < < $                                                 ",
"                                                    $ < < X               $ < ; X                                                 ",
"                                                    & < *                 # < ; ,                                                 ",
"                                                  S < < *                 # < <                                                   ",
"                                                    * > *                 * > <                                                   ",
"                                                    > > *                 $ < <                                                   ",
"                                                    * > -                 & < >                                                   ",
"                                                  i * > #                 * < >                                                   ",
"                                                  X X X 3               $ X o $ >                                                 ",
"                                                i : > > * X             $ < > < , > # # X 3 *                                     ",
"                                                C $ > > # X             # , < < > < , < < < < * *                                 ",
"                                                                                                                                  "
};
