/* XPM */
static char *ab43cc3a50be4dc0815064880dd7ff09dFl9JslIUcDPtR76[] = {
/* columns rows colors chars-per-pixel */
"65 65 202 2 ",
"   c None",
".  c #0D0F0E",
"X  c #0E100F",
"o  c #0D0F10",
"O  c #0F1212",
"+  c #121414",
"@  c #161817",
"#  c #131719",
"$  c #15191B",
"%  c #1A1C1D",
"&  c #241A0E",
"*  c #1F201F",
"=  c #3D271F",
"-  c #1B1E21",
";  c #171C28",
":  c #1E2123",
">  c #1F2729",
",  c #152333",
"<  c #222425",
"1  c #23272A",
"2  c #24282B",
"3  c #2B2B2C",
"4  c #262827",
"5  c #3B2C27",
"6  c #352F2E",
"7  c #3A2A27",
"8  c #37312E",
"9  c #2D2F30",
"0  c #2D3032",
"q  c #333434",
"w  c #3B3535",
"e  c #3C3933",
"r  c #363838",
"t  c #3A3C3B",
"y  c #4E1E22",
"u  c #462C24",
"i  c #502F29",
"p  c #4C332B",
"a  c #533B2B",
"s  c #5D3B2F",
"d  c #572F30",
"f  c #453C37",
"g  c #573E32",
"h  c #622523",
"j  c #3C403F",
"k  c #59502F",
"l  c #47413C",
"z  c #5B433B",
"x  c #59473B",
"c  c #555333",
"v  c #644539",
"b  c #72493D",
"n  c #685934",
"m  c #66592E",
"M  c #636236",
"N  c #736435",
"B  c #383B43",
"V  c #2C3D52",
"C  c #443F42",
"Z  c #374C75",
"A  c #3B5075",
"S  c #4C4D4D",
"D  c #4C4646",
"F  c #544B48",
"G  c #5D514A",
"H  c #555659",
"J  c #684A43",
"K  c #6B5449",
"L  c #645240",
"P  c #70564C",
"I  c #745B4C",
"U  c #765447",
"Y  c #785E56",
"T  c #695E5C",
"R  c #796948",
"E  c #69655B",
"W  c #786557",
"Q  c #6A6445",
"!  c #4C5E7F",
"~  c #586378",
"^  c #656768",
"/  c #6F6E70",
"(  c #767678",
")  c #786C65",
"_  c #812E30",
"`  c #85272B",
"'  c #875949",
"]  c #895E51",
"[  c #965D49",
"{  c #83634F",
"}  c #8C644C",
"|  c #877A4A",
" . c #856859",
".. c #9A6C58",
"X. c #887756",
"o. c #95794E",
"O. c #A5775A",
"+. c #896C64",
"@. c #8B7767",
"#. c #997765",
"$. c #9C7C71",
"%. c #A67966",
"&. c #B57A63",
"*. c #8D824C",
"=. c #978250",
"-. c #98905F",
";. c #A2915D",
":. c #B1AA5F",
">. c #B3846E",
",. c #A48673",
"<. c #AC8777",
"1. c #B48571",
"2. c #B48A75",
"3. c #BB8C74",
"4. c #B5937C",
"5. c #BC917D",
"6. c #BD9375",
"7. c #B7AC69",
"8. c #BBB16E",
"9. c #B7AA74",
"0. c #B5B370",
"q. c #C1B25F",
"w. c #C28D76",
"e. c #C4937D",
"r. c #CD9A7D",
"t. c #C1B57F",
"y. c #C6AF74",
"u. c #365282",
"i. c #485C83",
"p. c #4D6799",
"a. c #5B7299",
"s. c #55709D",
"d. c #486185",
"f. c #787F87",
"g. c #7F8186",
"h. c #7C8691",
"j. c #81818F",
"k. c #9E9C81",
"l. c #868C95",
"z. c #8C9295",
"x. c #959396",
"c. c #968B83",
"v. c #AF8C80",
"b. c #BC9484",
"n. c #BE9A8E",
"m. c #AFA28F",
"M. c #BFAF8F",
"N. c #9BA1A6",
"B. c #A5A7AB",
"V. c #B7AEA5",
"C. c #AAAFB4",
"Z. c #A6ACB1",
"A. c #B3B8BC",
"S. c #C49C85",
"D. c #C49B8C",
"F. c #CC9F81",
"G. c #D39C82",
"H. c #D8A78C",
"J. c #C9BE85",
"K. c #DBB48D",
"L. c #CAA997",
"P. c #D6AB93",
"I. c #DCAA94",
"U. c #DAAB9A",
"Y. c #DDB495",
"T. c #D9B19E",
"R. c #CCA78E",
"E. c #E3A78E",
"W. c #E3AC95",
"Q. c #EEB696",
"!. c #ECB896",
"~. c #E4B59B",
"^. c #EDB69A",
"/. c #E6BA9D",
"(. c #EAB89A",
"). c #E7B796",
"_. c #F2B496",
"`. c #F1B599",
"'. c #F9AD9B",
"]. c #C6BBA1",
"[. c #E9BBA1",
"{. c #E8B6A2",
"}. c #CEC388",
"|. c #C9C3B8",
" X c #D9C9BC",
".X c #E8C8B9",
"XX c #BDBFC5",
"oX c #D5D9DD",
"OX c #DDDAD7",
"+X c #D0CECA",
"@X c #E4D1C8",
"#X c #F2DAC7",
"$X c #E7DED4",
"%X c #F5DFD5",
"&X c #F5ECDA",
"*X c #DCDDE3",
"=X c #F3F4F5",
"-X c #FCF9F3",
";X c #F7FCFD",
":X c #FCFDFC",
">X c #F5F0F8",
",X c #F0EDE8",
/* pixels */
"                                                                                                                                  ",
"                                                                                                                                  ",
"                                                                                                                                  ",
"                                                                                                                                  ",
"                                                                                                                                  ",
"                                                                                                                                  ",
"                                                                                                                                  ",
"                                                                                                                                  ",
"                                                                                                                                  ",
"                                                                                                                                  ",
"                                                                                                                                  ",
"                                                                                                                                  ",
"                                    m Q V.x. X0.t.}.}.0.+Xj.8                                                                     ",
"                                R OX,X&X%X@X;.=.| -.J.}.&X:X-X|.l                                                                 ",
"                              |.L.K.&.^.^.Q.`.^.Q..X#X-X:X:Xk.| 9.e                                                               ",
"                          M $XQ.^.{.R.O.6.^._.~.Q.^.`.^..X-XW n m 8.                                                              ",
"                        n #XQ.&.%.!.`.^.(.2.>.e.>.(.`.^.(.(.W N *.q.M                                                             ",
"                      *.L.^.!.Y.!./.~.>.H.(._._.!.^.^.^.Q.^.{ 8.n x 7.                                                            ",
"                  @.]././.F.Y.U./.&.[.^.Q.).{.<.}  .4.Q.^.`.K.@.b v.7.                                                            ",
"                m ] %.( ^ 4.(.`.W.{ ^.^.R.E A.D &.w.3.~.`.^.^.<.&.#.M q                                                           ",
"                  o.z ;X,XZ.F v I.U P ) z.-X:X>X] %.%.(.Q.^.(.>.r.v k % t                                                         ",
"                    I *X;X=X9 p E.I.T ;XH =X:X*X] (.r.(.^.^.Q.E.E.d k 4 + : 3                                                     ",
"                  n &.Y *X*X( U /.^.G *X>X>X*XD 2._.Q.^.^.Q.Q.(.(.Q | 1 1 $ 1 < < 4 - q                                           ",
"                6 (.D.' J 7 v $.^.^.e.C z.j.7 %.>.Q.^.Q.^._.~.' U y.c 1 1 - 1 < 4 4 < % 4                                         ",
"                $.!.^.~.^.I %.^.^.^.Q...' O.[ %.(.Q.^.(._.Q.^.Q.^.W.% : @ - 4 1 2 2 ; < 1 :                                       ",
"                T.U.,.W V.{.`.^.} H.^.F.L.5._.^.^.^.!.`.^.Q.^.Q.^.l % 2 2 $ < 1 1 1 1 $ 1 4 $                                     ",
"        0 +X$X@X X.X^.^.^._.`.^.2.%.^.(.2.%.{.^.Q.`.`.Q.Q.~.Q.I.K h.: 2 1 2 ; 1 1 1 1 1 - 1 1 q                                   ",
"        c.(.Q.Q.^.`.(.(.`.Q.`.1.1._.(.!.~.p y i @.#.~.^._._.E.f f.z.1 2 1 - 1 1 1 1 1 1 1 O 1 1 $                                 ",
"         .`.Q.^.^.^.^.`._.^.S.v b S.4.v d _ ` h (.`.`.W.%...u h.oXC.1 2 1 # 2 1 1 2 1 1 2 < H 4 4 -                               ",
"        r R.(.^.Q.`.^.^.S.g P ^.Q.Q.'.,.m.[.P.E.^.Q.^.S.J f l.>X:XB.2 2 1 : 1 1 1 1 1 1 1 2 : : 4 2 4                             ",
"            6 z g i = w       3 5 z r.6.a s 2.{.(...{ ; Z XX:X:X:XB 2 1 - 1 1 1 2 1 1 1 1 1 4   : 4 4 $                           ",
"                                  3 * = b } { g u t ( s.i.S :X:X=X: 2 1 - 1 1 1 1 1 1 2 1 1 4 %   : 1 4 :                         ",
"                                  % 1 1 - > > 1 > C./ s.A ^ :X:XS 4 2 # 2 2 2 1 2 1 1 1 2 1 1 1 9   - 1 1 -                       ",
"                                - 1 1 1 - 1 1 $ : A./ , , oX:X*X1 2 $ 2 2 2 1 1 1 1 1 1 1 1 1 2 1 r   1 1 1 < 3                   ",
"                              % 1 1 1 4 : 1 1 - > N.+XA a.B.;X- 1 $ 1 1 2 2 1 2 1 1 1 1 1 1 1 1 1 -       3 4 < 3                 ",
"                          6 % < 1 -       - 1 1 - H j.Z p.B / 2 % 1 2 1 2 2 1 1 > 2 1 1 1 2 1 > 1 4 %       1 4 4 -               ",
"                          < 4 4 %           4 1 : ; ~ u.p.V 4 - 1 1 - > 2 2 1 1 1 1 1 1 1 1 2 1 4 4 #           * 4 4 4           ",
"      z               % < 4 1 4             4 > > - ; i.i.$ < 4 1 # 1 1 2 2 2 1 1 2 1 2 1 1 ; - 1 - 1 q           - 1 4 % t   J P.",
"      Y.            3 4 4 %                 $ 2 $ 1 4 ; - 1 1 : ; 1 1 1 2 1 > 1 1 1 1 1 1 1 > 1 < # 1 -               $ : E (.T.K ",
"      <.8         : < 4 %                   1 2 2 < 1 % : 2 $ > : $ > 2 1 1 1 1 1 1 1 1 1 : - : 1 1 1 1 3               1 F b.&   ",
"      x R.7   0 : 4 4 $                     q 1 2 : : : 1 $ 2 2 1 2 1 1 2 2 1 1 1 1 2 1 1 1 1 1 1 1 1 1 3                   K     ",
"  f p +.T.^.b.OX4 < 4                       < 1 2 2 < * : 2 < 2 2 2 2 2 4 2 1 2 1 1 1 1 1 1 1 1 1 1 1 1 -                         ",
"^.F.@.@.H.P.^.f 3                           - 1 2 2 < # 2 2 2 2 2 2 2 2 2 2 1 1 1 1 1 2 1 1 1 4 1 1 1 1 1                         ",
"  F n.I {.Q.n.                              < 2 2 2 < * # 2 2 2 2 2 2 2 2 2 1 1 2 1 1 1 1 1 1 2 1 1 1 1 -                         ",
"~.5.$.R.5 P                                 < 4 - : $ 1 : 1 1 1 2 2 1 2 2 2 1 1 2 > > - - > $ $ # $ 3                             ",
"u /.+.  L.                                          1 : - - # # # $ O # $ $ # $ - > 1 1 1 1 1 1 3                                 ",
"      r ~.                                            - 1 1 2 1 1 # > < 1 > : % q - 2 1 1 1 1 -                                   ",
"                                                        > 1 2 1 1 -               1 4 1 1 1 1 @                                   ",
"                                                        - 1 1 1 4 3                 > 1 1 1 1 9                                   ",
"                                                          > 1 1 1                   9 1 1 1 1 S                                   ",
"                                                        r 4 1 1 :                     : 1 1 2 q                                   ",
"                                                          : 2 4 :                     - 1 1 4                                     ",
"                                                            < 1 :                     % 4 2 $                                     ",
"                                                            @ 1 2 $                   3 4 2 -                                     ",
"                                                            3 1 1 1                     $ 2 4 t                                   ",
"                                                              1 1 <                   3 1 2 $                                     ",
"                                                              $ 1 -                     % 4 :                                     ",
"                                                              4 1 4                     - 1 -                                     ",
"                                                              @ . @ $                   < O O                                     ",
"                                                            + X . . X 3                 . . j %                                   ",
"                                                        4 w + . X X X %               . o . @ < r @ 3                             ",
"                                                  + r @ X X . . X X X X               + . . o o o o o                             ",
"                                                  r S + X X X X X 4 $ q               * @ S 9 9 ^ ( S                             ",
"                                                                                                                                  ",
"                                                                                                                                  "
};
