/* XPM */
static char *result[] = {
/* columns rows colors chars-per-pixel */
"52 52 208 2 ",
"   c #030909",
".  c #090B14",
"X  c #120E1A",
"o  c #0C131D",
"O  c #0B1618",
"+  c #1A1112",
"@  c #121618",
"#  c #0D211E",
"$  c #26211E",
"%  c #0B0D23",
"&  c #061322",
"*  c #0C1424",
"=  c #0D1926",
"-  c #0C162A",
";  c #0D1C2D",
":  c #121623",
">  c #141A24",
",  c #1B1C23",
"<  c #12152A",
"1  c #131C2B",
"2  c #1A1E2B",
"3  c #191522",
"4  c #0D1E32",
"5  c #0D1631",
"6  c #121E32",
"7  c #141D3A",
"8  c #221F26",
"9  c #16212B",
"0  c #1C232B",
"q  c #172025",
"w  c #0E2034",
"e  c #0D2238",
"r  c #132133",
"t  c #192333",
"y  c #102138",
"u  c #23242B",
"i  c #28292F",
"p  c #252633",
"a  c #2C2631",
"s  c #252A32",
"d  c #2B2D32",
"f  c #2A2D39",
"g  c #252939",
"h  c #293137",
"j  c #323334",
"k  c #32343B",
"l  c #3A3E3E",
"z  c #312527",
"x  c #463D3D",
"c  c #44373F",
"v  c #663B3B",
"b  c #2B3241",
"n  c #3B3C43",
"m  c #353943",
"M  c #483C42",
"N  c #3E414D",
"B  c #44464D",
"V  c #46494E",
"C  c #4A4646",
"Z  c #564F4C",
"A  c #574848",
"S  c #4B4D53",
"D  c #474D51",
"F  c #4F5256",
"G  c #525355",
"H  c #53565C",
"J  c #59585A",
"K  c #694241",
"L  c #74514D",
"P  c #645C59",
"I  c #6B5B5D",
"U  c #635552",
"Y  c #75575B",
"T  c #4D5466",
"R  c #585B67",
"E  c #715F62",
"W  c #6A6364",
"Q  c #6C6469",
"!  c #77666A",
"~  c #736B6B",
"^  c #796C69",
"/  c #776263",
"(  c #78736B",
")  c #676B76",
"_  c #756E71",
"`  c #7A7578",
"'  c #836D5E",
"]  c #846769",
"[  c #936D6C",
"{  c #8F7C66",
"}  c #8A746C",
"|  c #886F71",
" . c #8B7476",
".. c #877B7A",
"X. c #8C7D7B",
"o. c #847777",
"O. c #937C7A",
"+. c #9B7A79",
"@. c #967373",
"#. c #A47D7F",
"$. c #85817C",
"%. c #8E847E",
"&. c #8E897E",
"*. c #94817E",
"=. c #9A907C",
"-. c #938369",
";. c #A68B7D",
":. c #A59877",
">. c #9C7D82",
",. c #888282",
"<. c #948584",
"1. c #9B8485",
"2. c #9B8C85",
"3. c #9B8D8C",
"4. c #93888C",
"5. c #99968D",
"6. c #888A90",
"7. c #948E90",
"8. c #9C9293",
"9. c #959392",
"0. c #A48182",
"q. c #A18B85",
"w. c #A58A8D",
"e. c #B88B88",
"r. c #A89687",
"t. c #B39687",
"y. c #A58D90",
"u. c #A29593",
"i. c #AB9294",
"p. c #A79999",
"a. c #B49593",
"s. c #BA9D9A",
"d. c #B79898",
"f. c #ADA58D",
"g. c #B5A68A",
"h. c #A4A29D",
"j. c #B2A19E",
"k. c #BDA39C",
"l. c #B4AB99",
"z. c #BDB59A",
"x. c #AFA3A3",
"c. c #AEA6A8",
"v. c #BBA1A2",
"b. c #B7A9A7",
"n. c #BBB2AA",
"m. c #BFBBBC",
"M. c #C2999C",
"N. c #C99798",
"B. c #D49D9F",
"V. c #C7B89D",
"C. c #C6A29C",
"Z. c #D09EA0",
"A. c #C3A5A4",
"S. c #CCA5A6",
"D. c #C4AAAC",
"F. c #CAAEAD",
"G. c #C8ABA5",
"H. c #D2ABA9",
"J. c #D4A7A4",
"K. c #C5B3AB",
"L. c #C0B9A0",
"P. c #D7B1AA",
"I. c #DDAFB4",
"U. c #C1BBB2",
"Y. c #C9B5B4",
"T. c #DAB4B3",
"R. c #DEBEBA",
"E. c #D6B8B6",
"W. c #E3ACAC",
"Q. c #E2B3AB",
"!. c #E4B5B4",
"~. c #EAB5B5",
"^. c #E5BBB6",
"/. c #EBB9B6",
"(. c #E4B4BA",
"). c #EDB6B9",
"_. c #E5BCBB",
"`. c #EBBABB",
"'. c #F0B6BA",
"]. c #F2BABC",
"[. c #E3ACB4",
"{. c #C6C0A9",
"}. c #D1C5A9",
"|. c #C4C2BE",
" X c #DFC3BD",
".X c #D4D3BE",
"XX c #E2C2BD",
"oX c #EAC3BD",
"OX c #DCBFC5",
"+X c #EBBBC1",
"@X c #CCC6C3",
"#X c #DBC6C7",
"$X c #DDD2CF",
"%X c #DDD9D6",
"&X c #E2C1C1",
"*X c #EAC2C1",
"=X c #E4CFCE",
"-X c #E7C6C6",
";X c #EFDBDA",
":X c #E6D5D6",
">X c #F0DEDD",
",X c #F7E2DC",
"<X c #EBE6E4",
"1X c #F1EAE8",
"2X c #F7F0EF",
"3X c #F5F4F2",
"4X c #F9F9F7",
"5X c None",
/* pixels */
"5X5X5X5X5X5X5X5X5X5X5X5X5X5X5X5X5X5X5X5X5X5X5X5X5X5X5X5X5X5X5X5X5X5X5X5X5X5X5X5X5X5X5X5X5X5X5X5X5X5X5X5X",
"5X5X5X5X5X5X5X5X5X5X5X5X5X5X5X5X5X5X5X5X5X5X5X5X5X5X5X5X5X5X5X5X5X5X5X5X5X5X5X5X5X5X5X5X5X5X5X5X5X5X5X5X",
"5X5X5X5X5X5X5X5X5X5X5X5X5X5X5X5X5X5X5X5X5X5X5X5X5X5X5X5X5X5X5X5X5X5X5X5X5X5X5X5X5X5X5X5X5X5X5X5X5X5X5X5X",
"5X5X5X5X5X5X5X5X5X5X5X5X5X5X5X5X5X5X5X5X5X5X5X5X5X5X5X5X5X5X5X5X5X5X5X5X5X5X5X5X5X5X5X5X5X5X5X5X5X5X5X5X",
"5X5X5X5X5X5X5X5X5X5X5X5X5X5X5X5X5X5X5X5X5X5X5X5X5X5X5X5X5X5X5X5X5X5X5X5X5X5X5X5X5X5X5X5X5X5X5X5X5X5X5X5X",
"5X5X5X5X5X5X5X5X5X5X5X5X5X5X5X5X5X5X5X5X5X5X5X5X5X5X5X5X5X5X5X5X5X5X5X5X5X5X5X5X5X5X5X5X5X5X5X5X5X5X5X5X",
"5X5X5X5X5X5X5X5X5X5X5X5X5X5X5X5X5X5X5X5X5X5X5X5X5X5X5X5X5X5X5X5X5X5X5X5X5X5X5X5X5X5X5X5X5X5X5X5X5X5X5X5X",
"5X5X5X5X5X5X5X5X5X5X5X5X5X5X5X5X5X5X5X5X5X5X5X5X$.$.@X%X|.9.p.h.( 5X5X5X5X5X5X5X5X5X5X5X5X5X5X5X5X5X5X5X",
"5X5X5X5X5X5X5X5X5X5X5X5X5X5X5X5X5X5X5X5X5X5X9.%X;X>X;X;X;X=XY.b.U.U.5.5X5X5X5X5X5X5X5X5X5X5X5X5X5X5X5X5X",
"5X5X5X5X5X5X5X5X5X5X5X5X5X5X5X5X5X5X5X5XX.K.Y.A.H.T._.`._._.`.,Xl.f.{..X5X5X5X5X5X5X5X5X5X5X5X5X5X5X5X5X",
"5X5X5X5X5X5X5X5X5X5X5X5X5X5X5X5X5X5XP p.F.F.P.~.).!.`.`.`./.`.P.t.:.:.g.n.5X5X5X5X5X5X5X5X5X5X5X5X5X5X5X",
"5X5X5X5X5X5X5X5X5X5X5X5X5X5X5X5X5Xu.Y.G.E.`.).~.~./.!.~./.!.`.t.V.V.g.:.}.Z 5X5X5X5X5X5X5X5X5X5X5X5X5X5X",
"5X5X5X5X5X5X5X5X5X5X5X5X5X5X5X5X2.A.a.O.X.^ v.E._.`.`.~.`.`.XXt.V.;.^ -.}.f.5X5X5X5X5X5X5X5X5X5X5X5X5X5X",
"5X5X5X5X5X5X5X5X5X5X5X5X5X5X5XW %.*.O.Y.1X3X#X| d.!.!.~.`.`.`.;.{ } ;.-.V.V.$.5X5X5X5X5X5X5X5X5X5X5X5X5X",
"5X5X5X5X5X5X5X5X5X5X5X5X5X5X5XW 1Xn.<.<X4X4X4X:X] @.`.`.~.`.].!.C.A.n.-.z.z.( 5X5X5X5X5X5X5X5X5X5X5X5X5X",
"5X5X5X5X5X5X5X5X5X5X5X5X5X5X5XQ @X^ b.2X4X4XU.v.a.P.`.).'.].].`.`.&X=.f.f.z.5X5X5X5X5X5X5X5X5X5X5X5X5X5X",
"5X5X5X5X5X5X5X5X5X5X5X5X5X5X5X5XI u.D.$X1X<X8.1.T._.`.).'.'.).B.N.d.>.q.=.*.5X5X5X5X5X5X5X5X5X5X5X5X5X5X",
"5X5X5X5X5X5X5X5X~ $.%.$.%.3.2.j.E.&X_.+.*.<. .M.*X`.).'.'.'.).~.Z.(.+Xd.a.$ 5X5X5X5X5X5X5X5X5X5X5X5X5X5X",
"5X5X5X5X5X5X5X_ $X-X XXXXXR.XXoXoX`.!.T.A.s.S.`.`.).).].'.`.)._.~.[.+X+Xj.u 0 J 5X5X5X5X5X5X5X5X5X5X5X5X",
"5X5X5X5X5X5X5X,.=XXX^.^.^.oX_.H.M.`.`.`.e.!.).].`.).).).'.`.`./.W.B.+X+X! 3 ; 9 0 q 0 R 5X5X5X5X5X5X5X5X",
"5X5X5X5X5X5X5X5X^ G.T.XXXXR.A.a.#.T._.`.N.J.].`.`.`.].~.~.]./.~.W.H.#Xu.> 9 w 4 r w 4 r o 5X5X5X5X5X5X5X",
"5X5X5X5X5X5X5X5X5X5X5X5X5X5X5X/ T.(.(.J.[ L a.T.!.~.W.~.].~./.`.F.D.M X 1 ; w 4 4 w 4 9 1 n 5X5X5X5X5X5X",
"5X5X5X5X5X5X5X5X5X5X5X5X5X5X5X5X5X5X5XI +.K v @.e.N.Q.]./.`.^.Y.` a > < r 7 w 4 6 w w r 1 : V 5X5X5X5X5X",
"5X5X5X5X5X5X5X5X5X5X5X5X5X5X5X5X5X5X5X5XE >.M.+XoX^.XX~._.*Xd.Q 1 1 r 6 4 w 4 w 4 4 4 4 1 < k 5X5X5X5X5X",
"5X5X5X5X5X5X5X5X5X5X5X5X5X5X5X5X5X5X5X5X5X5XJ / 2.s.D.b.y.E z 3 r ; 4 ; 4 ; ; 4 ; 4 w w w 1 1 i 5X5X5XJ ",
"5X5X` p.i.F.D. .U Z 5X5X5X5X5X5X5X5Xn l u h q @ + + >.M a g 2 1 = ; = = = = = = ; w e e w ; 1 ; m 5X5X5X",
"5X5X5Xo.+.] Y ] G.k.v.s.o.n k 2 = & = 1 : @ . 5X5Xd l 8 t ; ; & O o o o o & = = ; w e e e 4 4 4 9 1 5X5X",
"5XZ <.E.>.] E  .G.`.T._.OXp.8 .     . 5X5X5X5X) R f o 2 : m t 6 ; ; & & = = ; w w ; ; w ; ; r 6 4 b 5X5X",
"5X^ 4.j.d.y.y.4.i.;.#.OX| 5X5X5X5X5X5X5X5X6.R , 2 2 : s N T 5 5 6 6 4 6 6 4 4 4 w w w ; ; & 6 1 < s 5X5X",
"5X5X5XP v. .5X5XW x d.5X5X5X5X5X5X5XH ) g 0 * = > V S u p T r 6 r ; 5 r 6 6 6 e w ; - & ; 6 1 1 h 5X5X5X",
"5X5X5X8.u.M 5X5X5X7.5X5X,.5X5X5Xn.8.C , > > N u 5X5X5X, : < 6 5 & - 6 5 5 6 7 4 4 5 4 4 6 9 * s 5X5X5X5X",
"5X5X5X5X5X5X5X5X5X_ W c.X.1.O.2.G.k.i.C , 5X5X5X5X5X5X5Xk * - - < - - 7 6 7 7 5 6 4 4 7 < : , 5X5X5X5X5X",
"5X5X5X5X5X5X5X5X5X5X..! 3.q.S.E.^.^.r.5X5X5X5X5X5X5X5X5X5X> > 1 < 2 1 6 1 6 t 9 1 1 < - < , 5X5X5X5X5X5X",
"5X5X5X5X5X5X5X5X5X..8.c.<.A  .S.+X_.v.5X5X5X5X5X5X5X5X5X5Xl : = r 1 1 1 = > > 0 0 ) % < > l 5X5Xj O 5X5X",
"5X5X5X5X5X5X5X5X5XZ 5Xp.U.^ M >.a.w.I 5X5X5X5X5X5X5X5X5X5XN o o * > 3 H D 5X5X5X5Xu 2 < u 5X5XB 1 > @ 5X",
"5X5X5X5X5X5X5X5X5X5X5Xx.Y.5X1.i.~ 7.5X5X5X5X5X5X5X5X5X5X0 = ; 1 , k 5X5X5X5X5X5Xd 2 2 g k h d > ; r @ 5X",
"5X5X5X5X5X5X5X5X5X5X5XP 8.5X<.5X5X` _ 5X5X5X5X5X5X5X5Xs > ; w 0 5X5X5X5X5X5X5X5X3 < % < 1 2 2 < 9 # O 5X",
"5X5X5X5X5X5X5X5X5X5X5X5X5X5X3.5X5X5X_ 5X5X5X5X5X5X5XG > 0 ; & h 5X5X5X5X5X5X5X5X< < < < 2 : p 2 1 O   5X",
"5X5X5X5X5X5X5X5X5X5X5X5X5X5Xj 5X5X5X5X5X5X5X5X5X5X5X5Xu 1 > 1 9 > 5X5X5X5X5X5X5XM V S n 5X5X5X5X< r 5X5X",
"5X5X5X5X5X5X5X5X5X5X5X5X5X5X5X5X5X5X5X5X5X5X5X5X5X5X5X5X5X0 : 9 q . 5X5X5X5X5X5X5X5X5X5X5X5X5X, q @ 5X5X",
"5X5X5X5X5X5X5X5X5X5X5X5X5X5X5X5X5X5X5X5X5X5X5X5X5X5X5X5X5X5Xk 0 r ; 0 5X5X5X5X5X5X5X5X5X5X5Xi 3 5X5X5X5X",
"5X5X5X5X5X5X5X5X5X5X5X5X5X5X5X5X5X5X5X5X5X5X5X5X5X5X5X5X5X5X5X5Xr 9 t u 5X5X5X5X5X5X5X5X5X5X5X5X5X5X5X5X",
"5X5X5X5X5X5X5X5X5X5X5X5X5X5X5X5X5X5X5X5X5X5X5X5X5X5X5X5X5X5X5X5X5X9 1 1 s 5X5X5X5X5X5X5X5X5X5X5X5X5X5X5X",
"5X5X5X5X5X5X5X5X5X5X5X5X5X5X5X5X5X5X5X5X5X5X5X5X5XH G F G V D V R b * : 1 p s 5X5X5X5X5X5X5X5X5X5X5X5X5X",
"5X5X5X5X5X5X5X5X5X5X5X5X5X5X5X5X5X5X5X5X5X5X5X5X5X. X > : * % * < 1 1 > 0 > o i 5X5X5X5X5X5X5X5X5X5X5X5X",
"5X5X5X5X5X5X5X5X5X5X5X5X5X5X5X5X5X5X5X5X5X5X5X5X5X5X5X5X5X* : : o . 5X5X5X5X5X5X5X5X5X5X5X5X5X5X5X5X5X5X",
"5X5X5X5X5X5X5X5X5X5X5X5X5X5X5X5X5X5X5X5X5X5X5X5X5X5X5X5X5X5X5X5X5X5X5X5X5X5X5X5X5X5X5X5X5X5X5X5X5X5X5X5X",
"5X5X5X5X5X5X5X5X5X5X5X5X5X5X5X5X5X5X5X5X5X5X5X5X5X5X5X5X5X5X5X5X5X5X5X5X5X5X5X5X5X5X5X5X5X5X5X5X5X5X5X5X",
"5X5X5X5X5X5X5X5X5X5X5X5X5X5X5X5X5X5X5X5X5X5X5X5X5X5X5X5X5X5X5X5X5X5X5X5X5X5X5X5X5X5X5X5X5X5X5X5X5X5X5X5X",
"5X5X5X5X5X5X5X5X5X5X5X5X5X5X5X5X5X5X5X5X5X5X5X5X5X5X5X5X5X5X5X5X5X5X5X5X5X5X5X5X5X5X5X5X5X5X5X5X5X5X5X5X",
"5X5X5X5X5X5X5X5X5X5X5X5X5X5X5X5X5X5X5X5X5X5X5X5X5X5X5X5X5X5X5X5X5X5X5X5X5X5X5X5X5X5X5X5X5X5X5X5X5X5X5X5X",
"5X5X5X5X5X5X5X5X5X5X5X5X5X5X5X5X5X5X5X5X5X5X5X5X5X5X5X5X5X5X5X5X5X5X5X5X5X5X5X5X5X5X5X5X5X5X5X5X5X5X5X5X"
};
