/* XPM */
static char *_6d394374dd8423ec54ab343e85a8779rJLxbBwCB5cbYMXf[] = {
/* columns rows colors chars-per-pixel */
"65 65 227 2 ",
"   c None",
".  c #020303",
"X  c #02020C",
"o  c #08090B",
"O  c #160807",
"+  c #030412",
"@  c #050A14",
"#  c #0A0B14",
"$  c #050C1C",
"%  c #0B0D1B",
"&  c #140D15",
"*  c #06121C",
"=  c #0C131C",
"-  c #0B1718",
";  c #12131C",
":  c #16171A",
">  c #15100E",
",  c #251113",
"<  c #1B221C",
"1  c #28211E",
"2  c #2D2208",
"3  c #0C0E22",
"4  c #040F21",
"5  c #051323",
"6  c #0C1523",
"7  c #0C1924",
"8  c #0B162B",
"9  c #0C1B2C",
"0  c #121623",
"q  c #131A25",
"w  c #1A1C25",
"e  c #14152A",
"r  c #131C2C",
"t  c #1A1D2A",
"y  c #1A1621",
"u  c #0D1E32",
"i  c #0E1632",
"p  c #121D33",
"a  c #1A1D33",
"s  c #131D3A",
"d  c #241A25",
"f  c #14212C",
"g  c #1B222C",
"h  c #192125",
"j  c #0E2135",
"k  c #0E2339",
"l  c #132234",
"z  c #1B2433",
"x  c #122339",
"c  c #1B283A",
"v  c #22232D",
"b  c #29292A",
"n  c #382826",
"m  c #36312E",
"M  c #212532",
"N  c #252B32",
"B  c #23293A",
"V  c #2C2D37",
"C  c #2E3238",
"Z  c #363437",
"A  c #2C2E30",
"S  c #48322B",
"D  c #443A38",
"F  c #513333",
"G  c #643536",
"H  c #4E4734",
"J  c #645337",
"K  c #273344",
"L  c #363943",
"P  c #232F43",
"I  c #4E3F46",
"U  c #3E434A",
"Y  c #4A4645",
"T  c #5B4443",
"R  c #574A4A",
"E  c #4E525C",
"W  c #585459",
"Q  c #4C4A52",
"!  c #654B4B",
"~  c #754F4C",
"^  c #675C46",
"/  c #695758",
"(  c #745658",
")  c #6A504F",
"_  c #6E685E",
"`  c #7A6158",
"'  c #66614E",
"]  c #585A67",
"[  c #4D5266",
"{  c #7A5D61",
"}  c #5A6374",
"|  c #5D646B",
" . c #666669",
".. c #7B6666",
"X. c #796868",
"o. c #78726F",
"O. c #646974",
"+. c #7A7B7A",
"@. c #787577",
"#. c #6F7576",
"$. c #855953",
"%. c #82645E",
"&. c #8D6F5A",
"*. c #876969",
"=. c #936E72",
"-. c #857674",
";. c #857B7A",
":. c #897A77",
">. c #937D7C",
",. c #967574",
"<. c #91776B",
"1. c #AA7B7C",
"2. c #89837A",
"3. c #99867B",
"4. c #9A9073",
"5. c #A58B79",
"6. c #A7957D",
"7. c #717787",
"8. c #997D81",
"9. c #877E80",
"0. c #A27F80",
"q. c #7C8285",
"w. c #858687",
"e. c #9A8D8D",
"r. c #988785",
"t. c #99938F",
"y. c #888A91",
"u. c #8C949B",
"i. c #989796",
"p. c #958F92",
"a. c #A78A86",
"s. c #B78C86",
"d. c #A9928B",
"f. c #A49D9B",
"g. c #AA9896",
"h. c #B79898",
"j. c #AEA58D",
"k. c #ACA499",
"l. c #B7A399",
"z. c #B9AE90",
"x. c #B29CA0",
"c. c #9CA1A4",
"v. c #99A3A9",
"b. c #ADA3A0",
"n. c #A0A1A5",
"m. c #B5A6A2",
"M. c #B8A8A9",
"N. c #B6B3AE",
"B. c #A7ACB4",
"V. c #BBBCBB",
"C. c #B6B4B2",
"Z. c #AEB7B6",
"A. c #C99D9C",
"S. c #C18E97",
"D. c #C4A79A",
"F. c #C6BA99",
"G. c #C49EA0",
"H. c #C4ABAD",
"J. c #C4A8A5",
"K. c #D5ADAA",
"L. c #D8A6A6",
"P. c #C9B9A5",
"I. c #D3B1AF",
"U. c #DDB4AD",
"Y. c #C4AEB3",
"T. c #C4B4B6",
"R. c #CAB8B8",
"E. c #D4B4B4",
"W. c #DBB4B3",
"Q. c #DCBAB3",
"!. c #D4BDBB",
"~. c #DAB9B9",
"^. c #D0AEB4",
"/. c #E2AEA3",
"(. c #E7B2AC",
"). c #E3AFB3",
"_. c #E5B5B3",
"`. c #EAB5B5",
"'. c #E3BAB6",
"]. c #E9B8B5",
"[. c #ECB6B9",
"{. c #E4BBBA",
"}. c #ECBBBB",
"|. c #E4B5BD",
" X c #F1B6BB",
".X c #F2BBBD",
"XX c #CCC2A5",
"oX c #CFCAA9",
"OX c #D2C6A9",
"+X c #C8C3BA",
"@X c #D8C6BB",
"#X c #E5C3BD",
"$X c #ECC1BD",
"%X c #F3C2BC",
"&X c #BABDC6",
"*X c #DCBDC3",
"=X c #E8BDC2",
"-X c #F3BDC3",
";X c #F7BBC8",
":X c #C9C6C7",
">X c #DBC4C4",
",X c #D8C9C7",
"<X c #D9D4C5",
"1X c #DDD3D3",
"2X c #D8D7D9",
"3X c #D1CAD3",
"4X c #E4C4C2",
"5X c #ECC2C1",
"6X c #E4C8C4",
"7X c #E8CACA",
"8X c #F4C4C3",
"9X c #F6C8C7",
"0X c #E5DFCA",
"qX c #E8D8D8",
"wX c #F7D4D5",
"eX c #EFCFD3",
"rX c #E4E2D7",
"tX c #F6E3DC",
"yX c #E5E2C9",
"uX c #F9EAE8",
"iX c #F8F0EC",
"pX c #FBEDF1",
"aX c #F3F5F1",
"sX c #FCF4F3",
"dX c #FCFBFB",
"fX c #F8FAF9",
"gX c #EBE5E4",
/* pixels */
"                                                                                                                                  ",
"                                                                                                                                  ",
"                                                                                                                                  ",
"                                                                                                                                  ",
"                                                                                                                                  ",
"                                                                                                                                  ",
"                                                                                                                                  ",
"                                                                                                                                  ",
"                                                                N.u.+.@.+.+.o.V.                                                  ",
"                                                            f.w.N.1XrXrXw.f.k.t.w.                                                ",
"                                                      Z +.dXsXsXsXiXiXdXsX!.3.3.i.+X<X_                                           ",
"                                                  o.b.m.h.d.W.4X{.}.5XW.'.|.wXtX+X+XXXyXrX                                        ",
"                                                g.R.7X4X#X'.L.L._.}.}.].=X].].tX6.4.XX4.yX2.                                      ",
"                                            f.l.d.d.s.s.L._.%X`.%X X]..X_._. X6.F.J z.oXH yX2.                                    ",
"                                        :Xr.>X>Xd.K.5X'.8X(.}.`.`.`.`.}._.].}.` P.5.&.F.4.XX4.                                    ",
"                                        :.J.4X..,.-._ r.E.=X{.{.}.}.`.$X}.'.5X6.OX<.4.` &.F.XX^                                   ",
"                                      :Xd.T 7X*.m.,XiXqXW J..X].8X).`.8X5X_.[.P.P., <.@XJ oXoX'                                   ",
"                                        gXiX! ..iXfXaXsXpXH.F ~ }.}.[.[.}.}.}.5.D.%.l.P.2 F.XXk.                                  ",
"                                      f.iX,XR ;.sXaXfXfXdXpX%.a.K.}.[.`..X.X X.XK.I.,X6.j.oX4.P.                                  ",
"                                      i.:Xo.w.tXaXfXfXfXf.pXG.I.8X|. X X.X X`. X].W.#Xo.j.z.j.:.                                  ",
"                                        1 / >XM.7XaXaXrXr.>.E.'.}.}.[.[. X X}.1.-X|.=.! OXH 0X                                    ",
"                     .m Y Z H R R P.Y M.h.#X~.h.>.m.b.;.8.E.5X{.].[.[. X X X[.L.1.S.=X~.,.@X_                                     ",
"                    t.uXuXiXtX,X@X!.7X@X#XQ.9X#X,.! :.d.=.G.-X].`. X.X X X[.}.}.K.}.;X;X9Xa.m :                                   ",
"                  ;.gX@XU.'.#X$X{.'.'.5X9X.X]..X}.A.eX4X8X;X[.[.[. X X X}.}.].'._.-X;X;X[.7X> z 9 . o +.                          ",
"                  p.1X$X#X#X'.'.#X'.Q.W.=.}.}.8X}.*. X)..X.X}.=X[.[. X.X X].}.%X/./..X=X7XI ; l 9 f g = 7 g E                     ",
"                    f.Q.U.'.#X#X4XE.7XI.G.,.=X=X=XL.L.;X X X}.}..X-X X`. X X]./.(.s.'.>X*X% 9 9 x j j u l l c @                   ",
"                          r.h.h.>.S n !.=X|.).5X=X5XK.A.#X@X`.[..X.X.X X X].].U.~.0.>XI % a r i k j p j u l 7 z w                 ",
"                                          =.0.~ h.S.~ J ~ =.$.&.A.`. X X].}.$X4XT.M.d y t a 9 k j r u j u u l l 0 y.              ",
"                                                :.0.F G G wX$X%X]._.]._.$X$XK.C.@.@ 3 e 9 P 9 c 5 u p j u u k 8 * @               ",
"                                                    ! ~.wX[.#X#X#X'.}.|.5X~.a.Z q 8 p a u u j j j l l 9 u u u u q h q.Z.      3X  ",
"                                                      9.n ..l.I.#XeX=XH.( n , a j 9 u l j f u 9 8 f 9 j u u j u 9 f q Z c.      i.",
"    o.W M.Y.*X7XR X.                                i.h y v O O O / & Z @.: t r l f 9 7 5 5 9 9 j r r 9 j u j j u 9 f 7 v.y.      ",
"    A I ! eXa.$.^.^.g.S n n m +.1X&X#.L 6 + + X 0 @ q z q N . & o 3X; t e 5 9 f 7 * * 9 f 7 7 5 * 7 9 u j k k j j 9 j 5 c X  .    ",
"      X.M.*X*Xh.h.h.4XQ.U.~.*X*X .& w z 7 7 7 f $ # =       y.&X+ y y e q 4 $ $ # @ = - = 7 5 * 5 5 7 u j k k j j j p x l B z     ",
"    I ^.*X8.{ I { X.h.[.$XW.|.~.>XQ & - # . . b           :XO.@ z 0 M 6 $ } x l p p 9 $ 5 7 7 f u k j u 9 9 j 9 7 u k l p $ |     ",
"  C.*XG.I pXT wXqX>XR.9X5.,.7XH.                    fX2XU % z z v y X L L } p 9 u l u u f u 9 f u u u j j j f u 5 7 j 9 P E       ",
"        gXe.Y.-.f.  T.  r.>X                  &XB.V c e 6 7 = - Q Z ; % 7.c s u x a 8 p s p p p u j s u 9 8 5 8 l r a e X         ",
"        S 1Xe.          -.n.              Z.n.w % r q r 5 C ; O.   .v % [ i c p r 9 8 u u s u s l j u u 8 8 8 i l r r y w.        ",
"        X.p..         p.@.  gXm <X    iX@XD ,Xo v ; @ E i.            t $ p i 8 4 $ a a 8 8 i s x 9 9 u u s s a B 6 # N           ",
"                      W / 3XdXo.m.I.a.h.Q.#Xl.uXR                     ] % e s 9 g 9 8 p s i s s s p P x i x x 3 # z E             ",
"                        R o.R >.{ a.~.W._.(.#XS                         w % r q 8 z p a z 9 e a a 7 6 p a e 3 e t :               ",
"                      ;.M.T.-./ Y , ( =X).}.#X..                        h 7 0 z a q 7 z B r 6 * 6 h = @ e i e M h :X    B.. o     ",
"                      ;.9.:XX.k.R...g.n =X=X~.o.                        +.= # 7 z 8 8 + @ @ X : | Z.  &X3 z B # C   y.  h < o     ",
"                      >     e.:X-.  R H.a.{ M.                          U - 7 q 0 t ; N | #.          + t e % V       O.f f h m   ",
"                            f.R...qXg...  M.Q                         @ 7 * j - # o                 w.g t B [ Q . # ; = 9 j j <   ",
"                            b p.f.R 8.    A :X                    E q 0 c 5 j z                   C + M 3 3 3 a $ N e a z - N     ",
"                            +.H   : e.      +.Y                   t h 7 7 9 @ Z                   . e 0 e e a a z y q + f - -     ",
"                                T.1 T.f.                          C v t l 5 K @ -                 X 6 t + 3 % e + ]   q.7 9 -     ",
"                                                                      g 0 q f f - :                                     c 9 t     ",
"                                                                        N - = q f f .                               Y & w :       ",
"                                                                            N * l c q C                             & ; <         ",
"                                                                                * c f z #                         v               ",
"                                                                                f 5 f q q L                                       ",
"                                                                                  c 8 r z o u.                                    ",
"                                                            i.V.i.c.c.c.u.u.u.7.} @ 6 6 + q 0 % O.                                ",
"                                                              + = e y 0 0 6 3 6 e q q t f N g = + L                               ",
"                                                                  @ 3 6 e t a e q M q % o = w -                                   ",
"                                                                            +                                                     ",
"                                                                                                                                  ",
"                                                                                                                                  ",
"                                                                                                                                  ",
"                                                                                                                                  ",
"                                                                                                                                  ",
"                                                                                                                                  ",
"                                                                                                                                  "
};
