/* XPM */
static char *_082ca9fc7e7450789df4f760eae4efeULGHNi6RwgM2fk5I[] = {
/* columns rows colors chars-per-pixel */
"65 65 227 2 ",
"   c None",
".  c #020303",
"X  c #02020C",
"o  c #08090B",
"O  c #160807",
"+  c #030412",
"@  c #050A14",
"#  c #0A0B14",
"$  c #050C1C",
"%  c #0B0D1B",
"&  c #140D15",
"*  c #06121C",
"=  c #0C131C",
"-  c #0B1718",
";  c #12131C",
":  c #16171A",
">  c #15100E",
",  c #251113",
"<  c #1B221C",
"1  c #28211E",
"2  c #2D2208",
"3  c #0C0E22",
"4  c #040F21",
"5  c #051323",
"6  c #0C1523",
"7  c #0C1924",
"8  c #0B162B",
"9  c #0C1B2C",
"0  c #121623",
"q  c #131A25",
"w  c #1A1C25",
"e  c #14152A",
"r  c #131C2C",
"t  c #1A1D2A",
"y  c #1A1621",
"u  c #0D1E32",
"i  c #0E1632",
"p  c #121D33",
"a  c #1A1D33",
"s  c #131D3A",
"d  c #241A25",
"f  c #14212C",
"g  c #1B222C",
"h  c #192125",
"j  c #0E2135",
"k  c #0E2339",
"l  c #132234",
"z  c #1B2433",
"x  c #122339",
"c  c #1B283A",
"v  c #22232D",
"b  c #29292A",
"n  c #382826",
"m  c #36312E",
"M  c #212532",
"N  c #252B32",
"B  c #23293A",
"V  c #2C2D37",
"C  c #2E3238",
"Z  c #363437",
"A  c #2C2E30",
"S  c #48322B",
"D  c #443A38",
"F  c #513333",
"G  c #643536",
"H  c #4E4734",
"J  c #645337",
"K  c #273344",
"L  c #363943",
"P  c #232F43",
"I  c #4E3F46",
"U  c #3E434A",
"Y  c #4A4645",
"T  c #5B4443",
"R  c #574A4A",
"E  c #4E525C",
"W  c #585459",
"Q  c #4C4A52",
"!  c #654B4B",
"~  c #754F4C",
"^  c #675C46",
"/  c #695758",
"(  c #745658",
")  c #6A504F",
"_  c #6E685E",
"`  c #7A6158",
"'  c #66614E",
"]  c #585A67",
"[  c #4D5266",
"{  c #7A5D61",
"}  c #5A6374",
"|  c #5D646B",
" . c #666669",
".. c #7B6666",
"X. c #796868",
"o. c #78726F",
"O. c #646974",
"+. c #7A7B7A",
"@. c #787577",
"#. c #6F7576",
"$. c #855953",
"%. c #82645E",
"&. c #8D6F5A",
"*. c #876969",
"=. c #936E72",
"-. c #857674",
";. c #857B7A",
":. c #897A77",
">. c #937D7C",
",. c #967574",
"<. c #91776B",
"1. c #AA7B7C",
"2. c #89837A",
"3. c #99867B",
"4. c #9A9073",
"5. c #A58B79",
"6. c #A7957D",
"7. c #717787",
"8. c #997D81",
"9. c #877E80",
"0. c #A27F80",
"q. c #7C8285",
"w. c #858687",
"e. c #9A8D8D",
"r. c #988785",
"t. c #99938F",
"y. c #888A91",
"u. c #8C949B",
"i. c #989796",
"p. c #958F92",
"a. c #A78A86",
"s. c #B78C86",
"d. c #A9928B",
"f. c #A49D9B",
"g. c #AA9896",
"h. c #B79898",
"j. c #AEA58D",
"k. c #ACA499",
"l. c #B7A399",
"z. c #B9AE90",
"x. c #B29CA0",
"c. c #9CA1A4",
"v. c #99A3A9",
"b. c #ADA3A0",
"n. c #A0A1A5",
"m. c #B5A6A2",
"M. c #B8A8A9",
"N. c #B6B3AE",
"B. c #A7ACB4",
"V. c #BBBCBB",
"C. c #B6B4B2",
"Z. c #AEB7B6",
"A. c #C99D9C",
"S. c #C18E97",
"D. c #C4A79A",
"F. c #C6BA99",
"G. c #C49EA0",
"H. c #C4ABAD",
"J. c #C4A8A5",
"K. c #D5ADAA",
"L. c #D8A6A6",
"P. c #C9B9A5",
"I. c #D3B1AF",
"U. c #DDB4AD",
"Y. c #C4AEB3",
"T. c #C4B4B6",
"R. c #CAB8B8",
"E. c #D4B4B4",
"W. c #DBB4B3",
"Q. c #DCBAB3",
"!. c #D4BDBB",
"~. c #DAB9B9",
"^. c #D0AEB4",
"/. c #E2AEA3",
"(. c #E7B2AC",
"). c #E3AFB3",
"_. c #E5B5B3",
"`. c #EAB5B5",
"'. c #E3BAB6",
"]. c #E9B8B5",
"[. c #ECB6B9",
"{. c #E4BBBA",
"}. c #ECBBBB",
"|. c #E4B5BD",
" X c #F1B6BB",
".X c #F2BBBD",
"XX c #CCC2A5",
"oX c #CFCAA9",
"OX c #D2C6A9",
"+X c #C8C3BA",
"@X c #D8C6BB",
"#X c #E5C3BD",
"$X c #ECC1BD",
"%X c #F3C2BC",
"&X c #BABDC6",
"*X c #DCBDC3",
"=X c #E8BDC2",
"-X c #F3BDC3",
";X c #F7BBC8",
":X c #C9C6C7",
">X c #DBC4C4",
",X c #D8C9C7",
"<X c #D9D4C5",
"1X c #DDD3D3",
"2X c #D8D7D9",
"3X c #D1CAD3",
"4X c #E4C4C2",
"5X c #ECC2C1",
"6X c #E4C8C4",
"7X c #E8CACA",
"8X c #F4C4C3",
"9X c #F6C8C7",
"0X c #E5DFCA",
"qX c #E8D8D8",
"wX c #F7D4D5",
"eX c #EFCFD3",
"rX c #E4E2D7",
"tX c #F6E3DC",
"yX c #E5E2C9",
"uX c #F9EAE8",
"iX c #F8F0EC",
"pX c #FBEDF1",
"aX c #F3F5F1",
"sX c #FCF4F3",
"dX c #FCFBFB",
"fX c #F8FAF9",
"gX c #EBE5E4",
/* pixels */
"                                                                                                                                  ",
"                                                                                                                                  ",
"                                                                                                                                  ",
"                                                                                                                                  ",
"                                                                                                                                  ",
"                                                                                                                                  ",
"                                                                                                                                  ",
"                                                                                                                                  ",
"                                                  V.#.@.+.+.q.p.Z.                                                                ",
"                                                w.t.k.k.w.2XrX0XN.2.i.                                                            ",
"                                          _ <X+Xf.2.>.E.sXsXsXpXsXsXsXdX+.C                                                       ",
"                                        rX0XP.+XoXtXwX{.{.W.5X{.{.5XW.d.h.m.m.o.                                                  ",
"                                      2.yX6.XX4.d.tX].].}.}.}.}._.L.A._.6X4X7XR.g.                                                ",
"                                    2.0XH F.z.J z.a.]._._.%X]..X.X`.8X_.L.s.s.d.d.m.f.                                            ",
"                                    4.F.4.F.&.4.P.` }.]._.}.`.`._.].].(.8X_.8XK.g.,X>Xe.:X                                        ",
"                                  ^ XXF.4.~ 5.4.OX6.5X'.5X}.`.[.}.{.{.5XE.3._ -.,.` 6XJ.-.                                        ",
"                                  ' oXoXJ @X<.> P.P.[._.5X8X_.).8X}.}.J.! qXaX,Xm.*.6XT d.:X                                      ",
"                                  k.XXF.2 P.D.%.D.5.}.}..X[.}.}.}.~ F H.aXsXaXfXaXX.! uXgX                                        ",
"                                  P.4.oXj.6.6XI.K.%X.X.X.X`.[.}.K.a.*.pXdXdXaXaXsX;.R 1XsXi.                                      ",
"                                  2.j.z.j.X.>XW.[.[.`. X X X[.[.9XK.h.pXn.fXfXdXsXqX8.o.+Xf.                                      ",
"                                    0XH XX) =.=X-X1. X X X X}.].}.|.I.>.r.2XaXaXqXM.>X/ 1                                         ",
"                                    _ @X,.~.=Xh.1.L. X X X X X X}.{.5XE.8.-.m.M.>.h.E.6Xg.N.T N.R R D D Y Z  .                    ",
"                                  ; m a.8X;X;X[.U.].}.[. X X.X X`.{.8XL.=.d.:.T ,.{.9XQ.#X>X6X@X@X>XtXiXuXuXt.                    ",
"                          +.. . 9 v & =X=X;X;X;X'.'.].}.`. X X X`.`.[.-X8X{.wXD.}..X`.%X9X$X'.{.{.#X#XQ.U.#XtX+.                  ",
"                    E z 7 6 g f 9 f ; Y 7X=X;XL./.%X].].`..X X X[.=X}. X X).-X%.}.8X|.{.,.W._.|.#X{.'.'.$X#X1Xi.                  ",
"                  @ c l u u j p x u r % :X4X|.s.(./.]..X X`. X.X=X[.}.[..X8XL.L.=X-X=X,.A.E.6XE.#X#X#XQ.U.W.x.                    ",
"                w g 7 l u j u u k i p t & I 4X>.'.U.].]. X.X.X-X-X`.`._.#Xh.L.-X=X-X).`.|.!.n S 3.h.g.a.                          ",
"              y.0 z l u j u f j j x 9 a e y d M.T.>X%X.X`. X`.`.A.&.$.=.~ ! ~ G.h.) 0.=.                                          ",
"              + * 6 k u u u u r 5 x 9 P 8 q 0 # @.C.K.{.$X].}.].].%X%XwXG G F 1.:.                                                ",
"  3X      Z.q.q r 9 u u u u l l k k j u u l r 8 e L a.~.4X'.}._.#X#X5X{.wX|.!                                                     ",
"i.      c.Z h f 9 u j u u u 9 r 9 9 9 j l j 9 9 i a , n / H.=XeX#XR.l.X.n 9.                                                      ",
"      y.v.q f 9 u j j j k u 9 r l 9 9 7 6 7 9 l p t h y @.m & / O O O g : h i.                                X.R 7X>XH.M.W o.    ",
"     .+ B 5 l r j j k k j u 9 9 * 5 7 8 q 7 * * 7 f 9 5 t y ; 3Xo > X N q g h @ 0 X + @ 6 L #.&X1X9.Z n n S g.Y.^.%.0.wX! I V     ",
"    z c l x u j j j j k j j 5 5 5 5 = 7 7 = = * # $ $ 4 8 t e y # V.y.      = @ % f 5 7 6 v w &  .E.~.~.Q.Q.#Xh.h.G.=X^.M.X.      ",
"    | $ i l l u 7 9 j 9 9 j j k f 9 7 7 5 * r u j l k } % 0 M 0 g # O.:X          b . . # - & Q ,X~.|._.}._.h...{ I ( 0.4XY.R     ",
"      E P 9 p 9 5 9 f u u j u u u f 9 f 9 p 9 l u 9 s } L L X e M a z % U 2XfX                    H.7X=.a.9X!.,X1XeXI uXF Y.>XC.  ",
"        + e p r j 7 5 9 9 u k k u s l l l p 8 s l u s c 7.% ; C Q - = 9 5 r M V B.:X                  >Xr.  T.  g.-.Y.e.gX        ",
"        w.y q p f u 8 8 9 i u k l u s u p i 8 9 r p c p [ # v  .  O.; C 6 r 6 r % : c.C.              f.;.          e.qXD         ",
"          N @ 6 B s s u s i 9 9 s s i 8 8 p p $ 4 8 i p $ t             i.E # = v o ,XD @XiX    1Xm gX  @.p.        . e. .        ",
"            W M @ 5 s c 8 x P l p s s i a p 8 r a r i e ; ]                     R uXm.#XQ.g.d.E.m.-.dX3XW /                       ",
"              : w 0 3 8 a p 6 q a a r 8 z l p z 5 r r % q                         S #XU.{.W.E.a.( :.R o.R                         ",
"    o . B.    :Xw M e p e + - f 6 3 = r B z e q a z 0 q v                         ..#X}.).=X( , T / -.T.C.9.                      ",
"    > : g   y.  C # B B % &X  Z.| q . $ + + 6 6 a 7 @ - +.                        X.~.8X=Xn d...R.n.X.:X:.;.                      ",
"  b h 9 f #.      Z % t t +           #. .N 0 t q 7 7 - U                           M.{ 0.Y.R   -.,Xe.    &                       ",
"  < k k u ; - # X Q [ B a t w.                o # - j 5 7 +                         R N.  ..h.qXX.!.f.                            ",
"    N - z r q N % e 3 3 % M + C                   g l 5 z 7 w E                     :XA     2.R f.t.b                             ",
"    - - f + e 0 a a a e e e e X                   L + 9 7 7 t h                   Y +.      r.,   H @.                            ",
"    = 8 5 9.  | X e % 3 + t % X                 - @ K 5 z h v C                           f.V.v V.                                ",
"    g r z                                     - - f f q 0 g                                                                       ",
"      < q & Y                               . h f f = - V                                                                         ",
"        < ; #                             C q c l * v                                                                             ",
"              b                         # M f c *                                                                                 ",
"                                      L t r p 5 g                                                                                 ",
"                                    u.+ z q 8 c                                                                                   ",
"                                O.- q q + 3 6 # } 7.u.u.u.c.c.c.i.V.c.                                                            ",
"                              L + = h z g t q q r 6 % 6 0 0 0 t = X                                                               ",
"                                  = h = o % q M q 0 a a e 6 3 +                                                                   ",
"                                                    X                                                                             ",
"                                                                                                                                  ",
"                                                                                                                                  ",
"                                                                                                                                  ",
"                                                                                                                                  ",
"                                                                                                                                  ",
"                                                                                                                                  ",
"                                                                                                                                  "
};
