/* XPM */
static char *result[] = {
/* columns rows colors chars-per-pixel */
"52 52 44 1 ",
"  c #C68C35",
". c #C98E34",
"X c #C48E3B",
"o c #C98E39",
"O c #D28F38",
"+ c #CC9335",
"@ c #C6923C",
"# c #CC953D",
"$ c #CD9A3E",
"% c #D49534",
"& c #D59A36",
"* c #D0973D",
"= c #D8903A",
"- c #D39A3D",
"; c #D99C3A",
": c #D3A13E",
"> c #D9A03C",
", c #C69443",
"< c #CB9442",
"1 c #CE9B43",
"2 c #CE9D4A",
"3 c #D29442",
"4 c #D49D43",
"5 c #D89F44",
"6 c #D19E4A",
"7 c #CF9F55",
"8 c #D39F51",
"9 c #CFA04B",
"0 c #D6A144",
"q c #D8A347",
"w c #D4A14A",
"e c #DAA549",
"r c #DDA84C",
"t c #D3A354",
"y c #D9A555",
"u c #D6A856",
"i c #DBA957",
"p c #D5A55A",
"a c #DAA758",
"s c #D6A95C",
"d c #D9A95D",
"f c #E0AD5E",
"g c #D6AC61",
"h c #DAAD62",
/* pixels */
"oO%#+#+++*&+++.++%.+.+..   o  oX<4888366y8yy87787f88",
"@o###o.#-*##+#++#*#+#o o     oXX@@278,,877tp7pp778p7",
"@O<##*-*---####*-#*##ooo ooooo @,@@,8<<t87ptpppphp8p",
"#oo3o#**#-3---****#%*o## o#oooo<<@@@<88p7pptpppp7ph7",
"#*##****-**--3-**3**#<$@1<,,<<32727pppp7p7dpdpppppp7",
"<3#-#*433--34-*3---*$#<#@w88y88ptp7upp7p7h7dppppdddp",
"343-*34;--;44---34-####@#w8p7ggd7pppppp77h77ppddddpd",
"43-----3-334--**--#-#1641<8pp7g82pgppppph77hdpddpdph",
"$34---3-430-;**-$--1<<<3<<<tgddpppupsspph7pppppphphd",
"-1$*3--4;3--54344$4-e66t1<<pppypipptppppppp7phphphdd",
":3-*---43;44444-4--$38w41<<122tppppppppppp7dphpphhph",
"---44-4-04044000-04-*6u21<#@<#12ttpstpp77hgf7hpgpphp",
"0-4454000q0000000-00$4ut1#$#<#$,2,,8ydp77h7fdsgdppgh",
"0:5;444eqq0-0000000$369t#1##1###3#<<<67afa7hpddhhpgh",
"1:045400qeqq000q000$412t#1413####*##3<,78hh7sdddhphg",
"0q:04;-000qeqe0q000:441e03114<113#<#@#38hh7fsufdhphh",
"05:00qq00e0qqq0q00006446631$13$1<####@<8dppdsudddtts",
"0000:000q0wrrqrr0e004044-1413141$#1##$<2pgdyssdhp622",
"q00000q0q0eerqreee000$4144413<$#$10$@$<iddpysuus7126",
"0e00000000qqqrqqqe00000--1-41*11111<<112pdddfsdu9229",
"0q4044000rrqrqere000e0400$0441133$11<$<2idsssduhd912",
":q45040000rreeeeeeeeee40004444011101146wsdsuddsfdw26",
"454444000q00eereerreqqq4-04--04$$4:91$112tusgggghdu2",
"0544440000q00qeeereqqq00:00:440$-$09119$<19uggshhit9",
"004;5300q00q0r0ereeqqqq00000-00-0$01919$$119i61uu992",
"0440550000000qe0reereqeq0000q-400-01-911:$4<222229t9",
";>000-0000090qqeeeqerqq0:::0000-0$010014141$122219w9",
"e500-00000-00eeerereqqq0000q00000-00:-44412141w2w999",
"q:00000000000qqeeeeqrrqqq00e0qqqqw000556441w12122999",
">00:-0qqq00000qqqqeqqeeeeeqqqqqqqqq0455ew69wt2249999",
"qq4090qq000:0:qqqqeeerqreqqwqqqqqqqqq0w6q20udi19$999",
"::00:q0erq0:90qqeeeeeeeeqreeqqeqqqqqqqwq4401wd9$9199",
"::000r0e0eq04000qeeeeeee0eeqee00e0qee0q65596wdi1092w",
"q>0qe0re0eq000$4000eeeeeeeqqeqe0000ee0e5644w1ii19w91",
"q0000eqe00e00000400eeeee000eeqee000ee0e666411uiw1962",
">:000rre0eq000000e0e0q0e0eqq0e0ee0e0046qe54212iw02ww",
"e>0qqeeeqq0q0400004e0ee0eqee0ee0eeee0050009911ww09w6",
">qqqeqrrq00000000000e00e0qee00e0e0ee040000-141091229",
"e:q000req0q0000000e0e000e000e0eee0eee0ee009019999w20",
">q>0qer0eqq000000000e000q:00ee00eere0ee0000900104699",
"q000qq000-00044404000000e0eeereeqqew0e0000000w909419",
":-:0qe05q0000455;4000000e0eeee00qqeqqe00qq0q0w094901",
"::00qq0500qe44;5e40000000000e00eqqqq0e0qqqqq00999461",
"0:35005e000045554000000000e00e000qqqqqreqqqeq00-4w42",
">:4455504504545540000ee0000e0000q0400000qq0001000464",
">-445400eq43-455400000ee0040004000000100qe0000-04444",
">0;4;5e50;5=4445;40000e0400404-444100400000000004646",
";--4454e44555;55q00400000444-004454045000-0000$$44q4",
";44-4445555344555404400-4430044444-3-440400000:00441",
";-4--45;355554554504000044000005444404qe004q04004443",
"-**345534445555446554405045000q555440-45505041916$4$",
"%=%%&&;&&;;=;;;;;;&:*&;;;;:&;;-:;;;400;;:;:;;;%>;4--"
};
