/* XPM */
static char *wall_2[] = {
/* columns rows colors chars-per-pixel */
"65 65 90 1 ",
"  c #C68C2F",
". c #CA8F2F",
"X c #CE912B",
"o c #C68C36",
"O c #C88D33",
"+ c #C68E3A",
"@ c #C98E39",
"# c #D48F36",
"$ c #DA8F3B",
"% c #C49335",
"& c #CD9333",
"* c #C5923C",
"= c #CC943C",
"- c #CD9A3E",
"; c #D39536",
": c #D59B35",
"> c #D99C36",
", c #D0973D",
"< c #D29A3E",
"1 c #DA9D3C",
"2 c #CFA23D",
"3 c #D5A03E",
"4 c #D9A03A",
"5 c #C88F40",
"6 c #C59442",
"7 c #CB9542",
"8 c #CE9B43",
"9 c #C79748",
"0 c #CA9648",
"q c #C79A49",
"w c #CE9D49",
"e c #D39442",
"r c #D39D42",
"t c #D79845",
"y c #D29C46",
"u c #D89F44",
"i c #D09A4B",
"p c #D09D4A",
"a c #D79D4A",
"s c #D69F4A",
"d c #D19C4C",
"f c #D39C4E",
"g c #DB9F48",
"h c #D99F4C",
"j c #CD9E50",
"k c #D19E50",
"l c #D49E51",
"z c #D49F59",
"x c #CEA04B",
"c c #D6A144",
"v c #D8A347",
"b c #D4A14A",
"n c #D5A14E",
"m c #DAA549",
"M c #DDA84D",
"N c #CEA053",
"B c #D3A351",
"V c #D6A351",
"C c #D6A152",
"Z c #D4A552",
"A c #D1A254",
"S c #D7A356",
"D c #D3A456",
"F c #D4A756",
"G c #D8A152",
"H c #D8A253",
"J c #D9A554",
"K c #D8A457",
"L c #D6A856",
"P c #DAA855",
"I c #D1A258",
"U c #D5A158",
"Y c #D5A559",
"T c #D5A65A",
"R c #D7A15C",
"E c #D3A45C",
"W c #D7A75D",
"Q c #D5A65E",
"! c #DAA558",
"~ c #D8A55A",
"^ c #D9A65B",
"/ c #D7A85A",
"( c #D6A95C",
") c #D8A95B",
"_ c #D9AA5C",
"` c #DAAB5D",
"' c #E0AD5D",
"] c #D6AB61",
"[ c #D8A860",
"{ c #D9AC61",
/* pixels */
"5;#&;&&&&&;;;;&&&.X&X;;&.X&O . O O@ooo@+7hhllfw0nlHVShVVVBVVBSlwh",
"*@@==7==O=<e-==%=&====&=*=@@@@ooooooooo+6+7zzl++7BUUAAAQAYQIIIIAI",
"@@=@@@==;==<=*&===&,;,,===*@=@@oo@@@@+@7+++6Slw66lURFAAFYQYIIIIII",
"=@==e,,,r=<<<r;-<=<,=,,=,;@=@*@@@@=@@oo77+7**pw0fUUzYYADYQYYYQYUI",
"6@@=,==,=<==<,,ee<<,,,=;,==@@=o@*+@=@@=77*7%-7flVDSzYFDLYYIYQQI_Y",
"7e======;,<,;rr<<<==,,r,,=-=8*8=76777569A0jIYYIIIIIIQUQYQU[YUYRYA",
"7e=<;&,rt<<,<-<eu<,,,e,,,==7===yBqiffGKUAFFIYQQIUIIIUQQQYIYQWWQQY",
"7ee<e-=;<u,,<u<u<e<r<<=,,====**rVF~~~~~YYYFQEEYIYIUQYIUYYQW[_WQ_W",
"7tue==<uu<r=<<<ur,e<<u,r===r8@=8ZFNIQQY_jYA[QYUYRYYIYE~QQYQ____QW",
"-t<<;<<,r<<<eu<<<-<=,--r=7=ysy8*6fQEQQQVq_YEYUQYII[YEUY_YQ_[QW_QW",
"-r<ur,<<,<<<<ce<<;,,,-r<<87777@777I[([(YYY(LYQQYYY~UYYIQQYQ[~Q[[[",
"-r-==,<<eu<uu<<ucue<<<<-<ni78hi778YYYYQD/DSIYQYQY[QIQIIYWQY~[Q[__",
"-u-<<<<u<<u<<<ec<u<<c<r2-yfGsfy77yZFZL/Y/Y_YYIYQIY[EQYUI[YQ___W[Q",
"2e-<,=e<uu<<u<ucuur<rr<<<8eMf88=7766qwLY//YU[IYYEI[YQ__Q_QYW_[_[]",
"<<<<ru<<<<<<cc<cccc3<cc<-=yVDw8==8==*=8wFwAIYA(YFAYYQQW[[_W[W([W]",
"-<3cucucccccvc<ccccc-crcr<8nFn8-===7-=76ww69AY_YHFF(YQ__W[[]W(Q[{",
"cu21<u<ccccvccrcccccccc<r-yxFZ-e==7==8=7=77777pSQY_YI[~YQ_~{{Q({]",
"2u<uuu<cccmmcccccccccccc<rr7Zw=88=8=8===,==77877qYYY_Y[Y_[_{{Q([]",
"cu<cuc<ccccmcvmvccvvvcc3<y88wP-=r88r=88,,======80lDY_Y_YQ__[[]{]`",
"cv3cccr<rccvcmmmmvcmccccryry8mby8r8re==8=7=87@==hFQ(_Y))_)__(]]]{",
"c12cccccmcccccmmmvcvccccccyyyuv88e8r8=8ee==8-***5~QQ_~))//_`_QNQ{",
"cc3cccccccvcvcmmmvmMcvcuvycy8ry78,88r88,=8==7==87SQQY)/)(``__xwVw",
"cc3cc<ccccvcmmMmMMMMcmvccc8cyy8-ryr88ry8==y-*--=wHQ[L/))_D__D8wfn",
"cmccccvcvmvccmmmvvmmmcccc<rr<r3<8<re-===8-yb-7*-eK__Y//)///_Bwwww",
"cmvucccccccccmmMMmvmmmvvccvccc-<<ryr8=888r=88=-68wL)__){//`LN8bww",
"cvc<c8ccccccmMmmmmmmmvcccmcc<ccccc8r8r8r-88887-688))`))(_/```w08w",
"cvc<c3c<cccvmmmmmmmmmmmvvmcc-cc<<crrrye=8-86-78-yf_/`)((`/(`(M8xw",
"cucruc<cuccvmmmmMmmmmMmMmvcvcc3cc-8rycyur<cMx88cffLP`)(]({]{{_Zwq",
"cu-uu<<ur3ccmcvvmvmmmMmMvvcmcccrccc<c<---c-8-c788w0wZL(]][{{{`PLx",
"cururuurrccccmccmvmvvMMmmvmccc3c3c<8-cm-r-ccxx8-88-78xF({){{{_Zxx",
"cccu<u<rccccccmvMccMmmmvmvvmvcccccc3c<<<-c288x8c8228r7x)(x0PLqxxx",
"cyrvuurrr<cccvccmcmvMmmMMcvmcmcvccccrcrccrcc8-x82----y8xnqwwZwNxx",
"3c2cccr3ccccccccvvvMMmvMmmmmmc1v3cvc33<cc-<<cc<<8ryr8x-8x8nw8xLLx",
"4v3ccrccccccccccvvvvvMvvmMmmcc33c3vcccccc<cc<ccrcyy8888-x88wwx8xx",
"mv2cc-c<ccccc<ccvmmmmmmMmmvccc3vcvvvmvcccrrccc-8yrry88y88xwbxxxxx",
"1g2cc<crcvccccccvvmmmmmmcmmmmcvvc3vvvcvcmcccccccyyyr88cyx88w8xxxx",
"1v3vc-ccvvvvmccc3cmvmvvmmmMmmmcmvcvvccmmmcvcccrucbyux88www888qxxx",
"vv4vc3ccmvvvccccccmcvvmmmmmmvMmmmvvmmvmcmcvccccbscbuxv'PYwwxcxxxb",
"c31cc<ccmvmcvc<c3cmcvvmmMmMmvmmMcmmcmccmcmvvcvvvbsssccxY_Vw82xxxx",
"3c1vccccvmmmcccccccmvmmmmmmmmmmmmmcmcmmcmmcvvvvvvvuycx8w'K8x-8xxx",
"324vvcvcmmvMvvcrccccvmmmmmmmmmcmmmcmmccmcmvmvvvmvbpucxxx'`n8cwxxb",
"vc3ccvvmmmcvvvcccc-ccccmmmmmmmmmmvvmmcmcccccmmmchcby8cbxP`Jrcwxxb",
"vv3vcmvmmmvcvvccc2<ccccccmmmmmvcvvvmmmmcccccmvccvsycxc8-n_Jycp8xw",
"4c3vcmmmmmcvvvcccccccccvmmcmvmvcvvvvcmcmmmcmvccccsccx888v'Jy8xbnp",
"vm3cvcMMMvvcvcccccvccvvccmcmmvcvvvvvvvcmmcccccccssusxc8c8LZ8cxbbb",
"4c4vvvvMMmvcvcccucvcccccmmvcccmmvvmvvmmmmmcmmvcccvvcc888cxnc8xbxw",
"vc3vvmcmMvvcvccc<cccrcccccmcmcc<vvMvbmccmvccmccccmcccxx88bbxcbwbb",
"4cvcvvvMMmvccccccccvvc3cccmmcvvvvvbccccmmcmvmmccccruxc8c8x8cxppww",
"mc3vcvmMmmccvvcmcccccccvcmvccccuvvvmvvvcvmmmmmmccvccbbxcx88cxxbwb",
"4v3vcvcmmmvcmccmcc3u<ccccmvcccv3cvcmvvvcmmmmmmcmmvccccc8xcxcc8wbb",
"cc4vccvmccccucccuuuevvucccccccvvvvmvMmmmvvmcvcmvcyvvcccccxcxxcc8x",
"vc1ccmvcvcvr<ccccuc<u<<ccccvccvcvvvMmmcmvvcmmcmcccvvccccccb88xb88",
"4c1<ccmcccucccccc<uuccccc3vcccccvvbvmcvcmvvvcvmvccmcmcvvccb88c8x8",
"231cccccccccccccuuuucccccccmccccvvcvmvmcvmcvmcmccmmccmvvbxbccxxc8",
"v2<<ccuucvucuvcc<mcucc<ccccccccccmccmvcccccbvbcmmmmvmvmvccc8rccyy",
"4c3cucuvccccuc<u<<uuuucccvvmcvccmccbccccmccrcccvmccmcmbcccrccycry",
"121<uuuucvccu<r<u<cuuu<ccvcmmvvcccc-cccccrccccrcccvcmccc-c<c-ryry",
"<3<c<<uvvcccuu<e<uuvc<ccccvcmcrcccccc<<crcccccrcccccr3cccccrcyyyr",
"4c1<uu3vvcu<cecuue<u<3vuccucmcccr<ccc-<cc<cumu-ccccrccccccr3yccyr",
"1r,r<ueuuvuuu1vcv<uuvccurrcvcvcurur<cc<c<uucvuuucccrcccc3--<cyycr",
"1<1<uu<uuuu<u<<ec<vucccrcccccuuuuuccc3rrecu<<,u<ucrccuccrrccccyuy",
"rc:<e<r<u<uuuucc<uuuucc3rcccccr<r1cccrvcur<ucervrccccccucccc<88yr",
"1;;r=<<yu<euruvueuueurvuc<<cuuu<<uccccvuuuuccc<uccccvcmyc<bucyyr-",
"<<@7tiyhbyyyitytspuspbnnbpspssppspppnfsppsyc<ucypbn8pppp8n8yp----",
";$$X:::::X>>>>>>>>>>>>>:>>:>>:>>:4::::4:4::<3vu1>:4:44:44:::4<,1,"
};
